<ttFont>
<head>
    <!-- Most of this table will be recalculated by the compiler -->
    <tableVersion value="1.0"/>
    <fontRevision value="1.301"/>
    <checkSumAdjustment value="0xc14fe9fd"/>
    <magicNumber value="0x5f0f3cf5"/>
    <flags value="00000000 00001011"/>
    <unitsPerEm value="1000"/>
    <created value="Thu Dec  2 04:25:12 2010"/>
    <modified value="Thu Mar  6 17:44:01 2014"/>
    <xMin value="-228"/>
    <yMin value="-528"/>
    <xMax value="1668"/>
    <yMax value="1098"/>
    <macStyle value="00000000 00000010"/>
    <lowestRecPPEM value="9"/>
    <fontDirectionHint value="2"/>
    <indexToLocFormat value="1"/>
    <glyphDataFormat value="0"/>
  </head>
    <TTGlyph name=".notdef" xMin="0" yMin="-200" xMax="500" yMax="800">
      <contour>
        <pt x="0" y="800" on="1"/>
        <pt x="500" y="800" on="1"/>
        <pt x="500" y="-200" on="1"/>
        <pt x="0" y="-200" on="1"/>
      </contour>
      <contour>
        <pt x="250" y="360" on="1"/>
        <pt x="429" y="750" on="1"/>
        <pt x="71" y="750" on="1"/>
      </contour>
      <contour>
        <pt x="222" y="300" on="1"/>
        <pt x="50" y="676" on="1"/>
        <pt x="50" y="-76" on="1"/>
      </contour>
      <contour>
        <pt x="278" y="300" on="1"/>
        <pt x="450" y="-76" on="1"/>
        <pt x="450" y="676" on="1"/>
      </contour>
      <contour>
        <pt x="71" y="-150" on="1"/>
        <pt x="429" y="-150" on="1"/>
        <pt x="250" y="240" on="1"/>
      </contour>
    </TTGlyph>
    <TTGlyph name="A" xMin="-62" yMin="-6" xMax="680" yMax="705">
      <contour>
        <pt x="680" y="13" on="1"/>
        <pt x="680" y="6" on="0"/>
        <pt x="674" y="-6" on="0"/>
        <pt x="669" y="-6" on="1"/>
        <pt x="644" y="-6" on="0"/>
        <pt x="609" y="-4" on="0"/>
        <pt x="578" y="-2" on="0"/>
        <pt x="546" y="0" on="0"/>
        <pt x="525" y="0" on="1"/>
        <pt x="502" y="0" on="0"/>
        <pt x="464" y="-2" on="0"/>
        <pt x="426" y="-4" on="0"/>
        <pt x="387" y="-6" on="0"/>
        <pt x="362" y="-6" on="1"/>
        <pt x="360" y="-6" on="0"/>
        <pt x="357" y="-3" on="0"/>
        <pt x="357" y="3" on="1"/>
        <pt x="357" y="10" on="0"/>
        <pt x="364" y="21" on="0"/>
        <pt x="369" y="22" on="1"/>
        <pt x="402" y="24" on="0"/>
        <pt x="443" y="35" on="0"/>
        <pt x="466" y="55" on="0"/>
        <pt x="475" y="86" on="0"/>
        <pt x="477" y="108" on="1"/>
        <pt x="493" y="273" on="1"/>
        <pt x="300" y="273" on="1"/>
        <pt x="177" y="118" on="1"/>
        <pt x="147" y="79" on="0"/>
        <pt x="147" y="56" on="1"/>
        <pt x="147" y="25" on="0"/>
        <pt x="206" y="22" on="1"/>
        <pt x="211" y="22" on="0"/>
        <pt x="211" y="13" on="1"/>
        <pt x="211" y="6" on="0"/>
        <pt x="204" y="-6" on="0"/>
        <pt x="199" y="-6" on="1"/>
        <pt x="177" y="-6" on="0"/>
        <pt x="148" y="-4" on="0"/>
        <pt x="123" y="-2" on="0"/>
        <pt x="95" y="0" on="0"/>
        <pt x="74" y="0" on="1"/>
        <pt x="41" y="0" on="0"/>
        <pt x="-22" y="-6" on="0"/>
        <pt x="-57" y="-6" on="1"/>
        <pt x="-59" y="-6" on="0"/>
        <pt x="-62" y="-3" on="0"/>
        <pt x="-62" y="3" on="1"/>
        <pt x="-62" y="10" on="0"/>
        <pt x="-56" y="21" on="0"/>
        <pt x="-51" y="22" on="1"/>
        <pt x="10" y="27" on="0"/>
        <pt x="89" y="79" on="0"/>
        <pt x="125" y="122" on="1"/>
        <pt x="603" y="697" on="1"/>
        <pt x="609" y="705" on="0"/>
        <pt x="619" y="705" on="1"/>
        <pt x="631" y="705" on="0"/>
        <pt x="631" y="695" on="1"/>
        <pt x="581" y="115" on="1"/>
        <pt x="579" y="89" on="0"/>
        <pt x="586" y="56" on="0"/>
        <pt x="608" y="36" on="0"/>
        <pt x="646" y="25" on="0"/>
        <pt x="675" y="22" on="1"/>
        <pt x="680" y="21" on="0"/>
      </contour>
      <contour>
        <pt x="325" y="305" on="1"/>
        <pt x="496" y="305" on="1"/>
        <pt x="518" y="547" on="1"/>
      </contour>
    </TTGlyph>
    <TTGlyph name="A.sc" xMin="-56" yMin="-6" xMax="447" yMax="469">
      <component glyphName="a.sc" x="0" y="0" flags="0x204"/>
    </TTGlyph>
    <TTGlyph name="A.swa" xMin="-14" yMin="-44" xMax="1055" yMax="712">
      <contour>
        <pt x="1055" y="14" on="1"/>
        <pt x="1055" y="7" on="0"/>
        <pt x="1048" y="-6" on="0"/>
        <pt x="1043" y="-6" on="1"/>
        <pt x="1018" y="-6" on="0"/>
        <pt x="983" y="-4" on="0"/>
        <pt x="952" y="-2" on="0"/>
        <pt x="920" y="0" on="0"/>
        <pt x="899" y="0" on="1"/>
        <pt x="876" y="0" on="0"/>
        <pt x="838" y="-2" on="0"/>
        <pt x="801" y="-4" on="0"/>
        <pt x="761" y="-6" on="0"/>
        <pt x="736" y="-6" on="1"/>
        <pt x="731" y="-6" on="0"/>
        <pt x="731" y="4" on="1"/>
        <pt x="731" y="10" on="0"/>
        <pt x="738" y="22" on="0"/>
        <pt x="743" y="22" on="1"/>
        <pt x="776" y="24" on="0"/>
        <pt x="817" y="35" on="0"/>
        <pt x="840" y="56" on="0"/>
        <pt x="850" y="87" on="0"/>
        <pt x="852" y="108" on="1"/>
        <pt x="867" y="273" on="1"/>
        <pt x="695" y="273" on="1"/>
        <pt x="635" y="200" on="0"/>
        <pt x="520" y="83" on="0"/>
        <pt x="406" y="0" on="0"/>
        <pt x="290" y="-44" on="0"/>
        <pt x="229" y="-44" on="1"/>
        <pt x="178" y="-44" on="0"/>
        <pt x="89" y="-14" on="0"/>
        <pt x="23" y="42" on="0"/>
        <pt x="-14" y="121" on="0"/>
        <pt x="-14" y="169" on="1"/>
        <pt x="-14" y="205" on="0"/>
        <pt x="18" y="272" on="0"/>
        <pt x="69" y="325" on="0"/>
        <pt x="134" y="356" on="0"/>
        <pt x="167" y="356" on="1"/>
        <pt x="198" y="356" on="0"/>
        <pt x="252" y="335" on="0"/>
        <pt x="291" y="298" on="0"/>
        <pt x="314" y="248" on="0"/>
        <pt x="314" y="220" on="1"/>
        <pt x="314" y="201" on="0"/>
        <pt x="303" y="158" on="0"/>
        <pt x="280" y="121" on="0"/>
        <pt x="245" y="96" on="0"/>
        <pt x="221" y="96" on="1"/>
        <pt x="198" y="96" on="0"/>
        <pt x="174" y="128" on="0"/>
        <pt x="174" y="146" on="1"/>
        <pt x="174" y="167" on="0"/>
        <pt x="195" y="194" on="0"/>
        <pt x="219" y="217" on="0"/>
        <pt x="240" y="241" on="0"/>
        <pt x="240" y="258" on="1"/>
        <pt x="240" y="284" on="0"/>
        <pt x="196" y="324" on="0"/>
        <pt x="167" y="324" on="1"/>
        <pt x="146" y="324" on="0"/>
        <pt x="106" y="303" on="0"/>
        <pt x="74" y="264" on="0"/>
        <pt x="54" y="211" on="0"/>
        <pt x="54" y="178" on="1"/>
        <pt x="54" y="144" on="0"/>
        <pt x="83" y="86" on="0"/>
        <pt x="132" y="43" on="0"/>
        <pt x="195" y="19" on="0"/>
        <pt x="229" y="19" on="1"/>
        <pt x="299" y="19" on="0"/>
        <pt x="437" y="86" on="0"/>
        <pt x="570" y="197" on="0"/>
        <pt x="698" y="339" on="0"/>
        <pt x="818" y="490" on="0"/>
        <pt x="928" y="638" on="0"/>
        <pt x="977" y="698" on="1"/>
        <pt x="990" y="712" on="0"/>
        <pt x="1002" y="712" on="1"/>
        <pt x="1010" y="712" on="0"/>
        <pt x="1021" y="702" on="0"/>
        <pt x="1021" y="695" on="1"/>
        <pt x="1021" y="689" on="0"/>
        <pt x="1015" y="679" on="0"/>
        <pt x="1008" y="664" on="0"/>
        <pt x="1000" y="643" on="0"/>
        <pt x="999" y="628" on="1"/>
        <pt x="955" y="116" on="1"/>
        <pt x="953" y="90" on="0"/>
        <pt x="960" y="57" on="0"/>
        <pt x="982" y="36" on="0"/>
        <pt x="1021" y="26" on="0"/>
        <pt x="1050" y="22" on="1"/>
        <pt x="1055" y="22" on="0"/>
      </contour>
      <contour>
        <pt x="891" y="534" on="1"/>
        <pt x="846" y="471" on="0"/>
        <pt x="763" y="357" on="0"/>
        <pt x="721" y="305" on="1"/>
        <pt x="870" y="305" on="1"/>
      </contour>
    </TTGlyph>
    <TTGlyph name="AE" xMin="-62" yMin="-6" xMax="980" yMax="690">
      <contour>
        <pt x="980" y="690" on="1"/>
        <pt x="978" y="665" on="0"/>
        <pt x="975" y="623" on="0"/>
        <pt x="975" y="601" on="1"/>
        <pt x="975" y="587" on="0"/>
        <pt x="976" y="541" on="0"/>
        <pt x="977" y="527" on="1"/>
        <pt x="977" y="519" on="0"/>
        <pt x="963" y="519" on="1"/>
        <pt x="949" y="519" on="0"/>
        <pt x="949" y="527" on="1"/>
        <pt x="943" y="596" on="0"/>
        <pt x="884" y="652" on="0"/>
        <pt x="818" y="652" on="1"/>
        <pt x="749" y="652" on="1"/>
        <pt x="739" y="652" on="0"/>
        <pt x="717" y="647" on="0"/>
        <pt x="697" y="634" on="0"/>
        <pt x="681" y="610" on="0"/>
        <pt x="677" y="592" on="1"/>
        <pt x="624" y="369" on="1"/>
        <pt x="746" y="369" on="1"/>
        <pt x="766" y="369" on="0"/>
        <pt x="799" y="374" on="0"/>
        <pt x="826" y="393" on="0"/>
        <pt x="849" y="432" on="0"/>
        <pt x="861" y="465" on="1"/>
        <pt x="864" y="473" on="0"/>
        <pt x="875" y="473" on="1"/>
        <pt x="891" y="473" on="0"/>
        <pt x="889" y="465" on="1"/>
        <pt x="884" y="446" on="0"/>
        <pt x="877" y="419" on="0"/>
        <pt x="871" y="395" on="0"/>
        <pt x="863" y="369" on="0"/>
        <pt x="859" y="351" on="1"/>
        <pt x="851" y="316" on="0"/>
        <pt x="841" y="258" on="0"/>
        <pt x="832" y="221" on="1"/>
        <pt x="831" y="213" on="0"/>
        <pt x="818" y="213" on="1"/>
        <pt x="804" y="213" on="0"/>
        <pt x="804" y="221" on="1"/>
        <pt x="808" y="258" on="0"/>
        <pt x="805" y="304" on="0"/>
        <pt x="789" y="329" on="0"/>
        <pt x="760" y="337" on="0"/>
        <pt x="739" y="337" on="1"/>
        <pt x="616" y="337" on="1"/>
        <pt x="561" y="106" on="1"/>
        <pt x="559" y="96" on="0"/>
        <pt x="556" y="80" on="0"/>
        <pt x="556" y="72" on="1"/>
        <pt x="556" y="49" on="0"/>
        <pt x="582" y="32" on="0"/>
        <pt x="602" y="32" on="1"/>
        <pt x="724" y="32" on="1"/>
        <pt x="755" y="32" on="0"/>
        <pt x="815" y="53" on="0"/>
        <pt x="865" y="91" on="0"/>
        <pt x="902" y="144" on="0"/>
        <pt x="912" y="176" on="1"/>
        <pt x="913" y="180" on="0"/>
        <pt x="920" y="180" on="1"/>
        <pt x="928" y="180" on="0"/>
        <pt x="942" y="171" on="0"/>
        <pt x="940" y="167" on="1"/>
        <pt x="927" y="127" on="0"/>
        <pt x="905" y="39" on="0"/>
        <pt x="896" y="-6" on="1"/>
        <pt x="873" y="-5" on="0"/>
        <pt x="798" y="-3" on="0"/>
        <pt x="717" y="-1" on="0"/>
        <pt x="641" y="0" on="0"/>
        <pt x="617" y="0" on="1"/>
        <pt x="593" y="0" on="0"/>
        <pt x="516" y="-1" on="0"/>
        <pt x="435" y="-3" on="0"/>
        <pt x="360" y="-5" on="0"/>
        <pt x="337" y="-6" on="1"/>
        <pt x="335" y="-6" on="0"/>
        <pt x="332" y="-3" on="0"/>
        <pt x="332" y="3" on="1"/>
        <pt x="332" y="10" on="0"/>
        <pt x="339" y="21" on="0"/>
        <pt x="344" y="22" on="1"/>
        <pt x="381" y="26" on="0"/>
        <pt x="423" y="39" on="0"/>
        <pt x="446" y="59" on="0"/>
        <pt x="455" y="87" on="0"/>
        <pt x="460" y="106" on="1"/>
        <pt x="499" y="273" on="1"/>
        <pt x="300" y="273" on="1"/>
        <pt x="177" y="118" on="1"/>
        <pt x="147" y="79" on="0"/>
        <pt x="147" y="56" on="1"/>
        <pt x="147" y="25" on="0"/>
        <pt x="206" y="22" on="1"/>
        <pt x="211" y="22" on="0"/>
        <pt x="211" y="13" on="1"/>
        <pt x="211" y="6" on="0"/>
        <pt x="204" y="-6" on="0"/>
        <pt x="199" y="-6" on="1"/>
        <pt x="177" y="-6" on="0"/>
        <pt x="148" y="-4" on="0"/>
        <pt x="123" y="-2" on="0"/>
        <pt x="95" y="0" on="0"/>
        <pt x="74" y="0" on="1"/>
        <pt x="41" y="0" on="0"/>
        <pt x="-22" y="-6" on="0"/>
        <pt x="-57" y="-6" on="1"/>
        <pt x="-59" y="-6" on="0"/>
        <pt x="-62" y="-3" on="0"/>
        <pt x="-62" y="3" on="1"/>
        <pt x="-62" y="10" on="0"/>
        <pt x="-56" y="21" on="0"/>
        <pt x="-51" y="22" on="1"/>
        <pt x="10" y="27" on="0"/>
        <pt x="89" y="79" on="0"/>
        <pt x="125" y="122" on="1"/>
        <pt x="508" y="584" on="1"/>
        <pt x="522" y="599" on="0"/>
        <pt x="522" y="616" on="1"/>
        <pt x="522" y="637" on="0"/>
        <pt x="476" y="662" on="0"/>
        <pt x="446" y="662" on="1"/>
        <pt x="441" y="662" on="0"/>
        <pt x="441" y="670" on="1"/>
        <pt x="441" y="677" on="0"/>
        <pt x="448" y="690" on="0"/>
        <pt x="453" y="690" on="1"/>
        <pt x="472" y="689" on="0"/>
        <pt x="551" y="687" on="0"/>
        <pt x="638" y="685" on="0"/>
        <pt x="717" y="684" on="0"/>
        <pt x="737" y="684" on="1"/>
        <pt x="758" y="684" on="0"/>
        <pt x="824" y="685" on="0"/>
        <pt x="895" y="687" on="0"/>
        <pt x="960" y="689" on="0"/>
      </contour>
      <contour>
        <pt x="325" y="305" on="1"/>
        <pt x="507" y="305" on="1"/>
        <pt x="584" y="629" on="1"/>
      </contour>
    </TTGlyph>
    <TTGlyph name="AE.sc" xMin="-26" yMin="-5" xMax="704" yMax="456">
      <component glyphName="ae.sc" x="0" y="0" flags="0x204"/>
    </TTGlyph>
    <TTGlyph name="AE.swa" xMin="-14" yMin="-44" xMax="1383" yMax="691">
      <contour>
        <pt x="1383" y="690" on="1"/>
        <pt x="1381" y="666" on="0"/>
        <pt x="1379" y="624" on="0"/>
        <pt x="1379" y="602" on="1"/>
        <pt x="1379" y="587" on="0"/>
        <pt x="1380" y="542" on="0"/>
        <pt x="1380" y="527" on="1"/>
        <pt x="1380" y="519" on="0"/>
        <pt x="1366" y="519" on="1"/>
        <pt x="1354" y="519" on="0"/>
        <pt x="1352" y="527" on="1"/>
        <pt x="1346" y="596" on="0"/>
        <pt x="1286" y="652" on="0"/>
        <pt x="1221" y="652" on="1"/>
        <pt x="1153" y="652" on="1"/>
        <pt x="1143" y="652" on="0"/>
        <pt x="1121" y="647" on="0"/>
        <pt x="1101" y="634" on="0"/>
        <pt x="1084" y="611" on="0"/>
        <pt x="1080" y="593" on="1"/>
        <pt x="1027" y="370" on="1"/>
        <pt x="1150" y="370" on="1"/>
        <pt x="1170" y="370" on="0"/>
        <pt x="1202" y="375" on="0"/>
        <pt x="1229" y="394" on="0"/>
        <pt x="1253" y="433" on="0"/>
        <pt x="1265" y="466" on="1"/>
        <pt x="1267" y="474" on="0"/>
        <pt x="1279" y="474" on="1"/>
        <pt x="1295" y="474" on="0"/>
        <pt x="1293" y="466" on="1"/>
        <pt x="1288" y="447" on="0"/>
        <pt x="1281" y="420" on="0"/>
        <pt x="1274" y="396" on="0"/>
        <pt x="1267" y="370" on="0"/>
        <pt x="1263" y="352" on="1"/>
        <pt x="1255" y="316" on="0"/>
        <pt x="1245" y="259" on="0"/>
        <pt x="1236" y="222" on="1"/>
        <pt x="1233" y="214" on="0"/>
        <pt x="1222" y="214" on="1"/>
        <pt x="1206" y="214" on="0"/>
        <pt x="1208" y="222" on="1"/>
        <pt x="1212" y="259" on="0"/>
        <pt x="1209" y="304" on="0"/>
        <pt x="1193" y="329" on="0"/>
        <pt x="1163" y="337" on="0"/>
        <pt x="1142" y="337" on="1"/>
        <pt x="1020" y="337" on="1"/>
        <pt x="965" y="107" on="1"/>
        <pt x="963" y="97" on="0"/>
        <pt x="959" y="80" on="0"/>
        <pt x="959" y="73" on="1"/>
        <pt x="959" y="50" on="0"/>
        <pt x="986" y="33" on="0"/>
        <pt x="1006" y="33" on="1"/>
        <pt x="1128" y="33" on="1"/>
        <pt x="1159" y="33" on="0"/>
        <pt x="1219" y="54" on="0"/>
        <pt x="1269" y="92" on="0"/>
        <pt x="1306" y="145" on="0"/>
        <pt x="1316" y="177" on="1"/>
        <pt x="1316" y="181" on="0"/>
        <pt x="1324" y="181" on="1"/>
        <pt x="1332" y="181" on="0"/>
        <pt x="1345" y="172" on="0"/>
        <pt x="1344" y="168" on="1"/>
        <pt x="1331" y="128" on="0"/>
        <pt x="1308" y="40" on="0"/>
        <pt x="1299" y="-5" on="1"/>
        <pt x="1276" y="-4" on="0"/>
        <pt x="1201" y="-3" on="0"/>
        <pt x="1120" y="-1" on="0"/>
        <pt x="1044" y="0" on="0"/>
        <pt x="1020" y="0" on="1"/>
        <pt x="996" y="0" on="0"/>
        <pt x="920" y="-1" on="0"/>
        <pt x="839" y="-3" on="0"/>
        <pt x="764" y="-4" on="0"/>
        <pt x="741" y="-5" on="1"/>
        <pt x="735" y="-7" on="0"/>
        <pt x="735" y="4" on="1"/>
        <pt x="735" y="10" on="0"/>
        <pt x="742" y="22" on="0"/>
        <pt x="747" y="23" on="1"/>
        <pt x="784" y="27" on="0"/>
        <pt x="827" y="40" on="0"/>
        <pt x="849" y="60" on="0"/>
        <pt x="858" y="88" on="0"/>
        <pt x="863" y="107" on="1"/>
        <pt x="904" y="273" on="1"/>
        <pt x="731" y="273" on="1"/>
        <pt x="671" y="200" on="0"/>
        <pt x="545" y="83" on="0"/>
        <pt x="417" y="0" on="0"/>
        <pt x="289" y="-44" on="0"/>
        <pt x="229" y="-44" on="1"/>
        <pt x="177" y="-44" on="0"/>
        <pt x="88" y="-14" on="0"/>
        <pt x="23" y="42" on="0"/>
        <pt x="-14" y="121" on="0"/>
        <pt x="-14" y="169" on="1"/>
        <pt x="-14" y="205" on="0"/>
        <pt x="17" y="272" on="0"/>
        <pt x="68" y="325" on="0"/>
        <pt x="133" y="356" on="0"/>
        <pt x="166" y="356" on="1"/>
        <pt x="197" y="356" on="0"/>
        <pt x="251" y="335" on="0"/>
        <pt x="290" y="298" on="0"/>
        <pt x="313" y="248" on="0"/>
        <pt x="313" y="220" on="1"/>
        <pt x="313" y="201" on="0"/>
        <pt x="302" y="158" on="0"/>
        <pt x="279" y="121" on="0"/>
        <pt x="245" y="96" on="0"/>
        <pt x="221" y="96" on="1"/>
        <pt x="198" y="96" on="0"/>
        <pt x="174" y="129" on="0"/>
        <pt x="174" y="146" on="1"/>
        <pt x="174" y="167" on="0"/>
        <pt x="194" y="195" on="0"/>
        <pt x="219" y="218" on="0"/>
        <pt x="239" y="241" on="0"/>
        <pt x="239" y="258" on="1"/>
        <pt x="239" y="271" on="0"/>
        <pt x="227" y="295" on="0"/>
        <pt x="207" y="313" on="0"/>
        <pt x="180" y="324" on="0"/>
        <pt x="166" y="324" on="1"/>
        <pt x="145" y="324" on="0"/>
        <pt x="105" y="303" on="0"/>
        <pt x="74" y="264" on="0"/>
        <pt x="54" y="211" on="0"/>
        <pt x="54" y="178" on="1"/>
        <pt x="54" y="144" on="0"/>
        <pt x="83" y="86" on="0"/>
        <pt x="131" y="43" on="0"/>
        <pt x="194" y="19" on="0"/>
        <pt x="229" y="19" on="1"/>
        <pt x="289" y="19" on="0"/>
        <pt x="414" y="69" on="0"/>
        <pt x="542" y="154" on="0"/>
        <pt x="670" y="267" on="0"/>
        <pt x="795" y="392" on="0"/>
        <pt x="914" y="523" on="0"/>
        <pt x="970" y="584" on="1"/>
        <pt x="978" y="592" on="0"/>
        <pt x="984" y="609" on="0"/>
        <pt x="984" y="617" on="1"/>
        <pt x="984" y="638" on="0"/>
        <pt x="938" y="662" on="0"/>
        <pt x="908" y="662" on="1"/>
        <pt x="905" y="662" on="0"/>
        <pt x="903" y="668" on="0"/>
        <pt x="903" y="671" on="1"/>
        <pt x="903" y="678" on="0"/>
        <pt x="910" y="691" on="0"/>
        <pt x="915" y="690" on="1"/>
        <pt x="934" y="689" on="0"/>
        <pt x="1004" y="687" on="0"/>
        <pt x="1079" y="686" on="0"/>
        <pt x="1149" y="685" on="0"/>
        <pt x="1170" y="685" on="1"/>
        <pt x="1190" y="685" on="0"/>
        <pt x="1247" y="686" on="0"/>
        <pt x="1307" y="687" on="0"/>
        <pt x="1363" y="689" on="0"/>
      </contour>
      <contour>
        <pt x="964" y="526" on="1"/>
        <pt x="910" y="463" on="0"/>
        <pt x="810" y="352" on="0"/>
        <pt x="765" y="305" on="1"/>
        <pt x="912" y="305" on="1"/>
      </contour>
    </TTGlyph>
    <TTGlyph name="AEacute" xMin="-62" yMin="-6" xMax="980" yMax="924">
      <component glyphName="AE" x="0" y="0" flags="0x204"/>
      <component glyphName="acute.cap" x="576" y="0" flags="0x4"/>
    </TTGlyph>
    <TTGlyph name="AEacute.sc" xMin="-26" yMin="-5" xMax="708" yMax="692">
      <component glyphName="acute" x="380" y="15" flags="0x4"/>
      <component glyphName="ae.sc" x="0" y="0" flags="0x4"/>
    </TTGlyph>
    <TTGlyph name="AEacute.swa" xMin="-14" yMin="-44" xMax="1383" yMax="924">
      <component glyphName="AE.swa" x="0" y="0" flags="0x204"/>
      <component glyphName="acute.cap" x="1022" y="0" flags="0x4"/>
    </TTGlyph>
    <TTGlyph name="Aacute" xMin="-62" yMin="-6" xMax="806" yMax="939">
      <component glyphName="A" x="0" y="0" flags="0x204"/>
      <component glyphName="acute.cap" x="488" y="15" flags="0x4"/>
    </TTGlyph>
    <TTGlyph name="Aacute.sc" xMin="-56" yMin="-6" xMax="501" yMax="697">
      <component glyphName="a.sc" x="0" y="0" flags="0x204"/>
      <component glyphName="acute" x="173" y="20" flags="0x4"/>
    </TTGlyph>
    <TTGlyph name="Aacute.swa" xMin="-14" yMin="-44" xMax="1190" yMax="939">
      <component glyphName="A.swa" x="0" y="0" flags="0x204"/>
      <component glyphName="acute.cap" x="872" y="15" flags="0x4"/>
    </TTGlyph>
    <TTGlyph name="Abreve" xMin="-62" yMin="-6" xMax="781" yMax="910">
      <component glyphName="A" x="0" y="0" flags="0x204"/>
      <component glyphName="breve.cap" x="337" y="15" flags="0x4"/>
    </TTGlyph>
    <TTGlyph name="Abreve.sc" xMin="-56" yMin="-6" xMax="488" yMax="686">
      <component glyphName="a.sc" x="0" y="0" flags="0x204"/>
      <component glyphName="breve" x="100" y="20" flags="0x4"/>
    </TTGlyph>
    <TTGlyph name="Abreve.swa" xMin="-14" yMin="-44" xMax="1165" yMax="910">
      <component glyphName="A.swa" x="0" y="0" flags="0x204"/>
      <component glyphName="breve.cap" x="721" y="15" flags="0x4"/>
    </TTGlyph>
    <TTGlyph name="Acircumflex" xMin="-62" yMin="-6" xMax="790" yMax="925">
      <component glyphName="A" x="0" y="0" flags="0x204"/>
      <component glyphName="circumflex.cap" x="385" y="-4" flags="0x4"/>
    </TTGlyph>
    <TTGlyph name="Acircumflex.sc" xMin="-56" yMin="-6" xMax="447" yMax="703">
      <component glyphName="a.sc" x="0" y="0" flags="0x204"/>
      <component glyphName="circumflex" x="114" y="20" flags="0x4"/>
    </TTGlyph>
    <TTGlyph name="Acircumflex.swa" xMin="-14" yMin="-44" xMax="1164" yMax="925">
      <component glyphName="A.swa" x="0" y="0" flags="0x204"/>
      <component glyphName="circumflex.cap" x="759" y="-4" flags="0x4"/>
    </TTGlyph>
    <TTGlyph name="Adieresis" xMin="-62" yMin="-6" xMax="800" yMax="883">
      <component glyphName="A" x="0" y="0" flags="0x204"/>
      <component glyphName="dieresis.cap" x="370" y="15" flags="0x4"/>
    </TTGlyph>
    <TTGlyph name="Adieresis.sc" xMin="-56" yMin="-6" xMax="480" yMax="650">
      <component glyphName="a.sc" x="0" y="0" flags="0x204"/>
      <component glyphName="dieresis" x="102" y="20" flags="0x4"/>
    </TTGlyph>
    <TTGlyph name="Adieresis.swa" xMin="-14" yMin="-44" xMax="1183" yMax="883">
      <component glyphName="A.swa" x="0" y="0" flags="0x204"/>
      <component glyphName="dieresis.cap" x="753" y="15" flags="0x4"/>
    </TTGlyph>
    <TTGlyph name="Agrave" xMin="-62" yMin="-6" xMax="680" yMax="939">
      <component glyphName="A" x="0" y="0" flags="0x204"/>
      <component glyphName="grave.cap" x="343" y="15" flags="0x4"/>
    </TTGlyph>
    <TTGlyph name="Agrave.sc" xMin="-56" yMin="-6" xMax="447" yMax="692">
      <component glyphName="a.sc" x="0" y="0" flags="0x204"/>
      <component glyphName="grave" x="39" y="20" flags="0x4"/>
    </TTGlyph>
    <TTGlyph name="Agrave.swa" xMin="-14" yMin="-44" xMax="1055" yMax="939">
      <component glyphName="A.swa" x="0" y="0" flags="0x204"/>
      <component glyphName="grave.cap" x="727" y="15" flags="0x4"/>
    </TTGlyph>
    <TTGlyph name="Amacron" xMin="-62" yMin="-6" xMax="815" yMax="859">
      <component glyphName="A" x="0" y="0" flags="0x204"/>
      <component glyphName="macron.cap" x="363" y="15" flags="0x4"/>
    </TTGlyph>
    <TTGlyph name="Amacron.sc" xMin="-56" yMin="-6" xMax="478" yMax="618">
      <component glyphName="a.sc" x="0" y="0" flags="0x204"/>
      <component glyphName="macron" x="115" y="20" flags="0x4"/>
    </TTGlyph>
    <TTGlyph name="Amacron.swa" xMin="-14" yMin="-44" xMax="1199" yMax="859">
      <component glyphName="A.swa" x="0" y="0" flags="0x204"/>
      <component glyphName="macron.cap" x="747" y="15" flags="0x4"/>
    </TTGlyph>
    <TTGlyph name="Aogonek" xMin="-62" yMin="-225" xMax="680" yMax="705">
      <contour>
        <pt x="618" y="-179" on="1"/>
        <pt x="606" y="-199" on="0"/>
        <pt x="554" y="-225" on="0"/>
        <pt x="522" y="-225" on="1"/>
        <pt x="497" y="-225" on="0"/>
        <pt x="463" y="-210" on="0"/>
        <pt x="443" y="-186" on="0"/>
        <pt x="434" y="-158" on="0"/>
        <pt x="434" y="-144" on="1"/>
        <pt x="434" y="-106" on="0"/>
        <pt x="487" y="-36" on="0"/>
        <pt x="530" y="0" on="1"/>
        <pt x="525" y="0" on="1"/>
        <pt x="502" y="0" on="0"/>
        <pt x="464" y="-2" on="0"/>
        <pt x="426" y="-4" on="0"/>
        <pt x="387" y="-6" on="0"/>
        <pt x="362" y="-6" on="1"/>
        <pt x="360" y="-6" on="0"/>
        <pt x="357" y="-3" on="0"/>
        <pt x="357" y="3" on="1"/>
        <pt x="357" y="10" on="0"/>
        <pt x="364" y="21" on="0"/>
        <pt x="369" y="22" on="1"/>
        <pt x="402" y="24" on="0"/>
        <pt x="443" y="35" on="0"/>
        <pt x="466" y="55" on="0"/>
        <pt x="475" y="86" on="0"/>
        <pt x="477" y="108" on="1"/>
        <pt x="493" y="273" on="1"/>
        <pt x="300" y="273" on="1"/>
        <pt x="177" y="118" on="1"/>
        <pt x="147" y="79" on="0"/>
        <pt x="147" y="56" on="1"/>
        <pt x="147" y="25" on="0"/>
        <pt x="206" y="22" on="1"/>
        <pt x="211" y="22" on="0"/>
        <pt x="211" y="13" on="1"/>
        <pt x="211" y="6" on="0"/>
        <pt x="204" y="-6" on="0"/>
        <pt x="199" y="-6" on="1"/>
        <pt x="177" y="-6" on="0"/>
        <pt x="148" y="-4" on="0"/>
        <pt x="123" y="-2" on="0"/>
        <pt x="95" y="0" on="0"/>
        <pt x="74" y="0" on="1"/>
        <pt x="41" y="0" on="0"/>
        <pt x="-22" y="-6" on="0"/>
        <pt x="-57" y="-6" on="1"/>
        <pt x="-59" y="-6" on="0"/>
        <pt x="-62" y="-3" on="0"/>
        <pt x="-62" y="3" on="1"/>
        <pt x="-62" y="10" on="0"/>
        <pt x="-56" y="21" on="0"/>
        <pt x="-51" y="22" on="1"/>
        <pt x="10" y="27" on="0"/>
        <pt x="89" y="79" on="0"/>
        <pt x="125" y="122" on="1"/>
        <pt x="603" y="697" on="1"/>
        <pt x="609" y="705" on="0"/>
        <pt x="619" y="705" on="1"/>
        <pt x="631" y="705" on="0"/>
        <pt x="631" y="695" on="1"/>
        <pt x="581" y="115" on="1"/>
        <pt x="579" y="89" on="0"/>
        <pt x="586" y="56" on="0"/>
        <pt x="608" y="36" on="0"/>
        <pt x="646" y="25" on="0"/>
        <pt x="675" y="22" on="1"/>
        <pt x="680" y="21" on="0"/>
        <pt x="680" y="13" on="1"/>
        <pt x="680" y="6" on="0"/>
        <pt x="674" y="-6" on="0"/>
        <pt x="669" y="-6" on="1"/>
        <pt x="637" y="-6" on="0"/>
        <pt x="594" y="-3" on="0"/>
        <pt x="574" y="-1" on="1"/>
        <pt x="544" y="-30" on="0"/>
        <pt x="500" y="-89" on="0"/>
        <pt x="500" y="-122" on="1"/>
        <pt x="500" y="-148" on="0"/>
        <pt x="531" y="-174" on="0"/>
        <pt x="554" y="-174" on="1"/>
        <pt x="571" y="-174" on="0"/>
        <pt x="593" y="-163" on="0"/>
        <pt x="603" y="-155" on="1"/>
        <pt x="610" y="-150" on="0"/>
        <pt x="617" y="-163" on="1"/>
        <pt x="622" y="-171" on="0"/>
      </contour>
      <contour>
        <pt x="325" y="305" on="1"/>
        <pt x="496" y="305" on="1"/>
        <pt x="518" y="547" on="1"/>
      </contour>
    </TTGlyph>
    <TTGlyph name="Aogonek.sc" xMin="-56" yMin="-225" xMax="447" yMax="469">
      <component glyphName="aogonek.sc" x="0" y="0" flags="0x204"/>
    </TTGlyph>
    <TTGlyph name="Aogonek.swa" xMin="-14" yMin="-225" xMax="1055" yMax="712">
      <contour>
        <pt x="990" y="-179" on="1"/>
        <pt x="978" y="-199" on="0"/>
        <pt x="926" y="-225" on="0"/>
        <pt x="894" y="-225" on="1"/>
        <pt x="869" y="-225" on="0"/>
        <pt x="835" y="-210" on="0"/>
        <pt x="815" y="-186" on="0"/>
        <pt x="806" y="-158" on="0"/>
        <pt x="806" y="-144" on="1"/>
        <pt x="806" y="-106" on="0"/>
        <pt x="859" y="-36" on="0"/>
        <pt x="902" y="0" on="1"/>
        <pt x="899" y="0" on="1"/>
        <pt x="876" y="0" on="0"/>
        <pt x="838" y="-2" on="0"/>
        <pt x="801" y="-4" on="0"/>
        <pt x="761" y="-6" on="0"/>
        <pt x="736" y="-6" on="1"/>
        <pt x="731" y="-6" on="0"/>
        <pt x="731" y="4" on="1"/>
        <pt x="731" y="10" on="0"/>
        <pt x="738" y="22" on="0"/>
        <pt x="743" y="22" on="1"/>
        <pt x="776" y="24" on="0"/>
        <pt x="817" y="35" on="0"/>
        <pt x="840" y="56" on="0"/>
        <pt x="850" y="87" on="0"/>
        <pt x="852" y="108" on="1"/>
        <pt x="867" y="273" on="1"/>
        <pt x="695" y="273" on="1"/>
        <pt x="635" y="200" on="0"/>
        <pt x="520" y="83" on="0"/>
        <pt x="406" y="0" on="0"/>
        <pt x="290" y="-44" on="0"/>
        <pt x="229" y="-44" on="1"/>
        <pt x="178" y="-44" on="0"/>
        <pt x="89" y="-14" on="0"/>
        <pt x="23" y="42" on="0"/>
        <pt x="-14" y="121" on="0"/>
        <pt x="-14" y="169" on="1"/>
        <pt x="-14" y="205" on="0"/>
        <pt x="18" y="272" on="0"/>
        <pt x="69" y="325" on="0"/>
        <pt x="134" y="356" on="0"/>
        <pt x="167" y="356" on="1"/>
        <pt x="198" y="356" on="0"/>
        <pt x="252" y="335" on="0"/>
        <pt x="291" y="298" on="0"/>
        <pt x="314" y="248" on="0"/>
        <pt x="314" y="220" on="1"/>
        <pt x="314" y="201" on="0"/>
        <pt x="303" y="158" on="0"/>
        <pt x="280" y="121" on="0"/>
        <pt x="245" y="96" on="0"/>
        <pt x="221" y="96" on="1"/>
        <pt x="198" y="96" on="0"/>
        <pt x="174" y="128" on="0"/>
        <pt x="174" y="146" on="1"/>
        <pt x="174" y="167" on="0"/>
        <pt x="195" y="194" on="0"/>
        <pt x="219" y="217" on="0"/>
        <pt x="240" y="241" on="0"/>
        <pt x="240" y="258" on="1"/>
        <pt x="240" y="284" on="0"/>
        <pt x="196" y="324" on="0"/>
        <pt x="167" y="324" on="1"/>
        <pt x="146" y="324" on="0"/>
        <pt x="106" y="303" on="0"/>
        <pt x="74" y="264" on="0"/>
        <pt x="54" y="211" on="0"/>
        <pt x="54" y="178" on="1"/>
        <pt x="54" y="144" on="0"/>
        <pt x="83" y="86" on="0"/>
        <pt x="132" y="43" on="0"/>
        <pt x="195" y="19" on="0"/>
        <pt x="229" y="19" on="1"/>
        <pt x="299" y="19" on="0"/>
        <pt x="437" y="86" on="0"/>
        <pt x="570" y="197" on="0"/>
        <pt x="698" y="339" on="0"/>
        <pt x="818" y="490" on="0"/>
        <pt x="928" y="638" on="0"/>
        <pt x="977" y="698" on="1"/>
        <pt x="990" y="712" on="0"/>
        <pt x="1002" y="712" on="1"/>
        <pt x="1010" y="712" on="0"/>
        <pt x="1021" y="702" on="0"/>
        <pt x="1021" y="695" on="1"/>
        <pt x="1021" y="689" on="0"/>
        <pt x="1015" y="679" on="0"/>
        <pt x="1008" y="664" on="0"/>
        <pt x="1000" y="643" on="0"/>
        <pt x="999" y="628" on="1"/>
        <pt x="955" y="116" on="1"/>
        <pt x="953" y="90" on="0"/>
        <pt x="960" y="57" on="0"/>
        <pt x="982" y="36" on="0"/>
        <pt x="1021" y="26" on="0"/>
        <pt x="1050" y="22" on="1"/>
        <pt x="1055" y="22" on="0"/>
        <pt x="1055" y="14" on="1"/>
        <pt x="1055" y="7" on="0"/>
        <pt x="1048" y="-6" on="0"/>
        <pt x="1043" y="-6" on="1"/>
        <pt x="1010" y="-6" on="0"/>
        <pt x="967" y="-3" on="0"/>
        <pt x="946" y="-1" on="1"/>
        <pt x="916" y="-30" on="0"/>
        <pt x="872" y="-89" on="0"/>
        <pt x="872" y="-122" on="1"/>
        <pt x="872" y="-148" on="0"/>
        <pt x="903" y="-174" on="0"/>
        <pt x="926" y="-174" on="1"/>
        <pt x="943" y="-174" on="0"/>
        <pt x="965" y="-163" on="0"/>
        <pt x="975" y="-155" on="1"/>
        <pt x="982" y="-150" on="0"/>
        <pt x="989" y="-163" on="1"/>
        <pt x="994" y="-171" on="0"/>
      </contour>
      <contour>
        <pt x="891" y="534" on="1"/>
        <pt x="846" y="471" on="0"/>
        <pt x="763" y="357" on="0"/>
        <pt x="721" y="305" on="1"/>
        <pt x="870" y="305" on="1"/>
      </contour>
    </TTGlyph>
    <TTGlyph name="Aring" xMin="-62" yMin="-6" xMax="733" yMax="887">
      <contour>
        <pt x="733" y="789" on="1"/>
        <pt x="733" y="769" on="0"/>
        <pt x="718" y="734" on="0"/>
        <pt x="691" y="707" on="0"/>
        <pt x="653" y="690" on="0"/>
        <pt x="631" y="690" on="1"/>
        <pt x="581" y="115" on="1"/>
        <pt x="579" y="89" on="0"/>
        <pt x="586" y="56" on="0"/>
        <pt x="608" y="36" on="0"/>
        <pt x="646" y="25" on="0"/>
        <pt x="675" y="22" on="1"/>
        <pt x="680" y="21" on="0"/>
        <pt x="680" y="13" on="1"/>
        <pt x="680" y="6" on="0"/>
        <pt x="674" y="-6" on="0"/>
        <pt x="669" y="-6" on="1"/>
        <pt x="644" y="-6" on="0"/>
        <pt x="609" y="-4" on="0"/>
        <pt x="578" y="-2" on="0"/>
        <pt x="546" y="0" on="0"/>
        <pt x="525" y="0" on="1"/>
        <pt x="502" y="0" on="0"/>
        <pt x="464" y="-2" on="0"/>
        <pt x="426" y="-4" on="0"/>
        <pt x="387" y="-6" on="0"/>
        <pt x="362" y="-6" on="1"/>
        <pt x="360" y="-6" on="0"/>
        <pt x="357" y="-3" on="0"/>
        <pt x="357" y="3" on="1"/>
        <pt x="357" y="10" on="0"/>
        <pt x="364" y="21" on="0"/>
        <pt x="369" y="22" on="1"/>
        <pt x="402" y="24" on="0"/>
        <pt x="443" y="35" on="0"/>
        <pt x="466" y="55" on="0"/>
        <pt x="475" y="86" on="0"/>
        <pt x="477" y="108" on="1"/>
        <pt x="493" y="273" on="1"/>
        <pt x="300" y="273" on="1"/>
        <pt x="177" y="118" on="1"/>
        <pt x="147" y="79" on="0"/>
        <pt x="147" y="56" on="1"/>
        <pt x="147" y="25" on="0"/>
        <pt x="206" y="22" on="1"/>
        <pt x="211" y="22" on="0"/>
        <pt x="211" y="13" on="1"/>
        <pt x="211" y="6" on="0"/>
        <pt x="204" y="-6" on="0"/>
        <pt x="199" y="-6" on="1"/>
        <pt x="177" y="-6" on="0"/>
        <pt x="148" y="-4" on="0"/>
        <pt x="123" y="-2" on="0"/>
        <pt x="95" y="0" on="0"/>
        <pt x="74" y="0" on="1"/>
        <pt x="41" y="0" on="0"/>
        <pt x="-22" y="-6" on="0"/>
        <pt x="-57" y="-6" on="1"/>
        <pt x="-59" y="-6" on="0"/>
        <pt x="-62" y="-3" on="0"/>
        <pt x="-62" y="3" on="1"/>
        <pt x="-62" y="10" on="0"/>
        <pt x="-56" y="21" on="0"/>
        <pt x="-51" y="22" on="1"/>
        <pt x="10" y="27" on="0"/>
        <pt x="89" y="79" on="0"/>
        <pt x="125" y="122" on="1"/>
        <pt x="600" y="694" on="1"/>
        <pt x="566" y="703" on="0"/>
        <pt x="525" y="757" on="0"/>
        <pt x="525" y="789" on="1"/>
        <pt x="525" y="808" on="0"/>
        <pt x="540" y="844" on="0"/>
        <pt x="568" y="871" on="0"/>
        <pt x="606" y="887" on="0"/>
        <pt x="629" y="887" on="1"/>
        <pt x="652" y="887" on="0"/>
        <pt x="690" y="871" on="0"/>
        <pt x="718" y="844" on="0"/>
        <pt x="733" y="808" on="0"/>
      </contour>
      <contour>
        <pt x="689" y="789" on="1"/>
        <pt x="689" y="817" on="0"/>
        <pt x="655" y="855" on="0"/>
        <pt x="629" y="855" on="1"/>
        <pt x="603" y="855" on="0"/>
        <pt x="569" y="817" on="0"/>
        <pt x="569" y="789" on="1"/>
        <pt x="569" y="760" on="0"/>
        <pt x="603" y="722" on="0"/>
        <pt x="629" y="722" on="1"/>
        <pt x="655" y="722" on="0"/>
        <pt x="689" y="760" on="0"/>
      </contour>
      <contour>
        <pt x="325" y="305" on="1"/>
        <pt x="496" y="305" on="1"/>
        <pt x="518" y="547" on="1"/>
      </contour>
    </TTGlyph>
    <TTGlyph name="Aring.sc" xMin="-56" yMin="-6" xMax="447" yMax="638">
      <component glyphName="aring.sc" x="0" y="0" flags="0x204"/>
    </TTGlyph>
    <TTGlyph name="Aring.swa" xMin="-14" yMin="-44" xMax="1107" yMax="887">
      <contour>
        <pt x="1107" y="789" on="1"/>
        <pt x="1107" y="754" on="0"/>
        <pt x="1059" y="698" on="0"/>
        <pt x="1021" y="691" on="1"/>
        <pt x="1019" y="681" on="0"/>
        <pt x="1002" y="657" on="0"/>
        <pt x="999" y="628" on="1"/>
        <pt x="955" y="116" on="1"/>
        <pt x="953" y="90" on="0"/>
        <pt x="960" y="57" on="0"/>
        <pt x="982" y="36" on="0"/>
        <pt x="1021" y="26" on="0"/>
        <pt x="1050" y="22" on="1"/>
        <pt x="1055" y="22" on="0"/>
        <pt x="1055" y="14" on="1"/>
        <pt x="1055" y="7" on="0"/>
        <pt x="1048" y="-6" on="0"/>
        <pt x="1043" y="-6" on="1"/>
        <pt x="1018" y="-6" on="0"/>
        <pt x="983" y="-4" on="0"/>
        <pt x="952" y="-2" on="0"/>
        <pt x="920" y="0" on="0"/>
        <pt x="899" y="0" on="1"/>
        <pt x="876" y="0" on="0"/>
        <pt x="838" y="-2" on="0"/>
        <pt x="801" y="-4" on="0"/>
        <pt x="761" y="-6" on="0"/>
        <pt x="736" y="-6" on="1"/>
        <pt x="731" y="-6" on="0"/>
        <pt x="731" y="4" on="1"/>
        <pt x="731" y="10" on="0"/>
        <pt x="738" y="22" on="0"/>
        <pt x="743" y="22" on="1"/>
        <pt x="776" y="24" on="0"/>
        <pt x="817" y="35" on="0"/>
        <pt x="840" y="56" on="0"/>
        <pt x="850" y="87" on="0"/>
        <pt x="852" y="108" on="1"/>
        <pt x="867" y="273" on="1"/>
        <pt x="695" y="273" on="1"/>
        <pt x="635" y="200" on="0"/>
        <pt x="520" y="83" on="0"/>
        <pt x="406" y="0" on="0"/>
        <pt x="290" y="-44" on="0"/>
        <pt x="229" y="-44" on="1"/>
        <pt x="178" y="-44" on="0"/>
        <pt x="89" y="-14" on="0"/>
        <pt x="23" y="42" on="0"/>
        <pt x="-14" y="121" on="0"/>
        <pt x="-14" y="169" on="1"/>
        <pt x="-14" y="205" on="0"/>
        <pt x="18" y="272" on="0"/>
        <pt x="69" y="325" on="0"/>
        <pt x="134" y="356" on="0"/>
        <pt x="167" y="356" on="1"/>
        <pt x="198" y="356" on="0"/>
        <pt x="252" y="335" on="0"/>
        <pt x="291" y="298" on="0"/>
        <pt x="314" y="248" on="0"/>
        <pt x="314" y="220" on="1"/>
        <pt x="314" y="201" on="0"/>
        <pt x="303" y="158" on="0"/>
        <pt x="280" y="121" on="0"/>
        <pt x="245" y="96" on="0"/>
        <pt x="221" y="96" on="1"/>
        <pt x="198" y="96" on="0"/>
        <pt x="174" y="128" on="0"/>
        <pt x="174" y="146" on="1"/>
        <pt x="174" y="167" on="0"/>
        <pt x="195" y="194" on="0"/>
        <pt x="219" y="217" on="0"/>
        <pt x="240" y="241" on="0"/>
        <pt x="240" y="258" on="1"/>
        <pt x="240" y="284" on="0"/>
        <pt x="196" y="324" on="0"/>
        <pt x="167" y="324" on="1"/>
        <pt x="146" y="324" on="0"/>
        <pt x="106" y="303" on="0"/>
        <pt x="74" y="264" on="0"/>
        <pt x="54" y="211" on="0"/>
        <pt x="54" y="178" on="1"/>
        <pt x="54" y="144" on="0"/>
        <pt x="83" y="86" on="0"/>
        <pt x="132" y="43" on="0"/>
        <pt x="195" y="19" on="0"/>
        <pt x="229" y="19" on="1"/>
        <pt x="298" y="19" on="0"/>
        <pt x="436" y="85" on="0"/>
        <pt x="568" y="195" on="0"/>
        <pt x="695" y="336" on="0"/>
        <pt x="815" y="486" on="0"/>
        <pt x="925" y="633" on="0"/>
        <pt x="974" y="694" on="1"/>
        <pt x="940" y="703" on="0"/>
        <pt x="899" y="757" on="0"/>
        <pt x="899" y="789" on="1"/>
        <pt x="899" y="808" on="0"/>
        <pt x="914" y="844" on="0"/>
        <pt x="942" y="871" on="0"/>
        <pt x="980" y="887" on="0"/>
        <pt x="1003" y="887" on="1"/>
        <pt x="1026" y="887" on="0"/>
        <pt x="1064" y="871" on="0"/>
        <pt x="1092" y="844" on="0"/>
        <pt x="1107" y="808" on="0"/>
      </contour>
      <contour>
        <pt x="1063" y="789" on="1"/>
        <pt x="1063" y="817" on="0"/>
        <pt x="1029" y="855" on="0"/>
        <pt x="1003" y="855" on="1"/>
        <pt x="977" y="855" on="0"/>
        <pt x="943" y="817" on="0"/>
        <pt x="943" y="789" on="1"/>
        <pt x="943" y="760" on="0"/>
        <pt x="977" y="722" on="0"/>
        <pt x="1003" y="722" on="1"/>
        <pt x="1029" y="722" on="0"/>
        <pt x="1063" y="760" on="0"/>
      </contour>
      <contour>
        <pt x="891" y="534" on="1"/>
        <pt x="846" y="471" on="0"/>
        <pt x="763" y="357" on="0"/>
        <pt x="721" y="305" on="1"/>
        <pt x="870" y="305" on="1"/>
      </contour>
    </TTGlyph>
    <TTGlyph name="Aringacute" xMin="-62" yMin="-6" xMax="853" yMax="1097">
      <component glyphName="Aring" x="0" y="0" flags="0x204"/>
      <component glyphName="acute" x="525" y="420" flags="0x4"/>
    </TTGlyph>
    <TTGlyph name="Aringacute.sc" xMin="-56" yMin="-6" xMax="542" yMax="847">
      <component glyphName="acute" x="214" y="170" flags="0x4"/>
      <component glyphName="aring.sc" x="0" y="0" flags="0x4"/>
    </TTGlyph>
    <TTGlyph name="Aringacute.swa" xMin="-14" yMin="-44" xMax="1220" yMax="1098">
      <component glyphName="Aring.swa" x="0" y="0" flags="0x204"/>
      <component glyphName="acute" x="892" y="421" flags="0x4"/>
    </TTGlyph>
    <TTGlyph name="Atilde" xMin="-62" yMin="-6" xMax="809" yMax="934">
      <component glyphName="A" x="0" y="0" flags="0x204"/>
      <component glyphName="tilde.cap" x="357" y="15" flags="0x4"/>
    </TTGlyph>
    <TTGlyph name="Atilde.sc" xMin="-56" yMin="-6" xMax="504" yMax="679">
      <component glyphName="a.sc" x="0" y="0" flags="0x204"/>
      <component glyphName="tilde" x="112" y="20" flags="0x4"/>
    </TTGlyph>
    <TTGlyph name="Atilde.swa" xMin="-14" yMin="-44" xMax="1193" yMax="934">
      <component glyphName="A.swa" x="0" y="0" flags="0x204"/>
      <component glyphName="tilde.cap" x="741" y="15" flags="0x4"/>
    </TTGlyph>
    <TTGlyph name="B" xMin="-38" yMin="-6" xMax="597" yMax="690">
      <contour>
        <pt x="597" y="538" on="1"/>
        <pt x="597" y="507" on="0"/>
        <pt x="571" y="454" on="0"/>
        <pt x="527" y="411" on="0"/>
        <pt x="468" y="381" on="0"/>
        <pt x="435" y="374" on="1"/>
        <pt x="459" y="369" on="0"/>
        <pt x="507" y="340" on="0"/>
        <pt x="544" y="298" on="0"/>
        <pt x="567" y="245" on="0"/>
        <pt x="567" y="216" on="1"/>
        <pt x="567" y="167" on="0"/>
        <pt x="526" y="85" on="0"/>
        <pt x="455" y="27" on="0"/>
        <pt x="363" y="-6" on="0"/>
        <pt x="312" y="-6" on="1"/>
        <pt x="262" y="-6" on="0"/>
        <pt x="176" y="0" on="0"/>
        <pt x="129" y="0" on="1"/>
        <pt x="106" y="0" on="0"/>
        <pt x="68" y="-2" on="0"/>
        <pt x="31" y="-4" on="0"/>
        <pt x="-8" y="-6" on="0"/>
        <pt x="-33" y="-6" on="1"/>
        <pt x="-35" y="-6" on="0"/>
        <pt x="-38" y="-3" on="0"/>
        <pt x="-38" y="3" on="1"/>
        <pt x="-38" y="10" on="0"/>
        <pt x="-31" y="21" on="0"/>
        <pt x="-26" y="22" on="1"/>
        <pt x="11" y="26" on="0"/>
        <pt x="53" y="39" on="0"/>
        <pt x="75" y="59" on="0"/>
        <pt x="84" y="87" on="0"/>
        <pt x="89" y="106" on="1"/>
        <pt x="201" y="577" on="1"/>
        <pt x="203" y="587" on="0"/>
        <pt x="207" y="603" on="0"/>
        <pt x="207" y="611" on="1"/>
        <pt x="207" y="632" on="0"/>
        <pt x="170" y="655" on="0"/>
        <pt x="118" y="662" on="1"/>
        <pt x="113" y="662" on="0"/>
        <pt x="113" y="670" on="1"/>
        <pt x="113" y="677" on="0"/>
        <pt x="119" y="690" on="0"/>
        <pt x="124" y="690" on="1"/>
        <pt x="149" y="690" on="0"/>
        <pt x="182" y="688" on="0"/>
        <pt x="211" y="686" on="0"/>
        <pt x="242" y="684" on="0"/>
        <pt x="265" y="684" on="1"/>
        <pt x="288" y="684" on="0"/>
        <pt x="320" y="686" on="0"/>
        <pt x="350" y="688" on="0"/>
        <pt x="384" y="690" on="0"/>
        <pt x="409" y="690" on="1"/>
        <pt x="496" y="690" on="0"/>
        <pt x="597" y="611" on="0"/>
      </contour>
      <contour>
        <pt x="494" y="546" on="1"/>
        <pt x="494" y="600" on="0"/>
        <pt x="451" y="656" on="0"/>
        <pt x="397" y="656" on="1"/>
        <pt x="385" y="656" on="1"/>
        <pt x="350" y="656" on="0"/>
        <pt x="315" y="627" on="0"/>
        <pt x="309" y="602" on="1"/>
        <pt x="257" y="384" on="1"/>
        <pt x="330" y="384" on="1"/>
        <pt x="414" y="384" on="0"/>
        <pt x="494" y="473" on="0"/>
      </contour>
      <contour>
        <pt x="460" y="208" on="1"/>
        <pt x="460" y="288" on="0"/>
        <pt x="387" y="352" on="0"/>
        <pt x="313" y="352" on="1"/>
        <pt x="250" y="352" on="1"/>
        <pt x="191" y="106" on="1"/>
        <pt x="186" y="87" on="0"/>
        <pt x="187" y="57" on="0"/>
        <pt x="203" y="37" on="0"/>
        <pt x="239" y="27" on="0"/>
        <pt x="270" y="27" on="1"/>
        <pt x="317" y="27" on="0"/>
        <pt x="388" y="58" on="0"/>
        <pt x="436" y="108" on="0"/>
        <pt x="460" y="173" on="0"/>
      </contour>
    </TTGlyph>
    <TTGlyph name="B.sc" xMin="0" yMin="-6" xMax="450" yMax="456">
      <component glyphName="b.sc" x="0" y="0" flags="0x204"/>
    </TTGlyph>
    <TTGlyph name="B.swa" xMin="48" yMin="-6" xMax="808" yMax="705">
      <contour>
        <pt x="808" y="538" on="1"/>
        <pt x="808" y="507" on="0"/>
        <pt x="782" y="453" on="0"/>
        <pt x="738" y="411" on="0"/>
        <pt x="679" y="382" on="0"/>
        <pt x="646" y="375" on="1"/>
        <pt x="671" y="370" on="0"/>
        <pt x="718" y="341" on="0"/>
        <pt x="755" y="298" on="0"/>
        <pt x="778" y="245" on="0"/>
        <pt x="778" y="216" on="1"/>
        <pt x="778" y="167" on="0"/>
        <pt x="737" y="86" on="0"/>
        <pt x="666" y="27" on="0"/>
        <pt x="574" y="-6" on="0"/>
        <pt x="523" y="-6" on="1"/>
        <pt x="473" y="-6" on="0"/>
        <pt x="387" y="0" on="0"/>
        <pt x="340" y="0" on="1"/>
        <pt x="317" y="0" on="0"/>
        <pt x="279" y="-2" on="0"/>
        <pt x="242" y="-4" on="0"/>
        <pt x="203" y="-6" on="0"/>
        <pt x="178" y="-6" on="1"/>
        <pt x="173" y="-6" on="0"/>
        <pt x="173" y="4" on="1"/>
        <pt x="173" y="10" on="0"/>
        <pt x="180" y="22" on="0"/>
        <pt x="185" y="22" on="1"/>
        <pt x="222" y="26" on="0"/>
        <pt x="264" y="40" on="0"/>
        <pt x="286" y="59" on="0"/>
        <pt x="296" y="87" on="0"/>
        <pt x="301" y="107" on="1"/>
        <pt x="420" y="607" on="1"/>
        <pt x="424" y="623" on="0"/>
        <pt x="421" y="642" on="0"/>
        <pt x="412" y="652" on="0"/>
        <pt x="398" y="656" on="0"/>
        <pt x="389" y="656" on="1"/>
        <pt x="366" y="656" on="0"/>
        <pt x="302" y="642" on="0"/>
        <pt x="233" y="615" on="0"/>
        <pt x="166" y="576" on="0"/>
        <pt x="113" y="525" on="0"/>
        <pt x="80" y="464" on="0"/>
        <pt x="80" y="428" on="1"/>
        <pt x="80" y="380" on="0"/>
        <pt x="122" y="332" on="0"/>
        <pt x="151" y="332" on="1"/>
        <pt x="167" y="332" on="0"/>
        <pt x="182" y="351" on="0"/>
        <pt x="195" y="374" on="0"/>
        <pt x="212" y="393" on="0"/>
        <pt x="229" y="393" on="1"/>
        <pt x="252" y="393" on="0"/>
        <pt x="282" y="366" on="0"/>
        <pt x="282" y="337" on="1"/>
        <pt x="282" y="308" on="0"/>
        <pt x="233" y="265" on="0"/>
        <pt x="192" y="265" on="1"/>
        <pt x="156" y="265" on="0"/>
        <pt x="102" y="293" on="0"/>
        <pt x="66" y="338" on="0"/>
        <pt x="48" y="397" on="0"/>
        <pt x="48" y="428" on="1"/>
        <pt x="48" y="482" on="0"/>
        <pt x="114" y="582" on="0"/>
        <pt x="246" y="659" on="0"/>
        <pt x="444" y="705" on="0"/>
        <pt x="577" y="705" on="1"/>
        <pt x="631" y="705" on="0"/>
        <pt x="717" y="679" on="0"/>
        <pt x="776" y="633" on="0"/>
        <pt x="808" y="572" on="0"/>
      </contour>
      <contour>
        <pt x="705" y="546" on="1"/>
        <pt x="705" y="604" on="0"/>
        <pt x="655" y="671" on="0"/>
        <pt x="593" y="671" on="1"/>
        <pt x="583" y="671" on="0"/>
        <pt x="562" y="667" on="0"/>
        <pt x="543" y="655" on="0"/>
        <pt x="528" y="633" on="0"/>
        <pt x="524" y="615" on="1"/>
        <pt x="468" y="385" on="1"/>
        <pt x="541" y="385" on="1"/>
        <pt x="625" y="385" on="0"/>
        <pt x="705" y="472" on="0"/>
      </contour>
      <contour>
        <pt x="671" y="208" on="1"/>
        <pt x="671" y="288" on="0"/>
        <pt x="599" y="353" on="0"/>
        <pt x="524" y="353" on="1"/>
        <pt x="461" y="353" on="1"/>
        <pt x="402" y="107" on="1"/>
        <pt x="397" y="87" on="0"/>
        <pt x="398" y="58" on="0"/>
        <pt x="414" y="38" on="0"/>
        <pt x="450" y="28" on="0"/>
        <pt x="481" y="28" on="1"/>
        <pt x="529" y="28" on="0"/>
        <pt x="600" y="58" on="0"/>
        <pt x="647" y="109" on="0"/>
        <pt x="671" y="173" on="0"/>
      </contour>
    </TTGlyph>
    <TTGlyph name="C" xMin="55" yMin="-22" xMax="674" yMax="705">
      <contour>
        <pt x="674" y="695" on="1"/>
        <pt x="669" y="653" on="0"/>
        <pt x="661" y="569" on="0"/>
        <pt x="657" y="528" on="1"/>
        <pt x="657" y="519" on="0"/>
        <pt x="643" y="519" on="1"/>
        <pt x="629" y="519" on="0"/>
        <pt x="629" y="528" on="1"/>
        <pt x="629" y="602" on="0"/>
        <pt x="558" y="665" on="0"/>
        <pt x="503" y="665" on="1"/>
        <pt x="436" y="665" on="0"/>
        <pt x="312" y="596" on="0"/>
        <pt x="216" y="472" on="0"/>
        <pt x="158" y="299" on="0"/>
        <pt x="158" y="195" on="1"/>
        <pt x="158" y="156" on="0"/>
        <pt x="184" y="89" on="0"/>
        <pt x="234" y="39" on="0"/>
        <pt x="306" y="10" on="0"/>
        <pt x="353" y="10" on="1"/>
        <pt x="398" y="10" on="0"/>
        <pt x="467" y="34" on="0"/>
        <pt x="522" y="79" on="0"/>
        <pt x="564" y="145" on="0"/>
        <pt x="582" y="187" on="1"/>
        <pt x="585" y="196" on="0"/>
        <pt x="598" y="196" on="1"/>
        <pt x="605" y="196" on="0"/>
        <pt x="611" y="190" on="0"/>
        <pt x="610" y="187" on="1"/>
        <pt x="605" y="169" on="0"/>
        <pt x="593" y="124" on="0"/>
        <pt x="581" y="76" on="0"/>
        <pt x="569" y="29" on="0"/>
        <pt x="564" y="9" on="1"/>
        <pt x="540" y="3" on="0"/>
        <pt x="484" y="-9" on="0"/>
        <pt x="425" y="-17" on="0"/>
        <pt x="366" y="-22" on="0"/>
        <pt x="339" y="-22" on="1"/>
        <pt x="276" y="-22" on="0"/>
        <pt x="171" y="16" on="0"/>
        <pt x="96" y="87" on="0"/>
        <pt x="55" y="186" on="0"/>
        <pt x="55" y="247" on="1"/>
        <pt x="55" y="341" on="0"/>
        <pt x="132" y="508" on="0"/>
        <pt x="269" y="633" on="0"/>
        <pt x="455" y="705" on="0"/>
        <pt x="565" y="705" on="1"/>
        <pt x="595" y="705" on="0"/>
        <pt x="651" y="700" on="0"/>
      </contour>
    </TTGlyph>
    <TTGlyph name="C.sc" xMin="36" yMin="-19" xMax="481" yMax="473">
      <component glyphName="c.sc" x="0" y="0" flags="0x204"/>
    </TTGlyph>
    <TTGlyph name="C.swa" xMin="30" yMin="-274" xMax="708" yMax="705">
      <contour>
        <pt x="708" y="549" on="1"/>
        <pt x="708" y="507" on="0"/>
        <pt x="667" y="445" on="0"/>
        <pt x="630" y="445" on="1"/>
        <pt x="608" y="445" on="0"/>
        <pt x="584" y="473" on="0"/>
        <pt x="584" y="497" on="1"/>
        <pt x="584" y="515" on="0"/>
        <pt x="600" y="539" on="0"/>
        <pt x="619" y="559" on="0"/>
        <pt x="635" y="578" on="0"/>
        <pt x="635" y="592" on="1"/>
        <pt x="635" y="641" on="0"/>
        <pt x="587" y="672" on="0"/>
        <pt x="540" y="672" on="1"/>
        <pt x="488" y="672" on="0"/>
        <pt x="387" y="626" on="0"/>
        <pt x="297" y="542" on="0"/>
        <pt x="220" y="423" on="0"/>
        <pt x="164" y="276" on="0"/>
        <pt x="133" y="104" on="0"/>
        <pt x="133" y="9" on="1"/>
        <pt x="133" y="-34" on="0"/>
        <pt x="157" y="-123" on="0"/>
        <pt x="206" y="-196" on="0"/>
        <pt x="281" y="-242" on="0"/>
        <pt x="332" y="-242" on="1"/>
        <pt x="379" y="-242" on="0"/>
        <pt x="456" y="-208" on="0"/>
        <pt x="519" y="-151" on="0"/>
        <pt x="566" y="-78" on="0"/>
        <pt x="601" y="1" on="0"/>
        <pt x="622" y="79" on="0"/>
        <pt x="627" y="112" on="1"/>
        <pt x="627" y="117" on="0"/>
        <pt x="637" y="117" on="1"/>
        <pt x="643" y="117" on="0"/>
        <pt x="656" y="110" on="0"/>
        <pt x="655" y="105" on="1"/>
        <pt x="643" y="21" on="0"/>
        <pt x="583" y="-118" on="0"/>
        <pt x="494" y="-218" on="0"/>
        <pt x="382" y="-274" on="0"/>
        <pt x="319" y="-274" on="1"/>
        <pt x="251" y="-274" on="0"/>
        <pt x="144" y="-219" on="0"/>
        <pt x="70" y="-126" on="0"/>
        <pt x="30" y="-5" on="0"/>
        <pt x="30" y="60" on="1"/>
        <pt x="30" y="163" on="0"/>
        <pt x="82" y="339" on="0"/>
        <pt x="168" y="482" on="0"/>
        <pt x="277" y="592" on="0"/>
        <pt x="390" y="667" on="0"/>
        <pt x="498" y="705" on="0"/>
        <pt x="540" y="705" on="1"/>
        <pt x="576" y="705" on="0"/>
        <pt x="637" y="682" on="0"/>
        <pt x="682" y="640" on="0"/>
        <pt x="708" y="583" on="0"/>
      </contour>
    </TTGlyph>
    <TTGlyph name="Cacute" xMin="55" yMin="-22" xMax="674" yMax="939">
      <component glyphName="C" x="0" y="0" flags="0x204"/>
      <component glyphName="acute.cap" x="341" y="15" flags="0x4"/>
    </TTGlyph>
    <TTGlyph name="Cacute.sc" xMin="36" yMin="-19" xMax="528" yMax="697">
      <component glyphName="c.sc" x="0" y="0" flags="0x204"/>
      <component glyphName="acute" x="200" y="20" flags="0x4"/>
    </TTGlyph>
    <TTGlyph name="Cacute.swa" xMin="30" yMin="-274" xMax="719" yMax="939">
      <component glyphName="C.swa" x="0" y="0" flags="0x204"/>
      <component glyphName="acute.cap" x="401" y="15" flags="0x4"/>
    </TTGlyph>
    <TTGlyph name="Ccaron" xMin="55" yMin="-22" xMax="674" yMax="943">
      <component glyphName="C" x="0" y="0" flags="0x204"/>
      <component glyphName="caron.cap" x="211" y="15" flags="0x4"/>
    </TTGlyph>
    <TTGlyph name="Ccaron.sc" xMin="36" yMin="-19" xMax="507" yMax="697">
      <component glyphName="c.sc" x="0" y="0" flags="0x204"/>
      <component glyphName="caron" x="111" y="20" flags="0x4"/>
    </TTGlyph>
    <TTGlyph name="Ccaron.swa" xMin="30" yMin="-274" xMax="709" yMax="943">
      <component glyphName="C.swa" x="0" y="0" flags="0x204"/>
      <component glyphName="caron.cap" x="271" y="15" flags="0x4"/>
    </TTGlyph>
    <TTGlyph name="Ccedilla" xMin="55" yMin="-225" xMax="674" yMax="705">
      <contour>
        <pt x="674" y="695" on="1"/>
        <pt x="669" y="653" on="0"/>
        <pt x="661" y="569" on="0"/>
        <pt x="657" y="528" on="1"/>
        <pt x="657" y="519" on="0"/>
        <pt x="643" y="519" on="1"/>
        <pt x="629" y="519" on="0"/>
        <pt x="629" y="528" on="1"/>
        <pt x="629" y="602" on="0"/>
        <pt x="558" y="665" on="0"/>
        <pt x="503" y="665" on="1"/>
        <pt x="436" y="665" on="0"/>
        <pt x="312" y="596" on="0"/>
        <pt x="216" y="472" on="0"/>
        <pt x="158" y="299" on="0"/>
        <pt x="158" y="195" on="1"/>
        <pt x="158" y="156" on="0"/>
        <pt x="184" y="89" on="0"/>
        <pt x="234" y="39" on="0"/>
        <pt x="306" y="10" on="0"/>
        <pt x="353" y="10" on="1"/>
        <pt x="398" y="10" on="0"/>
        <pt x="467" y="34" on="0"/>
        <pt x="522" y="79" on="0"/>
        <pt x="564" y="145" on="0"/>
        <pt x="582" y="187" on="1"/>
        <pt x="585" y="196" on="0"/>
        <pt x="598" y="196" on="1"/>
        <pt x="605" y="196" on="0"/>
        <pt x="611" y="190" on="0"/>
        <pt x="610" y="187" on="1"/>
        <pt x="605" y="169" on="0"/>
        <pt x="593" y="124" on="0"/>
        <pt x="581" y="76" on="0"/>
        <pt x="569" y="29" on="0"/>
        <pt x="564" y="9" on="1"/>
        <pt x="517" y="-4" on="0"/>
        <pt x="398" y="-21" on="0"/>
        <pt x="345" y="-22" on="1"/>
        <pt x="336" y="-35" on="1"/>
        <pt x="335" y="-36" on="0"/>
        <pt x="334" y="-38" on="1"/>
        <pt x="333" y="-40" on="0"/>
        <pt x="333" y="-44" on="1"/>
        <pt x="333" y="-52" on="0"/>
        <pt x="343" y="-59" on="1"/>
        <pt x="365" y="-73" on="0"/>
        <pt x="395" y="-110" on="0"/>
        <pt x="395" y="-133" on="1"/>
        <pt x="395" y="-169" on="0"/>
        <pt x="334" y="-225" on="0"/>
        <pt x="283" y="-225" on="1"/>
        <pt x="254" y="-225" on="0"/>
        <pt x="223" y="-204" on="0"/>
        <pt x="223" y="-188" on="1"/>
        <pt x="223" y="-180" on="0"/>
        <pt x="236" y="-161" on="0"/>
        <pt x="249" y="-161" on="1"/>
        <pt x="259" y="-161" on="0"/>
        <pt x="275" y="-170" on="0"/>
        <pt x="289" y="-182" on="0"/>
        <pt x="304" y="-191" on="0"/>
        <pt x="313" y="-191" on="1"/>
        <pt x="324" y="-191" on="0"/>
        <pt x="340" y="-176" on="0"/>
        <pt x="340" y="-159" on="1"/>
        <pt x="340" y="-142" on="0"/>
        <pt x="302" y="-108" on="0"/>
        <pt x="280" y="-97" on="1"/>
        <pt x="276" y="-97" on="0"/>
        <pt x="271" y="-87" on="0"/>
        <pt x="271" y="-82" on="1"/>
        <pt x="273" y="-73" on="1"/>
        <pt x="306" y="-21" on="1"/>
        <pt x="250" y="-16" on="0"/>
        <pt x="157" y="27" on="0"/>
        <pt x="91" y="96" on="0"/>
        <pt x="55" y="190" on="0"/>
        <pt x="55" y="247" on="1"/>
        <pt x="55" y="341" on="0"/>
        <pt x="132" y="508" on="0"/>
        <pt x="269" y="633" on="0"/>
        <pt x="455" y="705" on="0"/>
        <pt x="565" y="705" on="1"/>
        <pt x="595" y="705" on="0"/>
        <pt x="651" y="700" on="0"/>
      </contour>
    </TTGlyph>
    <TTGlyph name="Ccedilla.sc" xMin="36" yMin="-225" xMax="481" yMax="473">
      <component glyphName="ccedilla.sc" x="0" y="0" flags="0x204"/>
    </TTGlyph>
    <TTGlyph name="Ccedilla.swa" xMin="30" yMin="-477" xMax="708" yMax="705">
      <contour>
        <pt x="708" y="549" on="1"/>
        <pt x="708" y="507" on="0"/>
        <pt x="667" y="445" on="0"/>
        <pt x="630" y="445" on="1"/>
        <pt x="608" y="445" on="0"/>
        <pt x="584" y="473" on="0"/>
        <pt x="584" y="497" on="1"/>
        <pt x="584" y="515" on="0"/>
        <pt x="600" y="539" on="0"/>
        <pt x="619" y="559" on="0"/>
        <pt x="635" y="578" on="0"/>
        <pt x="635" y="592" on="1"/>
        <pt x="635" y="641" on="0"/>
        <pt x="587" y="672" on="0"/>
        <pt x="540" y="672" on="1"/>
        <pt x="488" y="672" on="0"/>
        <pt x="387" y="626" on="0"/>
        <pt x="297" y="542" on="0"/>
        <pt x="220" y="423" on="0"/>
        <pt x="164" y="276" on="0"/>
        <pt x="133" y="104" on="0"/>
        <pt x="133" y="9" on="1"/>
        <pt x="133" y="-34" on="0"/>
        <pt x="157" y="-123" on="0"/>
        <pt x="206" y="-196" on="0"/>
        <pt x="281" y="-242" on="0"/>
        <pt x="332" y="-242" on="1"/>
        <pt x="379" y="-242" on="0"/>
        <pt x="456" y="-208" on="0"/>
        <pt x="519" y="-151" on="0"/>
        <pt x="566" y="-78" on="0"/>
        <pt x="601" y="1" on="0"/>
        <pt x="622" y="79" on="0"/>
        <pt x="627" y="112" on="1"/>
        <pt x="627" y="117" on="0"/>
        <pt x="637" y="117" on="1"/>
        <pt x="643" y="117" on="0"/>
        <pt x="656" y="110" on="0"/>
        <pt x="655" y="105" on="1"/>
        <pt x="643" y="22" on="0"/>
        <pt x="584" y="-116" on="0"/>
        <pt x="497" y="-216" on="0"/>
        <pt x="386" y="-273" on="0"/>
        <pt x="324" y="-274" on="1"/>
        <pt x="315" y="-287" on="1"/>
        <pt x="314" y="-288" on="0"/>
        <pt x="313" y="-290" on="1"/>
        <pt x="312" y="-292" on="0"/>
        <pt x="312" y="-296" on="1"/>
        <pt x="312" y="-304" on="0"/>
        <pt x="322" y="-311" on="1"/>
        <pt x="344" y="-325" on="0"/>
        <pt x="374" y="-362" on="0"/>
        <pt x="374" y="-385" on="1"/>
        <pt x="374" y="-421" on="0"/>
        <pt x="313" y="-477" on="0"/>
        <pt x="262" y="-477" on="1"/>
        <pt x="233" y="-477" on="0"/>
        <pt x="202" y="-456" on="0"/>
        <pt x="202" y="-440" on="1"/>
        <pt x="202" y="-432" on="0"/>
        <pt x="215" y="-413" on="0"/>
        <pt x="228" y="-413" on="1"/>
        <pt x="238" y="-413" on="0"/>
        <pt x="254" y="-422" on="0"/>
        <pt x="268" y="-434" on="0"/>
        <pt x="283" y="-443" on="0"/>
        <pt x="292" y="-443" on="1"/>
        <pt x="303" y="-443" on="0"/>
        <pt x="319" y="-428" on="0"/>
        <pt x="319" y="-411" on="1"/>
        <pt x="319" y="-394" on="0"/>
        <pt x="281" y="-360" on="0"/>
        <pt x="259" y="-349" on="1"/>
        <pt x="255" y="-349" on="0"/>
        <pt x="250" y="-339" on="0"/>
        <pt x="250" y="-334" on="1"/>
        <pt x="252" y="-325" on="1"/>
        <pt x="285" y="-272" on="1"/>
        <pt x="225" y="-265" on="0"/>
        <pt x="131" y="-206" on="0"/>
        <pt x="65" y="-115" on="0"/>
        <pt x="30" y="-1" on="0"/>
        <pt x="30" y="60" on="1"/>
        <pt x="30" y="163" on="0"/>
        <pt x="82" y="339" on="0"/>
        <pt x="168" y="482" on="0"/>
        <pt x="277" y="592" on="0"/>
        <pt x="390" y="667" on="0"/>
        <pt x="498" y="705" on="0"/>
        <pt x="540" y="705" on="1"/>
        <pt x="576" y="705" on="0"/>
        <pt x="637" y="682" on="0"/>
        <pt x="682" y="640" on="0"/>
        <pt x="708" y="583" on="0"/>
      </contour>
    </TTGlyph>
    <TTGlyph name="Cdotaccent" xMin="55" yMin="-22" xMax="674" yMax="883">
      <component glyphName="C" x="0" y="0" flags="0x204"/>
      <component glyphName="dotaccent.cap" x="211" y="15" flags="0x4"/>
    </TTGlyph>
    <TTGlyph name="Cdotaccent.sc" xMin="36" yMin="-19" xMax="481" yMax="650">
      <component glyphName="c.sc" x="0" y="0" flags="0x204"/>
      <component glyphName="dotaccent" x="142" y="20" flags="0x4"/>
    </TTGlyph>
    <TTGlyph name="Cdotaccent.swa" xMin="30" yMin="-274" xMax="708" yMax="883">
      <component glyphName="C.swa" x="0" y="0" flags="0x204"/>
      <component glyphName="dotaccent.cap" x="272" y="15" flags="0x4"/>
    </TTGlyph>
    <TTGlyph name="D" xMin="-34" yMin="-6" xMax="765" yMax="691">
      <contour>
        <pt x="765" y="414" on="1"/>
        <pt x="765" y="337" on="0"/>
        <pt x="696" y="187" on="0"/>
        <pt x="574" y="69" on="0"/>
        <pt x="409" y="-4" on="0"/>
        <pt x="313" y="-4" on="1"/>
        <pt x="296" y="-4" on="0"/>
        <pt x="252" y="-3" on="0"/>
        <pt x="206" y="-1" on="0"/>
        <pt x="161" y="0" on="0"/>
        <pt x="143" y="0" on="1"/>
        <pt x="126" y="0" on="0"/>
        <pt x="80" y="-1" on="0"/>
        <pt x="33" y="-3" on="0"/>
        <pt x="-12" y="-5" on="0"/>
        <pt x="-29" y="-6" on="1"/>
        <pt x="-34" y="-6" on="0"/>
        <pt x="-34" y="3" on="1"/>
        <pt x="-34" y="10" on="0"/>
        <pt x="-27" y="21" on="0"/>
        <pt x="-22" y="22" on="1"/>
        <pt x="15" y="26" on="0"/>
        <pt x="57" y="39" on="0"/>
        <pt x="79" y="59" on="0"/>
        <pt x="89" y="87" on="0"/>
        <pt x="94" y="106" on="1"/>
        <pt x="205" y="577" on="1"/>
        <pt x="211" y="596" on="0"/>
        <pt x="211" y="611" on="1"/>
        <pt x="211" y="632" on="0"/>
        <pt x="174" y="655" on="0"/>
        <pt x="122" y="662" on="1"/>
        <pt x="117" y="662" on="0"/>
        <pt x="117" y="670" on="1"/>
        <pt x="117" y="690" on="0"/>
        <pt x="129" y="690" on="1"/>
        <pt x="161" y="688" on="0"/>
        <pt x="248" y="688" on="0"/>
        <pt x="283" y="688" on="1"/>
        <pt x="300" y="688" on="0"/>
        <pt x="343" y="689" on="0"/>
        <pt x="388" y="690" on="0"/>
        <pt x="430" y="691" on="0"/>
        <pt x="447" y="691" on="1"/>
        <pt x="513" y="691" on="0"/>
        <pt x="629" y="656" on="0"/>
        <pt x="715" y="587" on="0"/>
        <pt x="765" y="483" on="0"/>
      </contour>
      <contour>
        <pt x="657" y="426" on="1"/>
        <pt x="657" y="491" on="0"/>
        <pt x="626" y="581" on="0"/>
        <pt x="569" y="635" on="0"/>
        <pt x="488" y="659" on="0"/>
        <pt x="437" y="658" on="1"/>
        <pt x="384" y="656" on="1"/>
        <pt x="373" y="656" on="0"/>
        <pt x="351" y="651" on="0"/>
        <pt x="332" y="639" on="0"/>
        <pt x="316" y="616" on="0"/>
        <pt x="312" y="598" on="1"/>
        <pt x="191" y="89" on="1"/>
        <pt x="186" y="71" on="0"/>
        <pt x="192" y="48" on="0"/>
        <pt x="205" y="36" on="0"/>
        <pt x="225" y="32" on="0"/>
        <pt x="236" y="32" on="1"/>
        <pt x="313" y="29" on="1"/>
        <pt x="370" y="29" on="0"/>
        <pt x="466" y="68" on="0"/>
        <pt x="543" y="132" on="0"/>
        <pt x="600" y="215" on="0"/>
        <pt x="638" y="303" on="0"/>
        <pt x="657" y="390" on="0"/>
      </contour>
    </TTGlyph>
    <TTGlyph name="D.sc" xMin="1" yMin="-6" xMax="548" yMax="457">
      <component glyphName="d.sc" x="0" y="0" flags="0x204"/>
    </TTGlyph>
    <TTGlyph name="D.swa" xMin="48" yMin="-6" xMax="972" yMax="705">
      <contour>
        <pt x="972" y="414" on="1"/>
        <pt x="972" y="337" on="0"/>
        <pt x="903" y="187" on="0"/>
        <pt x="782" y="69" on="0"/>
        <pt x="617" y="-3" on="0"/>
        <pt x="521" y="-3" on="1"/>
        <pt x="504" y="-3" on="0"/>
        <pt x="460" y="-2" on="0"/>
        <pt x="413" y="-1" on="0"/>
        <pt x="368" y="0" on="0"/>
        <pt x="350" y="0" on="1"/>
        <pt x="333" y="0" on="0"/>
        <pt x="287" y="-1" on="0"/>
        <pt x="240" y="-3" on="0"/>
        <pt x="195" y="-5" on="0"/>
        <pt x="178" y="-6" on="1"/>
        <pt x="173" y="-6" on="0"/>
        <pt x="173" y="4" on="1"/>
        <pt x="173" y="10" on="0"/>
        <pt x="180" y="22" on="0"/>
        <pt x="185" y="22" on="1"/>
        <pt x="222" y="26" on="0"/>
        <pt x="264" y="40" on="0"/>
        <pt x="287" y="59" on="0"/>
        <pt x="296" y="87" on="0"/>
        <pt x="301" y="107" on="1"/>
        <pt x="420" y="607" on="1"/>
        <pt x="428" y="639" on="0"/>
        <pt x="407" y="656" on="0"/>
        <pt x="390" y="656" on="1"/>
        <pt x="366" y="656" on="0"/>
        <pt x="301" y="643" on="0"/>
        <pt x="232" y="618" on="0"/>
        <pt x="165" y="580" on="0"/>
        <pt x="112" y="529" on="0"/>
        <pt x="80" y="466" on="0"/>
        <pt x="80" y="428" on="1"/>
        <pt x="80" y="380" on="0"/>
        <pt x="122" y="332" on="0"/>
        <pt x="151" y="332" on="1"/>
        <pt x="167" y="332" on="0"/>
        <pt x="182" y="351" on="0"/>
        <pt x="195" y="374" on="0"/>
        <pt x="212" y="393" on="0"/>
        <pt x="230" y="393" on="1"/>
        <pt x="252" y="393" on="0"/>
        <pt x="282" y="366" on="0"/>
        <pt x="282" y="337" on="1"/>
        <pt x="282" y="308" on="0"/>
        <pt x="233" y="265" on="0"/>
        <pt x="192" y="265" on="1"/>
        <pt x="156" y="265" on="0"/>
        <pt x="102" y="293" on="0"/>
        <pt x="66" y="338" on="0"/>
        <pt x="48" y="397" on="0"/>
        <pt x="48" y="428" on="1"/>
        <pt x="48" y="490" on="0"/>
        <pt x="124" y="592" on="0"/>
        <pt x="258" y="665" on="0"/>
        <pt x="437" y="705" on="0"/>
        <pt x="541" y="705" on="1"/>
        <pt x="628" y="705" on="0"/>
        <pt x="784" y="678" on="0"/>
        <pt x="902" y="612" on="0"/>
        <pt x="972" y="500" on="0"/>
      </contour>
      <contour>
        <pt x="865" y="426" on="1"/>
        <pt x="865" y="497" on="0"/>
        <pt x="824" y="590" on="0"/>
        <pt x="750" y="646" on="0"/>
        <pt x="650" y="668" on="0"/>
        <pt x="592" y="668" on="1"/>
        <pt x="571" y="668" on="0"/>
        <pt x="531" y="648" on="0"/>
        <pt x="522" y="612" on="1"/>
        <pt x="398" y="90" on="1"/>
        <pt x="393" y="72" on="0"/>
        <pt x="399" y="49" on="0"/>
        <pt x="412" y="37" on="0"/>
        <pt x="432" y="32" on="0"/>
        <pt x="443" y="32" on="1"/>
        <pt x="521" y="30" on="1"/>
        <pt x="578" y="30" on="0"/>
        <pt x="674" y="69" on="0"/>
        <pt x="750" y="132" on="0"/>
        <pt x="808" y="215" on="0"/>
        <pt x="846" y="303" on="0"/>
        <pt x="865" y="390" on="0"/>
      </contour>
    </TTGlyph>
    <TTGlyph name="Dcaron" xMin="-34" yMin="-6" xMax="765" yMax="928">
      <component glyphName="D" x="0" y="0" flags="0x204"/>
      <component glyphName="caron.cap" x="187" y="0" flags="0x4"/>
    </TTGlyph>
    <TTGlyph name="Dcaron.sc" xMin="1" yMin="-6" xMax="548" yMax="692">
      <component glyphName="d.sc" x="0" y="0" flags="0x204"/>
      <component glyphName="caron" x="121" y="15" flags="0x4"/>
    </TTGlyph>
    <TTGlyph name="Dcaron.swa" xMin="48" yMin="-6" xMax="972" yMax="928">
      <component glyphName="D.swa" x="0" y="0" flags="0x204"/>
      <component glyphName="caron.cap" x="387" y="0" flags="0x4"/>
    </TTGlyph>
    <TTGlyph name="Dcroat" xMin="-34" yMin="-6" xMax="765" yMax="692">
      <contour>
        <pt x="765" y="414" on="1"/>
        <pt x="765" y="337" on="0"/>
        <pt x="696" y="187" on="0"/>
        <pt x="574" y="69" on="0"/>
        <pt x="409" y="-4" on="0"/>
        <pt x="313" y="-4" on="1"/>
        <pt x="296" y="-4" on="0"/>
        <pt x="252" y="-3" on="0"/>
        <pt x="206" y="-1" on="0"/>
        <pt x="161" y="0" on="0"/>
        <pt x="143" y="0" on="1"/>
        <pt x="126" y="0" on="0"/>
        <pt x="80" y="-1" on="0"/>
        <pt x="33" y="-3" on="0"/>
        <pt x="-12" y="-5" on="0"/>
        <pt x="-29" y="-6" on="1"/>
        <pt x="-34" y="-6" on="0"/>
        <pt x="-34" y="4" on="1"/>
        <pt x="-34" y="10" on="0"/>
        <pt x="-27" y="22" on="0"/>
        <pt x="-22" y="22" on="1"/>
        <pt x="15" y="26" on="0"/>
        <pt x="57" y="40" on="0"/>
        <pt x="79" y="59" on="0"/>
        <pt x="89" y="87" on="0"/>
        <pt x="94" y="107" on="1"/>
        <pt x="146" y="327" on="1"/>
        <pt x="26" y="323" on="1"/>
        <pt x="20" y="323" on="0"/>
        <pt x="13" y="338" on="0"/>
        <pt x="13" y="350" on="1"/>
        <pt x="13" y="361" on="0"/>
        <pt x="20" y="378" on="0"/>
        <pt x="26" y="378" on="1"/>
        <pt x="158" y="378" on="1"/>
        <pt x="205" y="578" on="1"/>
        <pt x="211" y="597" on="0"/>
        <pt x="211" y="612" on="1"/>
        <pt x="211" y="633" on="0"/>
        <pt x="175" y="656" on="0"/>
        <pt x="122" y="662" on="1"/>
        <pt x="117" y="663" on="0"/>
        <pt x="117" y="671" on="1"/>
        <pt x="117" y="691" on="0"/>
        <pt x="129" y="690" on="1"/>
        <pt x="161" y="688" on="0"/>
        <pt x="248" y="688" on="0"/>
        <pt x="283" y="688" on="1"/>
        <pt x="300" y="688" on="0"/>
        <pt x="343" y="689" on="0"/>
        <pt x="388" y="691" on="0"/>
        <pt x="430" y="692" on="0"/>
        <pt x="447" y="692" on="1"/>
        <pt x="513" y="692" on="0"/>
        <pt x="629" y="657" on="0"/>
        <pt x="715" y="588" on="0"/>
        <pt x="765" y="483" on="0"/>
      </contour>
      <contour>
        <pt x="657" y="426" on="1"/>
        <pt x="657" y="492" on="0"/>
        <pt x="626" y="581" on="0"/>
        <pt x="569" y="636" on="0"/>
        <pt x="488" y="659" on="0"/>
        <pt x="437" y="659" on="1"/>
        <pt x="384" y="656" on="1"/>
        <pt x="363" y="656" on="0"/>
        <pt x="320" y="635" on="0"/>
        <pt x="312" y="599" on="1"/>
        <pt x="259" y="378" on="1"/>
        <pt x="375" y="378" on="1"/>
        <pt x="380" y="378" on="0"/>
        <pt x="387" y="361" on="0"/>
        <pt x="387" y="350" on="1"/>
        <pt x="387" y="338" on="0"/>
        <pt x="381" y="323" on="0"/>
        <pt x="375" y="323" on="1"/>
        <pt x="247" y="327" on="1"/>
        <pt x="191" y="90" on="1"/>
        <pt x="186" y="72" on="0"/>
        <pt x="192" y="49" on="0"/>
        <pt x="205" y="37" on="0"/>
        <pt x="225" y="32" on="0"/>
        <pt x="236" y="32" on="1"/>
        <pt x="313" y="30" on="1"/>
        <pt x="370" y="30" on="0"/>
        <pt x="466" y="69" on="0"/>
        <pt x="543" y="132" on="0"/>
        <pt x="600" y="215" on="0"/>
        <pt x="638" y="303" on="0"/>
        <pt x="657" y="390" on="0"/>
      </contour>
    </TTGlyph>
    <TTGlyph name="Dcroat.sc" xMin="1" yMin="-6" xMax="548" yMax="457">
      <component glyphName="dcroat.sc" x="0" y="0" flags="0x204"/>
    </TTGlyph>
    <TTGlyph name="Dcroat.swa" xMin="73" yMin="-6" xMax="1057" yMax="705">
      <contour>
        <pt x="1057" y="414" on="1"/>
        <pt x="1057" y="337" on="0"/>
        <pt x="988" y="187" on="0"/>
        <pt x="867" y="69" on="0"/>
        <pt x="702" y="-4" on="0"/>
        <pt x="606" y="-4" on="1"/>
        <pt x="589" y="-4" on="0"/>
        <pt x="545" y="-3" on="0"/>
        <pt x="498" y="-1" on="0"/>
        <pt x="453" y="0" on="0"/>
        <pt x="435" y="0" on="1"/>
        <pt x="418" y="0" on="0"/>
        <pt x="372" y="-1" on="0"/>
        <pt x="325" y="-3" on="0"/>
        <pt x="280" y="-5" on="0"/>
        <pt x="263" y="-6" on="1"/>
        <pt x="258" y="-6" on="0"/>
        <pt x="258" y="4" on="1"/>
        <pt x="258" y="10" on="0"/>
        <pt x="265" y="22" on="0"/>
        <pt x="270" y="22" on="1"/>
        <pt x="307" y="26" on="0"/>
        <pt x="350" y="40" on="0"/>
        <pt x="372" y="59" on="0"/>
        <pt x="381" y="87" on="0"/>
        <pt x="386" y="107" on="1"/>
        <pt x="438" y="327" on="1"/>
        <pt x="334" y="323" on="1"/>
        <pt x="328" y="323" on="0"/>
        <pt x="322" y="338" on="0"/>
        <pt x="322" y="350" on="1"/>
        <pt x="322" y="361" on="0"/>
        <pt x="328" y="377" on="0"/>
        <pt x="334" y="377" on="1"/>
        <pt x="450" y="377" on="1"/>
        <pt x="505" y="608" on="1"/>
        <pt x="513" y="640" on="0"/>
        <pt x="492" y="657" on="0"/>
        <pt x="475" y="657" on="1"/>
        <pt x="443" y="657" on="0"/>
        <pt x="364" y="634" on="0"/>
        <pt x="282" y="592" on="0"/>
        <pt x="203" y="535" on="0"/>
        <pt x="142" y="465" on="0"/>
        <pt x="105" y="386" on="0"/>
        <pt x="105" y="344" on="1"/>
        <pt x="105" y="295" on="0"/>
        <pt x="139" y="249" on="0"/>
        <pt x="168" y="249" on="1"/>
        <pt x="184" y="249" on="0"/>
        <pt x="199" y="268" on="0"/>
        <pt x="212" y="292" on="0"/>
        <pt x="229" y="311" on="0"/>
        <pt x="247" y="311" on="1"/>
        <pt x="269" y="311" on="0"/>
        <pt x="299" y="284" on="0"/>
        <pt x="299" y="255" on="1"/>
        <pt x="299" y="226" on="0"/>
        <pt x="250" y="183" on="0"/>
        <pt x="209" y="183" on="1"/>
        <pt x="173" y="183" on="0"/>
        <pt x="122" y="210" on="0"/>
        <pt x="89" y="255" on="0"/>
        <pt x="73" y="313" on="0"/>
        <pt x="73" y="344" on="1"/>
        <pt x="73" y="413" on="0"/>
        <pt x="160" y="544" on="0"/>
        <pt x="310" y="644" on="0"/>
        <pt x="512" y="705" on="0"/>
        <pt x="626" y="705" on="1"/>
        <pt x="713" y="705" on="0"/>
        <pt x="869" y="678" on="0"/>
        <pt x="987" y="612" on="0"/>
        <pt x="1057" y="500" on="0"/>
      </contour>
      <contour>
        <pt x="950" y="426" on="1"/>
        <pt x="950" y="497" on="0"/>
        <pt x="909" y="591" on="0"/>
        <pt x="835" y="646" on="0"/>
        <pt x="735" y="669" on="0"/>
        <pt x="677" y="669" on="1"/>
        <pt x="656" y="669" on="0"/>
        <pt x="616" y="649" on="0"/>
        <pt x="607" y="612" on="1"/>
        <pt x="552" y="377" on="1"/>
        <pt x="667" y="377" on="1"/>
        <pt x="673" y="377" on="0"/>
        <pt x="680" y="361" on="0"/>
        <pt x="680" y="350" on="1"/>
        <pt x="680" y="338" on="0"/>
        <pt x="673" y="323" on="0"/>
        <pt x="667" y="323" on="1"/>
        <pt x="539" y="327" on="1"/>
        <pt x="483" y="90" on="1"/>
        <pt x="478" y="72" on="0"/>
        <pt x="484" y="49" on="0"/>
        <pt x="497" y="37" on="0"/>
        <pt x="517" y="32" on="0"/>
        <pt x="528" y="32" on="1"/>
        <pt x="606" y="30" on="1"/>
        <pt x="663" y="30" on="0"/>
        <pt x="759" y="69" on="0"/>
        <pt x="835" y="132" on="0"/>
        <pt x="893" y="215" on="0"/>
        <pt x="931" y="303" on="0"/>
        <pt x="950" y="390" on="0"/>
      </contour>
    </TTGlyph>
    <TTGlyph name="E" xMin="-34" yMin="-6" xMax="614" yMax="690">
      <contour>
        <pt x="614" y="690" on="1"/>
        <pt x="612" y="665" on="0"/>
        <pt x="610" y="623" on="0"/>
        <pt x="610" y="601" on="1"/>
        <pt x="610" y="587" on="0"/>
        <pt x="611" y="541" on="0"/>
        <pt x="611" y="527" on="1"/>
        <pt x="611" y="519" on="0"/>
        <pt x="597" y="519" on="1"/>
        <pt x="585" y="519" on="0"/>
        <pt x="583" y="527" on="1"/>
        <pt x="577" y="596" on="0"/>
        <pt x="518" y="652" on="0"/>
        <pt x="452" y="652" on="1"/>
        <pt x="384" y="652" on="1"/>
        <pt x="374" y="652" on="0"/>
        <pt x="352" y="647" on="0"/>
        <pt x="332" y="634" on="0"/>
        <pt x="315" y="610" on="0"/>
        <pt x="311" y="592" on="1"/>
        <pt x="258" y="369" on="1"/>
        <pt x="381" y="369" on="1"/>
        <pt x="401" y="369" on="0"/>
        <pt x="433" y="374" on="0"/>
        <pt x="460" y="393" on="0"/>
        <pt x="483" y="432" on="0"/>
        <pt x="495" y="465" on="1"/>
        <pt x="498" y="473" on="0"/>
        <pt x="510" y="473" on="1"/>
        <pt x="526" y="473" on="0"/>
        <pt x="524" y="465" on="1"/>
        <pt x="519" y="446" on="0"/>
        <pt x="512" y="419" on="0"/>
        <pt x="505" y="395" on="0"/>
        <pt x="498" y="369" on="0"/>
        <pt x="494" y="351" on="1"/>
        <pt x="486" y="316" on="0"/>
        <pt x="476" y="258" on="0"/>
        <pt x="467" y="221" on="1"/>
        <pt x="464" y="213" on="0"/>
        <pt x="453" y="213" on="1"/>
        <pt x="437" y="213" on="0"/>
        <pt x="439" y="221" on="1"/>
        <pt x="443" y="258" on="0"/>
        <pt x="440" y="304" on="0"/>
        <pt x="424" y="329" on="0"/>
        <pt x="394" y="337" on="0"/>
        <pt x="373" y="337" on="1"/>
        <pt x="251" y="337" on="1"/>
        <pt x="196" y="106" on="1"/>
        <pt x="194" y="96" on="0"/>
        <pt x="190" y="80" on="0"/>
        <pt x="190" y="72" on="1"/>
        <pt x="190" y="49" on="0"/>
        <pt x="217" y="32" on="0"/>
        <pt x="237" y="32" on="1"/>
        <pt x="359" y="32" on="1"/>
        <pt x="390" y="32" on="0"/>
        <pt x="450" y="53" on="0"/>
        <pt x="500" y="91" on="0"/>
        <pt x="537" y="144" on="0"/>
        <pt x="547" y="176" on="1"/>
        <pt x="547" y="180" on="0"/>
        <pt x="555" y="180" on="1"/>
        <pt x="563" y="180" on="0"/>
        <pt x="576" y="171" on="0"/>
        <pt x="575" y="167" on="1"/>
        <pt x="562" y="127" on="0"/>
        <pt x="539" y="39" on="0"/>
        <pt x="530" y="-6" on="1"/>
        <pt x="507" y="-5" on="0"/>
        <pt x="432" y="-3" on="0"/>
        <pt x="351" y="-1" on="0"/>
        <pt x="275" y="0" on="0"/>
        <pt x="251" y="0" on="1"/>
        <pt x="227" y="0" on="0"/>
        <pt x="151" y="-1" on="0"/>
        <pt x="70" y="-3" on="0"/>
        <pt x="-5" y="-5" on="0"/>
        <pt x="-28" y="-6" on="1"/>
        <pt x="-30" y="-6" on="0"/>
        <pt x="-34" y="-3" on="0"/>
        <pt x="-34" y="3" on="1"/>
        <pt x="-34" y="10" on="0"/>
        <pt x="-27" y="21" on="0"/>
        <pt x="-22" y="22" on="1"/>
        <pt x="15" y="26" on="0"/>
        <pt x="58" y="39" on="0"/>
        <pt x="80" y="59" on="0"/>
        <pt x="89" y="87" on="0"/>
        <pt x="94" y="106" on="1"/>
        <pt x="206" y="577" on="1"/>
        <pt x="208" y="587" on="0"/>
        <pt x="211" y="603" on="0"/>
        <pt x="211" y="611" on="1"/>
        <pt x="211" y="632" on="0"/>
        <pt x="175" y="655" on="0"/>
        <pt x="122" y="662" on="1"/>
        <pt x="117" y="662" on="0"/>
        <pt x="117" y="670" on="1"/>
        <pt x="117" y="677" on="0"/>
        <pt x="124" y="690" on="0"/>
        <pt x="129" y="690" on="1"/>
        <pt x="148" y="689" on="0"/>
        <pt x="214" y="687" on="0"/>
        <pt x="285" y="685" on="0"/>
        <pt x="351" y="684" on="0"/>
        <pt x="372" y="684" on="1"/>
        <pt x="392" y="684" on="0"/>
        <pt x="458" y="685" on="0"/>
        <pt x="529" y="687" on="0"/>
        <pt x="594" y="689" on="0"/>
      </contour>
    </TTGlyph>
    <TTGlyph name="E.sc" xMin="1" yMin="-6" xMax="453" yMax="456">
      <component glyphName="e.sc" x="0" y="0" flags="0x204"/>
    </TTGlyph>
    <TTGlyph name="E.sc_swa" xMin="16" yMin="-19" xMax="359" yMax="473">
      <component glyphName="e.sc_swa" x="0" y="0" flags="0x204"/>
    </TTGlyph>
    <TTGlyph name="E.swa" xMin="57" yMin="-22" xMax="538" yMax="705">
      <contour>
        <pt x="538" y="572" on="1"/>
        <pt x="538" y="540" on="0"/>
        <pt x="505" y="493" on="0"/>
        <pt x="478" y="493" on="1"/>
        <pt x="452" y="493" on="0"/>
        <pt x="427" y="520" on="0"/>
        <pt x="427" y="538" on="1"/>
        <pt x="427" y="553" on="0"/>
        <pt x="439" y="569" on="0"/>
        <pt x="454" y="579" on="0"/>
        <pt x="467" y="591" on="0"/>
        <pt x="467" y="602" on="1"/>
        <pt x="467" y="632" on="0"/>
        <pt x="421" y="673" on="0"/>
        <pt x="382" y="673" on="1"/>
        <pt x="322" y="673" on="0"/>
        <pt x="258" y="585" on="0"/>
        <pt x="258" y="514" on="1"/>
        <pt x="258" y="469" on="0"/>
        <pt x="268" y="440" on="1"/>
        <pt x="291" y="448" on="0"/>
        <pt x="340" y="454" on="0"/>
        <pt x="365" y="454" on="1"/>
        <pt x="379" y="454" on="0"/>
        <pt x="410" y="448" on="0"/>
        <pt x="435" y="434" on="0"/>
        <pt x="452" y="410" on="0"/>
        <pt x="452" y="392" on="1"/>
        <pt x="452" y="374" on="0"/>
        <pt x="435" y="350" on="0"/>
        <pt x="410" y="335" on="0"/>
        <pt x="379" y="329" on="0"/>
        <pt x="365" y="329" on="1"/>
        <pt x="326" y="329" on="0"/>
        <pt x="258" y="353" on="0"/>
        <pt x="232" y="374" on="1"/>
        <pt x="200" y="346" on="0"/>
        <pt x="160" y="261" on="0"/>
        <pt x="160" y="204" on="1"/>
        <pt x="160" y="155" on="0"/>
        <pt x="185" y="82" on="0"/>
        <pt x="226" y="34" on="0"/>
        <pt x="278" y="10" on="0"/>
        <pt x="305" y="10" on="1"/>
        <pt x="344" y="10" on="0"/>
        <pt x="404" y="30" on="0"/>
        <pt x="446" y="64" on="0"/>
        <pt x="467" y="110" on="0"/>
        <pt x="467" y="136" on="1"/>
        <pt x="467" y="181" on="0"/>
        <pt x="422" y="226" on="0"/>
        <pt x="387" y="226" on="1"/>
        <pt x="371" y="226" on="0"/>
        <pt x="361" y="208" on="0"/>
        <pt x="363" y="184" on="0"/>
        <pt x="369" y="159" on="0"/>
        <pt x="369" y="152" on="1"/>
        <pt x="369" y="129" on="0"/>
        <pt x="342" y="100" on="0"/>
        <pt x="327" y="100" on="1"/>
        <pt x="321" y="100" on="0"/>
        <pt x="304" y="104" on="0"/>
        <pt x="289" y="117" on="0"/>
        <pt x="278" y="140" on="0"/>
        <pt x="278" y="160" on="1"/>
        <pt x="278" y="179" on="0"/>
        <pt x="296" y="215" on="0"/>
        <pt x="326" y="242" on="0"/>
        <pt x="366" y="258" on="0"/>
        <pt x="387" y="258" on="1"/>
        <pt x="417" y="258" on="0"/>
        <pt x="463" y="236" on="0"/>
        <pt x="493" y="201" on="0"/>
        <pt x="508" y="158" on="0"/>
        <pt x="508" y="136" on="1"/>
        <pt x="508" y="105" on="0"/>
        <pt x="478" y="48" on="0"/>
        <pt x="424" y="4" on="0"/>
        <pt x="349" y="-22" on="0"/>
        <pt x="304" y="-22" on="1"/>
        <pt x="247" y="-22" on="0"/>
        <pt x="156" y="18" on="0"/>
        <pt x="91" y="80" on="0"/>
        <pt x="57" y="157" on="0"/>
        <pt x="57" y="194" on="1"/>
        <pt x="57" y="264" on="0"/>
        <pt x="136" y="376" on="0"/>
        <pt x="198" y="411" on="1"/>
        <pt x="182" y="434" on="0"/>
        <pt x="165" y="492" on="0"/>
        <pt x="165" y="525" on="1"/>
        <pt x="165" y="555" on="0"/>
        <pt x="195" y="619" on="0"/>
        <pt x="251" y="672" on="0"/>
        <pt x="332" y="705" on="0"/>
        <pt x="383" y="705" on="1"/>
        <pt x="416" y="705" on="0"/>
        <pt x="473" y="683" on="0"/>
        <pt x="515" y="646" on="0"/>
        <pt x="538" y="598" on="0"/>
      </contour>
      <contour>
        <pt x="412" y="392" on="1"/>
        <pt x="412" y="405" on="0"/>
        <pt x="385" y="422" on="0"/>
        <pt x="360" y="422" on="1"/>
        <pt x="319" y="422" on="0"/>
        <pt x="283" y="406" on="1"/>
        <pt x="298" y="383" on="0"/>
        <pt x="339" y="361" on="0"/>
        <pt x="360" y="361" on="1"/>
        <pt x="385" y="361" on="0"/>
        <pt x="412" y="379" on="0"/>
      </contour>
    </TTGlyph>
    <TTGlyph name="Eacute" xMin="-34" yMin="-6" xMax="614" yMax="924">
      <component glyphName="E" x="0" y="0" flags="0x204"/>
      <component glyphName="acute.cap" x="251" y="0" flags="0x4"/>
    </TTGlyph>
    <TTGlyph name="Eacute.sc" xMin="1" yMin="-6" xMax="481" yMax="692">
      <component glyphName="e.sc" x="0" y="0" flags="0x204"/>
      <component glyphName="acute" x="153" y="15" flags="0x4"/>
    </TTGlyph>
    <TTGlyph name="Eacute.sc_swa" xMin="16" yMin="-19" xMax="432" yMax="697">
      <component glyphName="e.sc_swa" x="0" y="0" flags="0x204"/>
      <component glyphName="acute" x="104" y="20" flags="0x4"/>
    </TTGlyph>
    <TTGlyph name="Eacute.swa" xMin="57" yMin="-22" xMax="565" yMax="939">
      <component glyphName="E.swa" x="0" y="0" flags="0x204"/>
      <component glyphName="acute.cap" x="247" y="15" flags="0x4"/>
    </TTGlyph>
    <TTGlyph name="Ebreve" xMin="-34" yMin="-6" xMax="614" yMax="895">
      <component glyphName="E" x="0" y="0" flags="0x204"/>
      <component glyphName="breve.cap" x="101" y="0" flags="0x4"/>
    </TTGlyph>
    <TTGlyph name="Ebreve.sc" xMin="1" yMin="-6" xMax="468" yMax="681">
      <component glyphName="e.sc" x="0" y="0" flags="0x204"/>
      <component glyphName="breve" x="80" y="15" flags="0x4"/>
    </TTGlyph>
    <TTGlyph name="Ebreve.sc_swa" xMin="16" yMin="-19" xMax="419" yMax="686">
      <component glyphName="e.sc_swa" x="0" y="0" flags="0x204"/>
      <component glyphName="breve" x="31" y="20" flags="0x4"/>
    </TTGlyph>
    <TTGlyph name="Ebreve.swa" xMin="57" yMin="-22" xMax="540" yMax="910">
      <component glyphName="E.swa" x="0" y="0" flags="0x204"/>
      <component glyphName="breve.cap" x="96" y="15" flags="0x4"/>
    </TTGlyph>
    <TTGlyph name="Ecaron" xMin="-34" yMin="-6" xMax="614" yMax="928">
      <component glyphName="E" x="0" y="0" flags="0x204"/>
      <component glyphName="caron.cap" x="121" y="0" flags="0x4"/>
    </TTGlyph>
    <TTGlyph name="Ecaron.sc" xMin="1" yMin="-6" xMax="460" yMax="692">
      <component glyphName="e.sc" x="0" y="0" flags="0x204"/>
      <component glyphName="caron" x="64" y="15" flags="0x4"/>
    </TTGlyph>
    <TTGlyph name="Ecaron.sc_swa" xMin="16" yMin="-19" xMax="411" yMax="697">
      <component glyphName="e.sc_swa" x="0" y="0" flags="0x204"/>
      <component glyphName="caron" x="15" y="20" flags="0x4"/>
    </TTGlyph>
    <TTGlyph name="Ecaron.swa" xMin="57" yMin="-22" xMax="555" yMax="943">
      <component glyphName="E.swa" x="0" y="0" flags="0x204"/>
      <component glyphName="caron.cap" x="117" y="15" flags="0x4"/>
    </TTGlyph>
    <TTGlyph name="Ecircumflex" xMin="-34" yMin="-6" xMax="614" yMax="929">
      <component glyphName="E" x="0" y="0" flags="0x204"/>
      <component glyphName="circumflex.cap" x="148" y="0" flags="0x4"/>
    </TTGlyph>
    <TTGlyph name="Ecircumflex.sc" xMin="1" yMin="-6" xMax="453" yMax="698">
      <component glyphName="e.sc" x="0" y="0" flags="0x204"/>
      <component glyphName="circumflex" x="94" y="15" flags="0x4"/>
    </TTGlyph>
    <TTGlyph name="Ecircumflex.sc_swa" xMin="16" yMin="-19" xMax="378" yMax="703">
      <component glyphName="e.sc_swa" x="0" y="0" flags="0x204"/>
      <component glyphName="circumflex" x="45" y="20" flags="0x4"/>
    </TTGlyph>
    <TTGlyph name="Ecircumflex.swa" xMin="57" yMin="-22" xMax="549" yMax="944">
      <component glyphName="E.swa" x="0" y="0" flags="0x204"/>
      <component glyphName="circumflex.cap" x="144" y="15" flags="0x4"/>
    </TTGlyph>
    <TTGlyph name="Edieresis" xMin="-34" yMin="-6" xMax="614" yMax="868">
      <component glyphName="E" x="0" y="0" flags="0x204"/>
      <component glyphName="dieresis.cap" x="133" y="0" flags="0x4"/>
    </TTGlyph>
    <TTGlyph name="Edieresis.sc" xMin="1" yMin="-6" xMax="461" yMax="645">
      <component glyphName="e.sc" x="0" y="0" flags="0x204"/>
      <component glyphName="dieresis" x="83" y="15" flags="0x4"/>
    </TTGlyph>
    <TTGlyph name="Edieresis.sc_swa" xMin="16" yMin="-19" xMax="411" yMax="650">
      <component glyphName="e.sc_swa" x="0" y="0" flags="0x204"/>
      <component glyphName="dieresis" x="33" y="20" flags="0x4"/>
    </TTGlyph>
    <TTGlyph name="Edieresis.swa" xMin="57" yMin="-22" xMax="558" yMax="883">
      <component glyphName="E.swa" x="0" y="0" flags="0x204"/>
      <component glyphName="dieresis.cap" x="128" y="15" flags="0x4"/>
    </TTGlyph>
    <TTGlyph name="Edotaccent" xMin="-34" yMin="-6" xMax="614" yMax="868">
      <component glyphName="E" x="0" y="0" flags="0x204"/>
      <component glyphName="dotaccent.cap" x="122" y="0" flags="0x4"/>
    </TTGlyph>
    <TTGlyph name="Edotaccent.sc" xMin="1" yMin="-6" xMax="453" yMax="645">
      <component glyphName="e.sc" x="0" y="0" flags="0x204"/>
      <component glyphName="dotaccent" x="96" y="15" flags="0x4"/>
    </TTGlyph>
    <TTGlyph name="Edotaccent.sc_swa" xMin="16" yMin="-19" xMax="359" yMax="650">
      <component glyphName="e.sc_swa" x="0" y="0" flags="0x204"/>
      <component glyphName="dotaccent" x="46" y="20" flags="0x4"/>
    </TTGlyph>
    <TTGlyph name="Edotaccent.swa" xMin="57" yMin="-22" xMax="538" yMax="883">
      <component glyphName="E.swa" x="0" y="0" flags="0x204"/>
      <component glyphName="dotaccent.cap" x="117" y="15" flags="0x4"/>
    </TTGlyph>
    <TTGlyph name="Egrave" xMin="-34" yMin="-6" xMax="614" yMax="924">
      <component glyphName="E" x="0" y="0" flags="0x204"/>
      <component glyphName="grave.cap" x="106" y="0" flags="0x4"/>
    </TTGlyph>
    <TTGlyph name="Egrave.sc" xMin="1" yMin="-6" xMax="453" yMax="687">
      <component glyphName="e.sc" x="0" y="0" flags="0x204"/>
      <component glyphName="grave" x="19" y="15" flags="0x4"/>
    </TTGlyph>
    <TTGlyph name="Egrave.sc_swa" xMin="16" yMin="-19" xMax="359" yMax="692">
      <component glyphName="e.sc_swa" x="0" y="0" flags="0x204"/>
      <component glyphName="grave" x="-29" y="20" flags="0x4"/>
    </TTGlyph>
    <TTGlyph name="Egrave.swa" xMin="57" yMin="-22" xMax="538" yMax="939">
      <component glyphName="E.swa" x="0" y="0" flags="0x204"/>
      <component glyphName="grave.cap" x="102" y="15" flags="0x4"/>
    </TTGlyph>
    <TTGlyph name="Emacron" xMin="-34" yMin="-6" xMax="614" yMax="844">
      <component glyphName="E" x="0" y="0" flags="0x204"/>
      <component glyphName="macron.cap" x="126" y="0" flags="0x4"/>
    </TTGlyph>
    <TTGlyph name="Emacron.sc" xMin="1" yMin="-6" xMax="458" yMax="613">
      <component glyphName="e.sc" x="0" y="0" flags="0x204"/>
      <component glyphName="macron" x="95" y="15" flags="0x4"/>
    </TTGlyph>
    <TTGlyph name="Emacron.sc_swa" xMin="16" yMin="-19" xMax="409" yMax="618">
      <component glyphName="e.sc_swa" x="0" y="0" flags="0x204"/>
      <component glyphName="macron" x="46" y="20" flags="0x4"/>
    </TTGlyph>
    <TTGlyph name="Emacron.swa" xMin="57" yMin="-22" xMax="574" yMax="859">
      <component glyphName="E.swa" x="0" y="0" flags="0x204"/>
      <component glyphName="macron.cap" x="122" y="15" flags="0x4"/>
    </TTGlyph>
    <TTGlyph name="Eogonek" xMin="-34" yMin="-225" xMax="614" yMax="690">
      <contour>
        <pt x="505" y="-179" on="1"/>
        <pt x="493" y="-199" on="0"/>
        <pt x="441" y="-225" on="0"/>
        <pt x="409" y="-225" on="1"/>
        <pt x="384" y="-225" on="0"/>
        <pt x="350" y="-210" on="0"/>
        <pt x="330" y="-186" on="0"/>
        <pt x="321" y="-158" on="0"/>
        <pt x="321" y="-144" on="1"/>
        <pt x="321" y="-107" on="0"/>
        <pt x="372" y="-37" on="0"/>
        <pt x="414" y="-2" on="1"/>
        <pt x="368" y="-1" on="0"/>
        <pt x="278" y="0" on="0"/>
        <pt x="251" y="0" on="1"/>
        <pt x="227" y="0" on="0"/>
        <pt x="151" y="-1" on="0"/>
        <pt x="70" y="-3" on="0"/>
        <pt x="-5" y="-5" on="0"/>
        <pt x="-28" y="-6" on="1"/>
        <pt x="-30" y="-6" on="0"/>
        <pt x="-34" y="-3" on="0"/>
        <pt x="-34" y="3" on="1"/>
        <pt x="-34" y="10" on="0"/>
        <pt x="-27" y="21" on="0"/>
        <pt x="-22" y="22" on="1"/>
        <pt x="15" y="26" on="0"/>
        <pt x="58" y="39" on="0"/>
        <pt x="80" y="59" on="0"/>
        <pt x="89" y="87" on="0"/>
        <pt x="94" y="106" on="1"/>
        <pt x="206" y="577" on="1"/>
        <pt x="208" y="587" on="0"/>
        <pt x="211" y="603" on="0"/>
        <pt x="211" y="611" on="1"/>
        <pt x="211" y="632" on="0"/>
        <pt x="175" y="655" on="0"/>
        <pt x="122" y="662" on="1"/>
        <pt x="117" y="662" on="0"/>
        <pt x="117" y="670" on="1"/>
        <pt x="117" y="677" on="0"/>
        <pt x="124" y="690" on="0"/>
        <pt x="129" y="690" on="1"/>
        <pt x="148" y="689" on="0"/>
        <pt x="214" y="687" on="0"/>
        <pt x="285" y="685" on="0"/>
        <pt x="351" y="684" on="0"/>
        <pt x="372" y="684" on="1"/>
        <pt x="392" y="684" on="0"/>
        <pt x="458" y="685" on="0"/>
        <pt x="529" y="687" on="0"/>
        <pt x="594" y="689" on="0"/>
        <pt x="614" y="690" on="1"/>
        <pt x="612" y="665" on="0"/>
        <pt x="610" y="623" on="0"/>
        <pt x="610" y="601" on="1"/>
        <pt x="610" y="587" on="0"/>
        <pt x="611" y="541" on="0"/>
        <pt x="611" y="527" on="1"/>
        <pt x="611" y="519" on="0"/>
        <pt x="597" y="519" on="1"/>
        <pt x="585" y="519" on="0"/>
        <pt x="583" y="527" on="1"/>
        <pt x="577" y="596" on="0"/>
        <pt x="518" y="652" on="0"/>
        <pt x="452" y="652" on="1"/>
        <pt x="384" y="652" on="1"/>
        <pt x="374" y="652" on="0"/>
        <pt x="352" y="647" on="0"/>
        <pt x="332" y="634" on="0"/>
        <pt x="315" y="610" on="0"/>
        <pt x="311" y="592" on="1"/>
        <pt x="258" y="369" on="1"/>
        <pt x="381" y="369" on="1"/>
        <pt x="401" y="369" on="0"/>
        <pt x="433" y="374" on="0"/>
        <pt x="460" y="393" on="0"/>
        <pt x="483" y="432" on="0"/>
        <pt x="495" y="465" on="1"/>
        <pt x="498" y="473" on="0"/>
        <pt x="510" y="473" on="1"/>
        <pt x="526" y="473" on="0"/>
        <pt x="524" y="465" on="1"/>
        <pt x="519" y="446" on="0"/>
        <pt x="512" y="419" on="0"/>
        <pt x="505" y="395" on="0"/>
        <pt x="498" y="369" on="0"/>
        <pt x="494" y="351" on="1"/>
        <pt x="486" y="316" on="0"/>
        <pt x="476" y="258" on="0"/>
        <pt x="467" y="221" on="1"/>
        <pt x="464" y="213" on="0"/>
        <pt x="453" y="213" on="1"/>
        <pt x="437" y="213" on="0"/>
        <pt x="439" y="221" on="1"/>
        <pt x="443" y="258" on="0"/>
        <pt x="440" y="304" on="0"/>
        <pt x="424" y="329" on="0"/>
        <pt x="394" y="337" on="0"/>
        <pt x="373" y="337" on="1"/>
        <pt x="251" y="337" on="1"/>
        <pt x="196" y="106" on="1"/>
        <pt x="194" y="96" on="0"/>
        <pt x="190" y="80" on="0"/>
        <pt x="190" y="72" on="1"/>
        <pt x="190" y="49" on="0"/>
        <pt x="217" y="32" on="0"/>
        <pt x="237" y="32" on="1"/>
        <pt x="359" y="32" on="1"/>
        <pt x="390" y="32" on="0"/>
        <pt x="450" y="53" on="0"/>
        <pt x="500" y="91" on="0"/>
        <pt x="537" y="144" on="0"/>
        <pt x="547" y="176" on="1"/>
        <pt x="547" y="180" on="0"/>
        <pt x="555" y="180" on="1"/>
        <pt x="563" y="180" on="0"/>
        <pt x="576" y="171" on="0"/>
        <pt x="575" y="167" on="1"/>
        <pt x="562" y="127" on="0"/>
        <pt x="539" y="39" on="0"/>
        <pt x="530" y="-6" on="1"/>
        <pt x="458" y="-4" on="1"/>
        <pt x="429" y="-32" on="0"/>
        <pt x="387" y="-90" on="0"/>
        <pt x="387" y="-122" on="1"/>
        <pt x="387" y="-148" on="0"/>
        <pt x="418" y="-174" on="0"/>
        <pt x="441" y="-174" on="1"/>
        <pt x="458" y="-174" on="0"/>
        <pt x="480" y="-163" on="0"/>
        <pt x="490" y="-155" on="1"/>
        <pt x="497" y="-150" on="0"/>
        <pt x="504" y="-163" on="1"/>
        <pt x="509" y="-171" on="0"/>
      </contour>
    </TTGlyph>
    <TTGlyph name="Eogonek.sc" xMin="1" yMin="-225" xMax="453" yMax="456">
      <component glyphName="eogonek.sc" x="0" y="0" flags="0x204"/>
    </TTGlyph>
    <TTGlyph name="Eogonek.sc_swa" xMin="16" yMin="-225" xMax="359" yMax="473">
      <component glyphName="eogonek.sc_swa" x="0" y="0" flags="0x204"/>
    </TTGlyph>
    <TTGlyph name="Eogonek.swa" xMin="57" yMin="-225" xMax="538" yMax="705">
      <contour>
        <pt x="538" y="572" on="1"/>
        <pt x="538" y="540" on="0"/>
        <pt x="505" y="493" on="0"/>
        <pt x="478" y="493" on="1"/>
        <pt x="452" y="493" on="0"/>
        <pt x="427" y="520" on="0"/>
        <pt x="427" y="538" on="1"/>
        <pt x="427" y="553" on="0"/>
        <pt x="439" y="569" on="0"/>
        <pt x="454" y="579" on="0"/>
        <pt x="467" y="591" on="0"/>
        <pt x="467" y="602" on="1"/>
        <pt x="467" y="632" on="0"/>
        <pt x="421" y="673" on="0"/>
        <pt x="382" y="673" on="1"/>
        <pt x="322" y="673" on="0"/>
        <pt x="258" y="585" on="0"/>
        <pt x="258" y="514" on="1"/>
        <pt x="258" y="469" on="0"/>
        <pt x="268" y="440" on="1"/>
        <pt x="291" y="448" on="0"/>
        <pt x="340" y="454" on="0"/>
        <pt x="365" y="454" on="1"/>
        <pt x="379" y="454" on="0"/>
        <pt x="410" y="448" on="0"/>
        <pt x="435" y="434" on="0"/>
        <pt x="452" y="410" on="0"/>
        <pt x="452" y="392" on="1"/>
        <pt x="452" y="374" on="0"/>
        <pt x="435" y="350" on="0"/>
        <pt x="410" y="335" on="0"/>
        <pt x="379" y="329" on="0"/>
        <pt x="365" y="329" on="1"/>
        <pt x="326" y="329" on="0"/>
        <pt x="258" y="353" on="0"/>
        <pt x="232" y="374" on="1"/>
        <pt x="200" y="346" on="0"/>
        <pt x="160" y="261" on="0"/>
        <pt x="160" y="204" on="1"/>
        <pt x="160" y="155" on="0"/>
        <pt x="185" y="82" on="0"/>
        <pt x="226" y="34" on="0"/>
        <pt x="278" y="10" on="0"/>
        <pt x="305" y="10" on="1"/>
        <pt x="344" y="10" on="0"/>
        <pt x="404" y="30" on="0"/>
        <pt x="446" y="64" on="0"/>
        <pt x="467" y="110" on="0"/>
        <pt x="467" y="136" on="1"/>
        <pt x="467" y="181" on="0"/>
        <pt x="422" y="226" on="0"/>
        <pt x="387" y="226" on="1"/>
        <pt x="371" y="226" on="0"/>
        <pt x="361" y="208" on="0"/>
        <pt x="363" y="184" on="0"/>
        <pt x="369" y="159" on="0"/>
        <pt x="369" y="152" on="1"/>
        <pt x="369" y="129" on="0"/>
        <pt x="342" y="100" on="0"/>
        <pt x="327" y="100" on="1"/>
        <pt x="321" y="100" on="0"/>
        <pt x="304" y="104" on="0"/>
        <pt x="289" y="117" on="0"/>
        <pt x="278" y="140" on="0"/>
        <pt x="278" y="160" on="1"/>
        <pt x="278" y="179" on="0"/>
        <pt x="296" y="215" on="0"/>
        <pt x="326" y="242" on="0"/>
        <pt x="366" y="258" on="0"/>
        <pt x="387" y="258" on="1"/>
        <pt x="417" y="258" on="0"/>
        <pt x="463" y="236" on="0"/>
        <pt x="493" y="201" on="0"/>
        <pt x="508" y="158" on="0"/>
        <pt x="508" y="136" on="1"/>
        <pt x="508" y="105" on="0"/>
        <pt x="478" y="48" on="0"/>
        <pt x="424" y="4" on="0"/>
        <pt x="349" y="-22" on="0"/>
        <pt x="304" y="-22" on="1"/>
        <pt x="300" y="-22" on="0"/>
        <pt x="293" y="-21" on="0"/>
        <pt x="289" y="-21" on="1"/>
        <pt x="266" y="-45" on="0"/>
        <pt x="235" y="-95" on="0"/>
        <pt x="235" y="-122" on="1"/>
        <pt x="235" y="-148" on="0"/>
        <pt x="266" y="-174" on="0"/>
        <pt x="289" y="-174" on="1"/>
        <pt x="306" y="-174" on="0"/>
        <pt x="328" y="-163" on="0"/>
        <pt x="338" y="-155" on="1"/>
        <pt x="345" y="-150" on="0"/>
        <pt x="352" y="-163" on="1"/>
        <pt x="357" y="-171" on="0"/>
        <pt x="353" y="-179" on="1"/>
        <pt x="341" y="-199" on="0"/>
        <pt x="289" y="-225" on="0"/>
        <pt x="257" y="-225" on="1"/>
        <pt x="232" y="-225" on="0"/>
        <pt x="198" y="-210" on="0"/>
        <pt x="178" y="-186" on="0"/>
        <pt x="169" y="-158" on="0"/>
        <pt x="169" y="-144" on="1"/>
        <pt x="169" y="-111" on="0"/>
        <pt x="212" y="-48" on="0"/>
        <pt x="247" y="-16" on="1"/>
        <pt x="202" y="-7" on="0"/>
        <pt x="132" y="37" on="0"/>
        <pt x="83" y="95" on="0"/>
        <pt x="57" y="162" on="0"/>
        <pt x="57" y="194" on="1"/>
        <pt x="57" y="264" on="0"/>
        <pt x="136" y="376" on="0"/>
        <pt x="198" y="411" on="1"/>
        <pt x="182" y="434" on="0"/>
        <pt x="165" y="492" on="0"/>
        <pt x="165" y="525" on="1"/>
        <pt x="165" y="555" on="0"/>
        <pt x="195" y="619" on="0"/>
        <pt x="251" y="672" on="0"/>
        <pt x="332" y="705" on="0"/>
        <pt x="383" y="705" on="1"/>
        <pt x="416" y="705" on="0"/>
        <pt x="473" y="683" on="0"/>
        <pt x="515" y="646" on="0"/>
        <pt x="538" y="598" on="0"/>
      </contour>
      <contour>
        <pt x="412" y="392" on="1"/>
        <pt x="412" y="405" on="0"/>
        <pt x="385" y="422" on="0"/>
        <pt x="360" y="422" on="1"/>
        <pt x="319" y="422" on="0"/>
        <pt x="283" y="406" on="1"/>
        <pt x="298" y="383" on="0"/>
        <pt x="339" y="361" on="0"/>
        <pt x="360" y="361" on="1"/>
        <pt x="385" y="361" on="0"/>
        <pt x="412" y="379" on="0"/>
      </contour>
    </TTGlyph>
    <TTGlyph name="Eth" xMin="-34" yMin="-6" xMax="765" yMax="692">
      <contour>
        <pt x="765" y="414" on="1"/>
        <pt x="765" y="337" on="0"/>
        <pt x="696" y="187" on="0"/>
        <pt x="574" y="69" on="0"/>
        <pt x="409" y="-4" on="0"/>
        <pt x="313" y="-4" on="1"/>
        <pt x="296" y="-4" on="0"/>
        <pt x="252" y="-3" on="0"/>
        <pt x="206" y="-1" on="0"/>
        <pt x="161" y="0" on="0"/>
        <pt x="143" y="0" on="1"/>
        <pt x="126" y="0" on="0"/>
        <pt x="80" y="-1" on="0"/>
        <pt x="33" y="-3" on="0"/>
        <pt x="-12" y="-5" on="0"/>
        <pt x="-29" y="-6" on="1"/>
        <pt x="-34" y="-6" on="0"/>
        <pt x="-34" y="4" on="1"/>
        <pt x="-34" y="10" on="0"/>
        <pt x="-27" y="22" on="0"/>
        <pt x="-22" y="22" on="1"/>
        <pt x="15" y="26" on="0"/>
        <pt x="57" y="40" on="0"/>
        <pt x="79" y="59" on="0"/>
        <pt x="89" y="87" on="0"/>
        <pt x="94" y="107" on="1"/>
        <pt x="146" y="327" on="1"/>
        <pt x="26" y="323" on="1"/>
        <pt x="20" y="323" on="0"/>
        <pt x="13" y="338" on="0"/>
        <pt x="13" y="350" on="1"/>
        <pt x="13" y="361" on="0"/>
        <pt x="20" y="378" on="0"/>
        <pt x="26" y="378" on="1"/>
        <pt x="158" y="378" on="1"/>
        <pt x="205" y="578" on="1"/>
        <pt x="211" y="597" on="0"/>
        <pt x="211" y="612" on="1"/>
        <pt x="211" y="633" on="0"/>
        <pt x="175" y="656" on="0"/>
        <pt x="122" y="662" on="1"/>
        <pt x="117" y="663" on="0"/>
        <pt x="117" y="671" on="1"/>
        <pt x="117" y="691" on="0"/>
        <pt x="129" y="690" on="1"/>
        <pt x="161" y="688" on="0"/>
        <pt x="248" y="688" on="0"/>
        <pt x="283" y="688" on="1"/>
        <pt x="300" y="688" on="0"/>
        <pt x="343" y="689" on="0"/>
        <pt x="388" y="691" on="0"/>
        <pt x="430" y="692" on="0"/>
        <pt x="447" y="692" on="1"/>
        <pt x="513" y="692" on="0"/>
        <pt x="629" y="657" on="0"/>
        <pt x="715" y="588" on="0"/>
        <pt x="765" y="483" on="0"/>
      </contour>
      <contour>
        <pt x="657" y="426" on="1"/>
        <pt x="657" y="492" on="0"/>
        <pt x="626" y="581" on="0"/>
        <pt x="569" y="636" on="0"/>
        <pt x="488" y="659" on="0"/>
        <pt x="437" y="659" on="1"/>
        <pt x="384" y="656" on="1"/>
        <pt x="363" y="656" on="0"/>
        <pt x="320" y="635" on="0"/>
        <pt x="312" y="599" on="1"/>
        <pt x="259" y="378" on="1"/>
        <pt x="375" y="378" on="1"/>
        <pt x="380" y="378" on="0"/>
        <pt x="387" y="361" on="0"/>
        <pt x="387" y="350" on="1"/>
        <pt x="387" y="338" on="0"/>
        <pt x="381" y="323" on="0"/>
        <pt x="375" y="323" on="1"/>
        <pt x="247" y="327" on="1"/>
        <pt x="191" y="90" on="1"/>
        <pt x="186" y="72" on="0"/>
        <pt x="192" y="49" on="0"/>
        <pt x="205" y="37" on="0"/>
        <pt x="225" y="32" on="0"/>
        <pt x="236" y="32" on="1"/>
        <pt x="313" y="30" on="1"/>
        <pt x="370" y="30" on="0"/>
        <pt x="466" y="69" on="0"/>
        <pt x="543" y="132" on="0"/>
        <pt x="600" y="215" on="0"/>
        <pt x="638" y="303" on="0"/>
        <pt x="657" y="390" on="0"/>
      </contour>
    </TTGlyph>
    <TTGlyph name="Eth.sc" xMin="1" yMin="-6" xMax="548" yMax="457">
      <component glyphName="dcroat.sc" x="0" y="0" flags="0x204"/>
    </TTGlyph>
    <TTGlyph name="Eth.swa" xMin="73" yMin="-6" xMax="1057" yMax="705">
      <contour>
        <pt x="1057" y="414" on="1"/>
        <pt x="1057" y="337" on="0"/>
        <pt x="988" y="187" on="0"/>
        <pt x="867" y="69" on="0"/>
        <pt x="702" y="-4" on="0"/>
        <pt x="606" y="-4" on="1"/>
        <pt x="589" y="-4" on="0"/>
        <pt x="545" y="-3" on="0"/>
        <pt x="498" y="-1" on="0"/>
        <pt x="453" y="0" on="0"/>
        <pt x="435" y="0" on="1"/>
        <pt x="418" y="0" on="0"/>
        <pt x="372" y="-1" on="0"/>
        <pt x="325" y="-3" on="0"/>
        <pt x="280" y="-5" on="0"/>
        <pt x="263" y="-6" on="1"/>
        <pt x="258" y="-6" on="0"/>
        <pt x="258" y="4" on="1"/>
        <pt x="258" y="10" on="0"/>
        <pt x="265" y="22" on="0"/>
        <pt x="270" y="22" on="1"/>
        <pt x="307" y="26" on="0"/>
        <pt x="350" y="40" on="0"/>
        <pt x="372" y="59" on="0"/>
        <pt x="381" y="87" on="0"/>
        <pt x="386" y="107" on="1"/>
        <pt x="438" y="327" on="1"/>
        <pt x="334" y="323" on="1"/>
        <pt x="328" y="323" on="0"/>
        <pt x="322" y="338" on="0"/>
        <pt x="322" y="350" on="1"/>
        <pt x="322" y="361" on="0"/>
        <pt x="328" y="377" on="0"/>
        <pt x="334" y="377" on="1"/>
        <pt x="450" y="377" on="1"/>
        <pt x="505" y="608" on="1"/>
        <pt x="513" y="640" on="0"/>
        <pt x="492" y="657" on="0"/>
        <pt x="475" y="657" on="1"/>
        <pt x="443" y="657" on="0"/>
        <pt x="364" y="634" on="0"/>
        <pt x="282" y="592" on="0"/>
        <pt x="203" y="535" on="0"/>
        <pt x="142" y="465" on="0"/>
        <pt x="105" y="386" on="0"/>
        <pt x="105" y="344" on="1"/>
        <pt x="105" y="295" on="0"/>
        <pt x="139" y="249" on="0"/>
        <pt x="168" y="249" on="1"/>
        <pt x="184" y="249" on="0"/>
        <pt x="199" y="268" on="0"/>
        <pt x="212" y="292" on="0"/>
        <pt x="229" y="311" on="0"/>
        <pt x="247" y="311" on="1"/>
        <pt x="269" y="311" on="0"/>
        <pt x="299" y="284" on="0"/>
        <pt x="299" y="255" on="1"/>
        <pt x="299" y="226" on="0"/>
        <pt x="250" y="183" on="0"/>
        <pt x="209" y="183" on="1"/>
        <pt x="173" y="183" on="0"/>
        <pt x="122" y="210" on="0"/>
        <pt x="89" y="255" on="0"/>
        <pt x="73" y="313" on="0"/>
        <pt x="73" y="344" on="1"/>
        <pt x="73" y="413" on="0"/>
        <pt x="160" y="544" on="0"/>
        <pt x="310" y="644" on="0"/>
        <pt x="512" y="705" on="0"/>
        <pt x="626" y="705" on="1"/>
        <pt x="713" y="705" on="0"/>
        <pt x="869" y="678" on="0"/>
        <pt x="987" y="612" on="0"/>
        <pt x="1057" y="500" on="0"/>
      </contour>
      <contour>
        <pt x="950" y="426" on="1"/>
        <pt x="950" y="497" on="0"/>
        <pt x="909" y="591" on="0"/>
        <pt x="835" y="646" on="0"/>
        <pt x="735" y="669" on="0"/>
        <pt x="677" y="669" on="1"/>
        <pt x="656" y="669" on="0"/>
        <pt x="616" y="649" on="0"/>
        <pt x="607" y="612" on="1"/>
        <pt x="552" y="377" on="1"/>
        <pt x="667" y="377" on="1"/>
        <pt x="673" y="377" on="0"/>
        <pt x="680" y="361" on="0"/>
        <pt x="680" y="350" on="1"/>
        <pt x="680" y="338" on="0"/>
        <pt x="673" y="323" on="0"/>
        <pt x="667" y="323" on="1"/>
        <pt x="539" y="327" on="1"/>
        <pt x="483" y="90" on="1"/>
        <pt x="478" y="72" on="0"/>
        <pt x="484" y="49" on="0"/>
        <pt x="497" y="37" on="0"/>
        <pt x="517" y="32" on="0"/>
        <pt x="528" y="32" on="1"/>
        <pt x="606" y="30" on="1"/>
        <pt x="663" y="30" on="0"/>
        <pt x="759" y="69" on="0"/>
        <pt x="835" y="132" on="0"/>
        <pt x="893" y="215" on="0"/>
        <pt x="931" y="303" on="0"/>
        <pt x="950" y="390" on="0"/>
      </contour>
    </TTGlyph>
    <TTGlyph name="Euro" xMin="47" yMin="-21" xMax="695" yMax="630">
      <contour>
        <pt x="695" y="621" on="1"/>
        <pt x="690" y="581" on="0"/>
        <pt x="682" y="500" on="0"/>
        <pt x="679" y="462" on="1"/>
        <pt x="677" y="454" on="0"/>
        <pt x="665" y="454" on="1"/>
        <pt x="652" y="454" on="0"/>
        <pt x="652" y="462" on="1"/>
        <pt x="652" y="532" on="0"/>
        <pt x="587" y="592" on="0"/>
        <pt x="538" y="592" on="1"/>
        <pt x="453" y="592" on="0"/>
        <pt x="316" y="483" on="0"/>
        <pt x="275" y="389" on="1"/>
        <pt x="509" y="390" on="1"/>
        <pt x="516" y="390" on="0"/>
        <pt x="521" y="376" on="0"/>
        <pt x="521" y="365" on="1"/>
        <pt x="521" y="356" on="0"/>
        <pt x="515" y="342" on="0"/>
        <pt x="509" y="342" on="1"/>
        <pt x="256" y="343" on="1"/>
        <pt x="250" y="323" on="0"/>
        <pt x="241" y="277" on="0"/>
        <pt x="237" y="254" on="1"/>
        <pt x="477" y="255" on="1"/>
        <pt x="483" y="256" on="0"/>
        <pt x="489" y="239" on="0"/>
        <pt x="489" y="231" on="1"/>
        <pt x="489" y="221" on="0"/>
        <pt x="485" y="207" on="0"/>
        <pt x="477" y="207" on="1"/>
        <pt x="233" y="209" on="1"/>
        <pt x="232" y="200" on="0"/>
        <pt x="232" y="181" on="0"/>
        <pt x="232" y="172" on="1"/>
        <pt x="232" y="137" on="0"/>
        <pt x="254" y="78" on="0"/>
        <pt x="298" y="35" on="0"/>
        <pt x="361" y="10" on="0"/>
        <pt x="402" y="10" on="1"/>
        <pt x="443" y="10" on="0"/>
        <pt x="507" y="32" on="0"/>
        <pt x="558" y="75" on="0"/>
        <pt x="597" y="137" on="0"/>
        <pt x="614" y="177" on="1"/>
        <pt x="617" y="185" on="0"/>
        <pt x="629" y="185" on="1"/>
        <pt x="643" y="185" on="0"/>
        <pt x="641" y="177" on="1"/>
        <pt x="636" y="160" on="0"/>
        <pt x="624" y="117" on="0"/>
        <pt x="612" y="72" on="0"/>
        <pt x="601" y="27" on="0"/>
        <pt x="597" y="8" on="1"/>
        <pt x="552" y="-4" on="0"/>
        <pt x="440" y="-21" on="0"/>
        <pt x="389" y="-21" on="1"/>
        <pt x="334" y="-21" on="0"/>
        <pt x="241" y="12" on="0"/>
        <pt x="174" y="72" on="0"/>
        <pt x="135" y="157" on="0"/>
        <pt x="133" y="209" on="1"/>
        <pt x="60" y="207" on="1"/>
        <pt x="54" y="207" on="0"/>
        <pt x="47" y="221" on="0"/>
        <pt x="47" y="231" on="1"/>
        <pt x="47" y="241" on="0"/>
        <pt x="54" y="256" on="0"/>
        <pt x="59" y="255" on="1"/>
        <pt x="134" y="254" on="1"/>
        <pt x="136" y="277" on="0"/>
        <pt x="145" y="323" on="0"/>
        <pt x="152" y="343" on="1"/>
        <pt x="92" y="342" on="1"/>
        <pt x="79" y="342" on="0"/>
        <pt x="79" y="365" on="1"/>
        <pt x="79" y="374" on="0"/>
        <pt x="86" y="390" on="0"/>
        <pt x="91" y="390" on="1"/>
        <pt x="173" y="389" on="1"/>
        <pt x="199" y="442" on="0"/>
        <pt x="282" y="530" on="0"/>
        <pt x="389" y="594" on="0"/>
        <pt x="520" y="630" on="0"/>
        <pt x="594" y="630" on="1"/>
        <pt x="623" y="630" on="0"/>
        <pt x="673" y="625" on="0"/>
      </contour>
    </TTGlyph>
    <TTGlyph name="Euro.lin" xMin="36" yMin="-22" xMax="754" yMax="705">
      <contour>
        <pt x="754" y="695" on="1"/>
        <pt x="749" y="653" on="0"/>
        <pt x="741" y="569" on="0"/>
        <pt x="737" y="528" on="1"/>
        <pt x="737" y="519" on="0"/>
        <pt x="723" y="519" on="1"/>
        <pt x="709" y="519" on="0"/>
        <pt x="709" y="528" on="1"/>
        <pt x="709" y="602" on="0"/>
        <pt x="638" y="665" on="0"/>
        <pt x="583" y="665" on="1"/>
        <pt x="536" y="665" on="0"/>
        <pt x="449" y="633" on="0"/>
        <pt x="373" y="573" on="0"/>
        <pt x="309" y="487" on="0"/>
        <pt x="286" y="434" on="1"/>
        <pt x="546" y="435" on="1"/>
        <pt x="554" y="435" on="0"/>
        <pt x="558" y="420" on="0"/>
        <pt x="558" y="409" on="1"/>
        <pt x="558" y="400" on="0"/>
        <pt x="552" y="384" on="0"/>
        <pt x="546" y="384" on="1"/>
        <pt x="266" y="385" on="1"/>
        <pt x="259" y="362" on="0"/>
        <pt x="248" y="312" on="0"/>
        <pt x="245" y="286" on="1"/>
        <pt x="512" y="287" on="1"/>
        <pt x="517" y="287" on="0"/>
        <pt x="524" y="270" on="0"/>
        <pt x="524" y="261" on="1"/>
        <pt x="524" y="250" on="0"/>
        <pt x="519" y="236" on="0"/>
        <pt x="512" y="236" on="1"/>
        <pt x="239" y="238" on="1"/>
        <pt x="234" y="193" on="0"/>
        <pt x="252" y="111" on="0"/>
        <pt x="300" y="48" on="0"/>
        <pt x="378" y="10" on="0"/>
        <pt x="433" y="10" on="1"/>
        <pt x="478" y="10" on="0"/>
        <pt x="547" y="34" on="0"/>
        <pt x="602" y="79" on="0"/>
        <pt x="644" y="145" on="0"/>
        <pt x="662" y="187" on="1"/>
        <pt x="665" y="196" on="0"/>
        <pt x="678" y="196" on="1"/>
        <pt x="685" y="196" on="0"/>
        <pt x="691" y="190" on="0"/>
        <pt x="690" y="187" on="1"/>
        <pt x="685" y="169" on="0"/>
        <pt x="673" y="124" on="0"/>
        <pt x="661" y="76" on="0"/>
        <pt x="649" y="29" on="0"/>
        <pt x="644" y="9" on="1"/>
        <pt x="620" y="3" on="0"/>
        <pt x="564" y="-9" on="0"/>
        <pt x="505" y="-17" on="0"/>
        <pt x="446" y="-22" on="0"/>
        <pt x="419" y="-22" on="1"/>
        <pt x="357" y="-22" on="0"/>
        <pt x="255" y="15" on="0"/>
        <pt x="181" y="84" on="0"/>
        <pt x="138" y="179" on="0"/>
        <pt x="136" y="238" on="1"/>
        <pt x="49" y="236" on="1"/>
        <pt x="42" y="236" on="0"/>
        <pt x="36" y="251" on="0"/>
        <pt x="36" y="261" on="1"/>
        <pt x="36" y="272" on="0"/>
        <pt x="42" y="288" on="0"/>
        <pt x="48" y="287" on="1"/>
        <pt x="137" y="286" on="1"/>
        <pt x="139" y="311" on="0"/>
        <pt x="149" y="362" on="0"/>
        <pt x="157" y="385" on="1"/>
        <pt x="83" y="384" on="1"/>
        <pt x="70" y="382" on="0"/>
        <pt x="70" y="409" on="1"/>
        <pt x="70" y="418" on="0"/>
        <pt x="77" y="435" on="0"/>
        <pt x="82" y="435" on="1"/>
        <pt x="179" y="434" on="1"/>
        <pt x="208" y="493" on="0"/>
        <pt x="299" y="593" on="0"/>
        <pt x="418" y="665" on="0"/>
        <pt x="563" y="705" on="0"/>
        <pt x="645" y="705" on="1"/>
        <pt x="675" y="705" on="0"/>
        <pt x="731" y="700" on="0"/>
      </contour>
    </TTGlyph>
    <TTGlyph name="Euro.sc" xMin="25" yMin="-22" xMax="524" yMax="470">
      <contour>
        <pt x="524" y="462" on="1"/>
        <pt x="519" y="427" on="0"/>
        <pt x="512" y="356" on="0"/>
        <pt x="510" y="321" on="1"/>
        <pt x="508" y="314" on="0"/>
        <pt x="498" y="314" on="1"/>
        <pt x="486" y="314" on="0"/>
        <pt x="486" y="321" on="1"/>
        <pt x="486" y="384" on="0"/>
        <pt x="434" y="436" on="0"/>
        <pt x="396" y="436" on="1"/>
        <pt x="331" y="436" on="0"/>
        <pt x="234" y="359" on="0"/>
        <pt x="205" y="292" on="1"/>
        <pt x="385" y="292" on="1"/>
        <pt x="390" y="292" on="0"/>
        <pt x="397" y="279" on="0"/>
        <pt x="397" y="271" on="1"/>
        <pt x="397" y="263" on="0"/>
        <pt x="391" y="251" on="0"/>
        <pt x="385" y="251" on="1"/>
        <pt x="189" y="252" on="1"/>
        <pt x="184" y="236" on="0"/>
        <pt x="178" y="202" on="0"/>
        <pt x="176" y="185" on="1"/>
        <pt x="359" y="186" on="1"/>
        <pt x="364" y="186" on="0"/>
        <pt x="371" y="172" on="0"/>
        <pt x="371" y="164" on="1"/>
        <pt x="371" y="156" on="0"/>
        <pt x="366" y="144" on="0"/>
        <pt x="359" y="144" on="1"/>
        <pt x="172" y="145" on="1"/>
        <pt x="166" y="6" on="0"/>
        <pt x="290" y="6" on="1"/>
        <pt x="324" y="6" on="0"/>
        <pt x="376" y="25" on="0"/>
        <pt x="418" y="63" on="0"/>
        <pt x="453" y="118" on="0"/>
        <pt x="468" y="153" on="1"/>
        <pt x="471" y="160" on="0"/>
        <pt x="481" y="160" on="1"/>
        <pt x="493" y="160" on="0"/>
        <pt x="491" y="153" on="1"/>
        <pt x="486" y="138" on="0"/>
        <pt x="476" y="100" on="0"/>
        <pt x="466" y="60" on="0"/>
        <pt x="457" y="21" on="0"/>
        <pt x="453" y="4" on="1"/>
        <pt x="412" y="-7" on="0"/>
        <pt x="325" y="-22" on="0"/>
        <pt x="280" y="-22" on="1"/>
        <pt x="238" y="-22" on="0"/>
        <pt x="166" y="2" on="0"/>
        <pt x="114" y="45" on="0"/>
        <pt x="83" y="107" on="0"/>
        <pt x="80" y="145" on="1"/>
        <pt x="38" y="144" on="1"/>
        <pt x="25" y="144" on="0"/>
        <pt x="25" y="164" on="1"/>
        <pt x="25" y="173" on="0"/>
        <pt x="32" y="186" on="0"/>
        <pt x="37" y="186" on="1"/>
        <pt x="81" y="185" on="1"/>
        <pt x="84" y="219" on="0"/>
        <pt x="95" y="252" on="1"/>
        <pt x="64" y="251" on="1"/>
        <pt x="57" y="251" on="0"/>
        <pt x="51" y="265" on="0"/>
        <pt x="51" y="271" on="1"/>
        <pt x="51" y="279" on="0"/>
        <pt x="58" y="292" on="0"/>
        <pt x="63" y="292" on="1"/>
        <pt x="113" y="292" on="1"/>
        <pt x="134" y="331" on="0"/>
        <pt x="199" y="396" on="0"/>
        <pt x="282" y="444" on="0"/>
        <pt x="383" y="470" on="0"/>
        <pt x="440" y="470" on="1"/>
        <pt x="466" y="470" on="0"/>
        <pt x="504" y="465" on="0"/>
      </contour>
    </TTGlyph>
    <TTGlyph name="F" xMin="-34" yMin="-6" xMax="625" yMax="690">
      <contour>
        <pt x="622" y="690" on="1"/>
        <pt x="621" y="676" on="0"/>
        <pt x="620" y="644" on="0"/>
        <pt x="620" y="628" on="1"/>
        <pt x="620" y="602" on="0"/>
        <pt x="623" y="550" on="0"/>
        <pt x="625" y="523" on="1"/>
        <pt x="625" y="515" on="0"/>
        <pt x="611" y="515" on="1"/>
        <pt x="597" y="515" on="0"/>
        <pt x="597" y="523" on="1"/>
        <pt x="588" y="592" on="0"/>
        <pt x="522" y="652" on="0"/>
        <pt x="456" y="652" on="1"/>
        <pt x="383" y="652" on="1"/>
        <pt x="373" y="652" on="0"/>
        <pt x="351" y="647" on="0"/>
        <pt x="331" y="634" on="0"/>
        <pt x="315" y="610" on="0"/>
        <pt x="311" y="592" on="1"/>
        <pt x="257" y="365" on="1"/>
        <pt x="367" y="365" on="1"/>
        <pt x="387" y="365" on="0"/>
        <pt x="419" y="370" on="0"/>
        <pt x="446" y="390" on="0"/>
        <pt x="470" y="429" on="0"/>
        <pt x="482" y="462" on="1"/>
        <pt x="486" y="470" on="0"/>
        <pt x="496" y="470" on="1"/>
        <pt x="512" y="470" on="0"/>
        <pt x="510" y="462" on="1"/>
        <pt x="505" y="443" on="0"/>
        <pt x="498" y="416" on="0"/>
        <pt x="492" y="391" on="0"/>
        <pt x="484" y="365" on="0"/>
        <pt x="480" y="347" on="1"/>
        <pt x="472" y="312" on="0"/>
        <pt x="462" y="255" on="0"/>
        <pt x="453" y="217" on="1"/>
        <pt x="452" y="209" on="0"/>
        <pt x="439" y="209" on="1"/>
        <pt x="425" y="209" on="0"/>
        <pt x="425" y="217" on="1"/>
        <pt x="429" y="254" on="0"/>
        <pt x="426" y="300" on="0"/>
        <pt x="410" y="325" on="0"/>
        <pt x="381" y="333" on="0"/>
        <pt x="360" y="333" on="1"/>
        <pt x="249" y="333" on="1"/>
        <pt x="195" y="106" on="1"/>
        <pt x="193" y="96" on="0"/>
        <pt x="190" y="80" on="0"/>
        <pt x="190" y="72" on="1"/>
        <pt x="190" y="51" on="0"/>
        <pt x="226" y="28" on="0"/>
        <pt x="279" y="22" on="1"/>
        <pt x="284" y="20" on="0"/>
        <pt x="284" y="13" on="1"/>
        <pt x="284" y="6" on="0"/>
        <pt x="277" y="-6" on="0"/>
        <pt x="272" y="-6" on="1"/>
        <pt x="247" y="-6" on="0"/>
        <pt x="208" y="-4" on="0"/>
        <pt x="173" y="-2" on="0"/>
        <pt x="139" y="0" on="0"/>
        <pt x="119" y="0" on="1"/>
        <pt x="80" y="0" on="0"/>
        <pt x="16" y="-6" on="0"/>
        <pt x="-29" y="-6" on="1"/>
        <pt x="-31" y="-6" on="0"/>
        <pt x="-34" y="-3" on="0"/>
        <pt x="-34" y="3" on="1"/>
        <pt x="-34" y="10" on="0"/>
        <pt x="-27" y="21" on="0"/>
        <pt x="-22" y="22" on="1"/>
        <pt x="15" y="26" on="0"/>
        <pt x="57" y="39" on="0"/>
        <pt x="80" y="59" on="0"/>
        <pt x="89" y="87" on="0"/>
        <pt x="94" y="106" on="1"/>
        <pt x="206" y="577" on="1"/>
        <pt x="208" y="587" on="0"/>
        <pt x="211" y="603" on="0"/>
        <pt x="211" y="611" on="1"/>
        <pt x="211" y="632" on="0"/>
        <pt x="174" y="655" on="0"/>
        <pt x="122" y="662" on="1"/>
        <pt x="117" y="662" on="0"/>
        <pt x="117" y="670" on="1"/>
        <pt x="117" y="677" on="0"/>
        <pt x="124" y="690" on="0"/>
        <pt x="129" y="690" on="1"/>
        <pt x="148" y="689" on="0"/>
        <pt x="216" y="687" on="0"/>
        <pt x="289" y="685" on="0"/>
        <pt x="357" y="684" on="0"/>
        <pt x="377" y="684" on="1"/>
        <pt x="398" y="684" on="0"/>
        <pt x="465" y="685" on="0"/>
        <pt x="537" y="687" on="0"/>
        <pt x="602" y="689" on="0"/>
      </contour>
    </TTGlyph>
    <TTGlyph name="F.sc" xMin="1" yMin="-6" xMax="464" yMax="456">
      <component glyphName="f.sc" x="0" y="0" flags="0x204"/>
    </TTGlyph>
    <TTGlyph name="F.swa" xMin="-118" yMin="-275" xMax="820" yMax="766">
      <contour>
        <pt x="820" y="691" on="1"/>
        <pt x="820" y="661" on="0"/>
        <pt x="785" y="611" on="0"/>
        <pt x="727" y="575" on="0"/>
        <pt x="650" y="555" on="0"/>
        <pt x="608" y="555" on="1"/>
        <pt x="567" y="555" on="0"/>
        <pt x="486" y="581" on="0"/>
        <pt x="446" y="598" on="1"/>
        <pt x="383" y="336" on="1"/>
        <pt x="494" y="336" on="1"/>
        <pt x="514" y="336" on="0"/>
        <pt x="546" y="341" on="0"/>
        <pt x="573" y="360" on="0"/>
        <pt x="597" y="399" on="0"/>
        <pt x="609" y="433" on="1"/>
        <pt x="611" y="441" on="0"/>
        <pt x="623" y="441" on="1"/>
        <pt x="639" y="441" on="0"/>
        <pt x="637" y="433" on="1"/>
        <pt x="632" y="414" on="0"/>
        <pt x="625" y="386" on="0"/>
        <pt x="618" y="362" on="0"/>
        <pt x="611" y="336" on="0"/>
        <pt x="607" y="318" on="1"/>
        <pt x="599" y="283" on="0"/>
        <pt x="589" y="225" on="0"/>
        <pt x="580" y="188" on="1"/>
        <pt x="577" y="180" on="0"/>
        <pt x="566" y="180" on="1"/>
        <pt x="550" y="180" on="0"/>
        <pt x="552" y="188" on="1"/>
        <pt x="556" y="225" on="0"/>
        <pt x="554" y="271" on="0"/>
        <pt x="538" y="296" on="0"/>
        <pt x="508" y="304" on="0"/>
        <pt x="486" y="304" on="1"/>
        <pt x="375" y="304" on="1"/>
        <pt x="326" y="103" on="1"/>
        <pt x="309" y="33" on="0"/>
        <pt x="244" y="-102" on="0"/>
        <pt x="153" y="-209" on="0"/>
        <pt x="41" y="-275" on="0"/>
        <pt x="-22" y="-275" on="1"/>
        <pt x="-38" y="-275" on="0"/>
        <pt x="-72" y="-266" on="0"/>
        <pt x="-100" y="-248" on="0"/>
        <pt x="-118" y="-221" on="0"/>
        <pt x="-118" y="-203" on="1"/>
        <pt x="-118" y="-183" on="0"/>
        <pt x="-90" y="-157" on="0"/>
        <pt x="-67" y="-157" on="1"/>
        <pt x="-42" y="-157" on="0"/>
        <pt x="-12" y="-177" on="0"/>
        <pt x="9" y="-200" on="0"/>
        <pt x="29" y="-220" on="0"/>
        <pt x="46" y="-220" on="1"/>
        <pt x="68" y="-220" on="0"/>
        <pt x="111" y="-197" on="0"/>
        <pt x="153" y="-132" on="0"/>
        <pt x="196" y="-17" on="0"/>
        <pt x="218" y="75" on="1"/>
        <pt x="352" y="632" on="1"/>
        <pt x="333" y="637" on="0"/>
        <pt x="296" y="644" on="0"/>
        <pt x="277" y="644" on="1"/>
        <pt x="202" y="644" on="0"/>
        <pt x="124" y="584" on="0"/>
        <pt x="124" y="540" on="1"/>
        <pt x="124" y="517" on="0"/>
        <pt x="139" y="492" on="0"/>
        <pt x="162" y="480" on="0"/>
        <pt x="188" y="474" on="0"/>
        <pt x="211" y="464" on="0"/>
        <pt x="226" y="443" on="0"/>
        <pt x="226" y="423" on="1"/>
        <pt x="226" y="402" on="0"/>
        <pt x="192" y="376" on="0"/>
        <pt x="170" y="376" on="1"/>
        <pt x="125" y="376" on="0"/>
        <pt x="67" y="432" on="0"/>
        <pt x="67" y="487" on="1"/>
        <pt x="67" y="532" on="0"/>
        <pt x="112" y="612" on="0"/>
        <pt x="184" y="671" on="0"/>
        <pt x="276" y="705" on="0"/>
        <pt x="323" y="705" on="1"/>
        <pt x="370" y="705" on="0"/>
        <pt x="471" y="673" on="0"/>
        <pt x="567" y="635" on="0"/>
        <pt x="652" y="603" on="0"/>
        <pt x="685" y="603" on="1"/>
        <pt x="706" y="603" on="0"/>
        <pt x="733" y="614" on="0"/>
        <pt x="747" y="632" on="0"/>
        <pt x="752" y="655" on="0"/>
        <pt x="752" y="667" on="1"/>
        <pt x="752" y="675" on="0"/>
        <pt x="743" y="689" on="0"/>
        <pt x="732" y="703" on="0"/>
        <pt x="723" y="716" on="0"/>
        <pt x="723" y="722" on="1"/>
        <pt x="723" y="741" on="0"/>
        <pt x="747" y="766" on="0"/>
        <pt x="764" y="766" on="1"/>
        <pt x="786" y="766" on="0"/>
        <pt x="820" y="726" on="0"/>
      </contour>
    </TTGlyph>
    <TTGlyph name="G" xMin="55" yMin="-22" xMax="756" yMax="705">
      <contour>
        <pt x="756" y="306" on="1"/>
        <pt x="756" y="300" on="0"/>
        <pt x="749" y="288" on="0"/>
        <pt x="744" y="287" on="1"/>
        <pt x="717" y="284" on="0"/>
        <pt x="680" y="276" on="0"/>
        <pt x="654" y="258" on="0"/>
        <pt x="638" y="228" on="0"/>
        <pt x="632" y="203" on="1"/>
        <pt x="614" y="129" on="1"/>
        <pt x="606" y="96" on="0"/>
        <pt x="598" y="37" on="0"/>
        <pt x="600" y="23" on="1"/>
        <pt x="571" y="12" on="0"/>
        <pt x="515" y="-5" on="0"/>
        <pt x="454" y="-16" on="0"/>
        <pt x="383" y="-22" on="0"/>
        <pt x="339" y="-22" on="1"/>
        <pt x="276" y="-22" on="0"/>
        <pt x="171" y="16" on="0"/>
        <pt x="96" y="87" on="0"/>
        <pt x="55" y="186" on="0"/>
        <pt x="55" y="247" on="1"/>
        <pt x="55" y="341" on="0"/>
        <pt x="133" y="508" on="0"/>
        <pt x="269" y="633" on="0"/>
        <pt x="456" y="705" on="0"/>
        <pt x="565" y="705" on="1"/>
        <pt x="580" y="705" on="0"/>
        <pt x="619" y="704" on="0"/>
        <pt x="657" y="701" on="0"/>
        <pt x="691" y="697" on="0"/>
        <pt x="702" y="695" on="1"/>
        <pt x="700" y="678" on="0"/>
        <pt x="695" y="632" on="0"/>
        <pt x="691" y="582" on="0"/>
        <pt x="688" y="532" on="0"/>
        <pt x="687" y="512" on="1"/>
        <pt x="687" y="503" on="0"/>
        <pt x="673" y="503" on="1"/>
        <pt x="659" y="503" on="0"/>
        <pt x="659" y="512" on="1"/>
        <pt x="659" y="595" on="0"/>
        <pt x="584" y="665" on="0"/>
        <pt x="515" y="665" on="1"/>
        <pt x="448" y="665" on="0"/>
        <pt x="320" y="596" on="0"/>
        <pt x="219" y="472" on="0"/>
        <pt x="158" y="299" on="0"/>
        <pt x="158" y="195" on="1"/>
        <pt x="158" y="156" on="0"/>
        <pt x="184" y="89" on="0"/>
        <pt x="234" y="39" on="0"/>
        <pt x="306" y="10" on="0"/>
        <pt x="353" y="10" on="1"/>
        <pt x="420" y="10" on="0"/>
        <pt x="492" y="43" on="0"/>
        <pt x="500" y="76" on="1"/>
        <pt x="532" y="214" on="1"/>
        <pt x="535" y="224" on="0"/>
        <pt x="535" y="233" on="1"/>
        <pt x="535" y="259" on="0"/>
        <pt x="481" y="282" on="0"/>
        <pt x="420" y="287" on="1"/>
        <pt x="415" y="289" on="0"/>
        <pt x="415" y="296" on="1"/>
        <pt x="415" y="303" on="0"/>
        <pt x="422" y="315" on="0"/>
        <pt x="427" y="315" on="1"/>
        <pt x="452" y="315" on="0"/>
        <pt x="493" y="313" on="0"/>
        <pt x="531" y="312" on="0"/>
        <pt x="571" y="310" on="0"/>
        <pt x="594" y="310" on="1"/>
        <pt x="617" y="310" on="0"/>
        <pt x="654" y="312" on="0"/>
        <pt x="688" y="313" on="0"/>
        <pt x="726" y="315" on="0"/>
        <pt x="751" y="315" on="1"/>
        <pt x="753" y="315" on="0"/>
        <pt x="756" y="312" on="0"/>
      </contour>
    </TTGlyph>
    <TTGlyph name="G.sc" xMin="36" yMin="-19" xMax="529" yMax="473">
      <component glyphName="g.sc" x="0" y="0" flags="0x204"/>
    </TTGlyph>
    <TTGlyph name="G.swa" xMin="55" yMin="-273" xMax="756" yMax="705">
      <contour>
        <pt x="756" y="307" on="1"/>
        <pt x="756" y="301" on="0"/>
        <pt x="749" y="290" on="0"/>
        <pt x="744" y="289" on="1"/>
        <pt x="717" y="286" on="0"/>
        <pt x="680" y="278" on="0"/>
        <pt x="654" y="260" on="0"/>
        <pt x="638" y="229" on="0"/>
        <pt x="632" y="204" on="1"/>
        <pt x="602" y="75" on="1"/>
        <pt x="587" y="10" on="0"/>
        <pt x="539" y="-114" on="0"/>
        <pt x="468" y="-213" on="0"/>
        <pt x="373" y="-273" on="0"/>
        <pt x="312" y="-273" on="1"/>
        <pt x="296" y="-273" on="0"/>
        <pt x="262" y="-264" on="0"/>
        <pt x="234" y="-246" on="0"/>
        <pt x="216" y="-219" on="0"/>
        <pt x="216" y="-201" on="1"/>
        <pt x="216" y="-181" on="0"/>
        <pt x="244" y="-155" on="0"/>
        <pt x="267" y="-155" on="1"/>
        <pt x="292" y="-155" on="0"/>
        <pt x="322" y="-175" on="0"/>
        <pt x="343" y="-198" on="0"/>
        <pt x="363" y="-218" on="0"/>
        <pt x="380" y="-218" on="1"/>
        <pt x="395" y="-218" on="0"/>
        <pt x="418" y="-199" on="0"/>
        <pt x="439" y="-151" on="0"/>
        <pt x="463" y="-71" on="0"/>
        <pt x="478" y="-9" on="1"/>
        <pt x="449" y="-14" on="0"/>
        <pt x="381" y="-20" on="0"/>
        <pt x="339" y="-20" on="1"/>
        <pt x="276" y="-20" on="0"/>
        <pt x="171" y="18" on="0"/>
        <pt x="96" y="88" on="0"/>
        <pt x="55" y="187" on="0"/>
        <pt x="55" y="248" on="1"/>
        <pt x="55" y="343" on="0"/>
        <pt x="133" y="509" on="0"/>
        <pt x="269" y="633" on="0"/>
        <pt x="456" y="705" on="0"/>
        <pt x="565" y="705" on="1"/>
        <pt x="580" y="705" on="0"/>
        <pt x="619" y="704" on="0"/>
        <pt x="657" y="701" on="0"/>
        <pt x="691" y="697" on="0"/>
        <pt x="702" y="695" on="1"/>
        <pt x="700" y="678" on="0"/>
        <pt x="695" y="632" on="0"/>
        <pt x="691" y="582" on="0"/>
        <pt x="688" y="532" on="0"/>
        <pt x="687" y="511" on="1"/>
        <pt x="687" y="503" on="0"/>
        <pt x="673" y="503" on="1"/>
        <pt x="659" y="503" on="0"/>
        <pt x="659" y="511" on="1"/>
        <pt x="659" y="594" on="0"/>
        <pt x="583" y="664" on="0"/>
        <pt x="515" y="664" on="1"/>
        <pt x="448" y="664" on="0"/>
        <pt x="320" y="596" on="0"/>
        <pt x="219" y="473" on="0"/>
        <pt x="158" y="301" on="0"/>
        <pt x="158" y="197" on="1"/>
        <pt x="158" y="158" on="0"/>
        <pt x="184" y="91" on="0"/>
        <pt x="234" y="41" on="0"/>
        <pt x="306" y="12" on="0"/>
        <pt x="353" y="12" on="1"/>
        <pt x="484" y="12" on="0"/>
        <pt x="500" y="78" on="1"/>
        <pt x="532" y="215" on="1"/>
        <pt x="535" y="225" on="0"/>
        <pt x="535" y="234" on="1"/>
        <pt x="535" y="261" on="0"/>
        <pt x="481" y="284" on="0"/>
        <pt x="420" y="289" on="1"/>
        <pt x="415" y="289" on="0"/>
        <pt x="415" y="297" on="1"/>
        <pt x="415" y="305" on="0"/>
        <pt x="422" y="317" on="0"/>
        <pt x="427" y="317" on="1"/>
        <pt x="452" y="317" on="0"/>
        <pt x="493" y="315" on="0"/>
        <pt x="531" y="313" on="0"/>
        <pt x="571" y="311" on="0"/>
        <pt x="594" y="311" on="1"/>
        <pt x="617" y="311" on="0"/>
        <pt x="654" y="313" on="0"/>
        <pt x="688" y="315" on="0"/>
        <pt x="726" y="317" on="0"/>
        <pt x="751" y="317" on="1"/>
        <pt x="756" y="317" on="0"/>
      </contour>
    </TTGlyph>
    <TTGlyph name="Gbreve" xMin="55" yMin="-22" xMax="756" yMax="910">
      <component glyphName="G" x="0" y="0" flags="0x204"/>
      <component glyphName="breve.cap" x="200" y="15" flags="0x4"/>
    </TTGlyph>
    <TTGlyph name="Gbreve.sc" xMin="36" yMin="-19" xMax="529" yMax="686">
      <component glyphName="g.sc" x="0" y="0" flags="0x204"/>
      <component glyphName="breve" x="122" y="20" flags="0x4"/>
    </TTGlyph>
    <TTGlyph name="Gbreve.swa" xMin="55" yMin="-273" xMax="756" yMax="910">
      <component glyphName="G.swa" x="0" y="0" flags="0x204"/>
      <component glyphName="breve.cap" x="250" y="15" flags="0x4"/>
    </TTGlyph>
    <TTGlyph name="Gcommaaccent" xMin="55" yMin="-293" xMax="756" yMax="705">
      <component glyphName="G" x="0" y="0" flags="0x204"/>
      <component glyphName="commaaccent" x="179" y="-14" flags="0x4"/>
    </TTGlyph>
    <TTGlyph name="Gcommaaccent.sc" xMin="36" yMin="-288" xMax="529" yMax="473">
      <component glyphName="g.sc" x="0" y="0" flags="0x204"/>
      <component glyphName="commaaccent" x="70" y="-9" flags="0x4"/>
    </TTGlyph>
    <TTGlyph name="Gdotaccent" xMin="55" yMin="-22" xMax="756" yMax="883">
      <component glyphName="G" x="0" y="0" flags="0x204"/>
      <component glyphName="dotaccent.cap" x="221" y="15" flags="0x4"/>
    </TTGlyph>
    <TTGlyph name="Gdotaccent.sc" xMin="36" yMin="-19" xMax="529" yMax="650">
      <component glyphName="g.sc" x="0" y="0" flags="0x204"/>
      <component glyphName="dotaccent" x="137" y="20" flags="0x4"/>
    </TTGlyph>
    <TTGlyph name="Gdotaccent.swa" xMin="55" yMin="-273" xMax="756" yMax="883">
      <component glyphName="G.swa" x="0" y="0" flags="0x204"/>
      <component glyphName="dotaccent.cap" x="271" y="15" flags="0x4"/>
    </TTGlyph>
    <TTGlyph name="H" xMin="-34" yMin="-6" xMax="872" yMax="690">
      <contour>
        <pt x="872" y="680" on="1"/>
        <pt x="872" y="674" on="0"/>
        <pt x="865" y="662" on="0"/>
        <pt x="860" y="662" on="1"/>
        <pt x="822" y="657" on="0"/>
        <pt x="780" y="644" on="0"/>
        <pt x="758" y="625" on="0"/>
        <pt x="748" y="596" on="0"/>
        <pt x="744" y="577" on="1"/>
        <pt x="632" y="106" on="1"/>
        <pt x="630" y="96" on="0"/>
        <pt x="627" y="80" on="0"/>
        <pt x="627" y="72" on="1"/>
        <pt x="627" y="51" on="0"/>
        <pt x="663" y="28" on="0"/>
        <pt x="716" y="22" on="1"/>
        <pt x="721" y="20" on="0"/>
        <pt x="721" y="13" on="1"/>
        <pt x="721" y="6" on="0"/>
        <pt x="714" y="-6" on="0"/>
        <pt x="709" y="-6" on="1"/>
        <pt x="684" y="-6" on="0"/>
        <pt x="645" y="-4" on="0"/>
        <pt x="610" y="-2" on="0"/>
        <pt x="576" y="0" on="0"/>
        <pt x="556" y="0" on="1"/>
        <pt x="536" y="0" on="0"/>
        <pt x="506" y="-2" on="0"/>
        <pt x="476" y="-4" on="0"/>
        <pt x="442" y="-6" on="0"/>
        <pt x="420" y="-6" on="1"/>
        <pt x="418" y="-6" on="0"/>
        <pt x="415" y="-3" on="0"/>
        <pt x="415" y="3" on="1"/>
        <pt x="415" y="10" on="0"/>
        <pt x="422" y="21" on="0"/>
        <pt x="427" y="22" on="1"/>
        <pt x="460" y="26" on="0"/>
        <pt x="497" y="39" on="0"/>
        <pt x="518" y="59" on="0"/>
        <pt x="526" y="87" on="0"/>
        <pt x="531" y="106" on="1"/>
        <pt x="583" y="329" on="1"/>
        <pt x="248" y="329" on="1"/>
        <pt x="196" y="106" on="1"/>
        <pt x="190" y="86" on="0"/>
        <pt x="190" y="72" on="1"/>
        <pt x="190" y="61" on="0"/>
        <pt x="194" y="45" on="0"/>
        <pt x="210" y="33" on="0"/>
        <pt x="241" y="25" on="0"/>
        <pt x="267" y="22" on="1"/>
        <pt x="272" y="21" on="0"/>
        <pt x="272" y="13" on="1"/>
        <pt x="272" y="6" on="0"/>
        <pt x="265" y="-6" on="0"/>
        <pt x="260" y="-6" on="1"/>
        <pt x="235" y="-6" on="0"/>
        <pt x="200" y="-4" on="0"/>
        <pt x="170" y="-2" on="0"/>
        <pt x="139" y="0" on="0"/>
        <pt x="119" y="0" on="1"/>
        <pt x="80" y="0" on="0"/>
        <pt x="16" y="-6" on="0"/>
        <pt x="-29" y="-6" on="1"/>
        <pt x="-31" y="-6" on="0"/>
        <pt x="-34" y="-3" on="0"/>
        <pt x="-34" y="3" on="1"/>
        <pt x="-34" y="10" on="0"/>
        <pt x="-27" y="21" on="0"/>
        <pt x="-22" y="22" on="1"/>
        <pt x="15" y="26" on="0"/>
        <pt x="58" y="39" on="0"/>
        <pt x="80" y="59" on="0"/>
        <pt x="89" y="87" on="0"/>
        <pt x="94" y="106" on="1"/>
        <pt x="206" y="577" on="1"/>
        <pt x="208" y="587" on="0"/>
        <pt x="211" y="603" on="0"/>
        <pt x="211" y="611" on="1"/>
        <pt x="211" y="632" on="0"/>
        <pt x="174" y="655" on="0"/>
        <pt x="122" y="662" on="1"/>
        <pt x="117" y="662" on="0"/>
        <pt x="117" y="670" on="1"/>
        <pt x="117" y="677" on="0"/>
        <pt x="124" y="690" on="0"/>
        <pt x="129" y="690" on="1"/>
        <pt x="154" y="690" on="0"/>
        <pt x="193" y="688" on="0"/>
        <pt x="228" y="686" on="0"/>
        <pt x="262" y="684" on="0"/>
        <pt x="282" y="684" on="1"/>
        <pt x="301" y="684" on="0"/>
        <pt x="332" y="686" on="0"/>
        <pt x="362" y="688" on="0"/>
        <pt x="395" y="690" on="0"/>
        <pt x="418" y="690" on="1"/>
        <pt x="423" y="690" on="0"/>
        <pt x="423" y="680" on="1"/>
        <pt x="423" y="674" on="0"/>
        <pt x="416" y="662" on="0"/>
        <pt x="411" y="662" on="1"/>
        <pt x="378" y="658" on="0"/>
        <pt x="341" y="645" on="0"/>
        <pt x="320" y="624" on="0"/>
        <pt x="311" y="596" on="0"/>
        <pt x="307" y="577" on="1"/>
        <pt x="256" y="361" on="1"/>
        <pt x="591" y="361" on="1"/>
        <pt x="642" y="577" on="1"/>
        <pt x="648" y="596" on="0"/>
        <pt x="648" y="611" on="1"/>
        <pt x="648" y="621" on="0"/>
        <pt x="644" y="638" on="0"/>
        <pt x="628" y="650" on="0"/>
        <pt x="597" y="659" on="0"/>
        <pt x="571" y="662" on="1"/>
        <pt x="566" y="662" on="0"/>
        <pt x="566" y="670" on="1"/>
        <pt x="566" y="677" on="0"/>
        <pt x="573" y="690" on="0"/>
        <pt x="578" y="690" on="1"/>
        <pt x="603" y="690" on="0"/>
        <pt x="638" y="688" on="0"/>
        <pt x="668" y="686" on="0"/>
        <pt x="699" y="684" on="0"/>
        <pt x="719" y="684" on="1"/>
        <pt x="758" y="684" on="0"/>
        <pt x="822" y="690" on="0"/>
        <pt x="866" y="690" on="1"/>
        <pt x="872" y="690" on="0"/>
      </contour>
    </TTGlyph>
    <TTGlyph name="H.sc" xMin="1" yMin="-6" xMax="626" yMax="456">
      <component glyphName="h.sc" x="0" y="0" flags="0x204"/>
    </TTGlyph>
    <TTGlyph name="H.swa" xMin="-25" yMin="-95" xMax="1135" yMax="739">
      <contour>
        <pt x="1135" y="667" on="1"/>
        <pt x="1135" y="647" on="0"/>
        <pt x="1107" y="621" on="0"/>
        <pt x="1084" y="621" on="1"/>
        <pt x="1058" y="621" on="0"/>
        <pt x="1029" y="641" on="0"/>
        <pt x="1008" y="664" on="0"/>
        <pt x="988" y="684" on="0"/>
        <pt x="971" y="684" on="1"/>
        <pt x="946" y="684" on="0"/>
        <pt x="912" y="670" on="0"/>
        <pt x="882" y="611" on="0"/>
        <pt x="848" y="493" on="0"/>
        <pt x="823" y="389" on="1"/>
        <pt x="756" y="107" on="1"/>
        <pt x="754" y="97" on="0"/>
        <pt x="750" y="80" on="0"/>
        <pt x="750" y="73" on="1"/>
        <pt x="750" y="52" on="0"/>
        <pt x="786" y="29" on="0"/>
        <pt x="839" y="23" on="1"/>
        <pt x="844" y="22" on="0"/>
        <pt x="844" y="14" on="1"/>
        <pt x="844" y="7" on="0"/>
        <pt x="838" y="-6" on="0"/>
        <pt x="833" y="-6" on="1"/>
        <pt x="808" y="-6" on="0"/>
        <pt x="769" y="-4" on="0"/>
        <pt x="734" y="-2" on="0"/>
        <pt x="700" y="0" on="0"/>
        <pt x="680" y="0" on="1"/>
        <pt x="660" y="0" on="0"/>
        <pt x="629" y="-2" on="0"/>
        <pt x="599" y="-4" on="0"/>
        <pt x="566" y="-6" on="0"/>
        <pt x="544" y="-6" on="1"/>
        <pt x="539" y="-6" on="0"/>
        <pt x="539" y="4" on="1"/>
        <pt x="539" y="10" on="0"/>
        <pt x="545" y="22" on="0"/>
        <pt x="550" y="23" on="1"/>
        <pt x="583" y="27" on="0"/>
        <pt x="621" y="40" on="0"/>
        <pt x="641" y="60" on="0"/>
        <pt x="649" y="88" on="0"/>
        <pt x="654" y="107" on="1"/>
        <pt x="707" y="329" on="1"/>
        <pt x="432" y="329" on="1"/>
        <pt x="420" y="283" on="1"/>
        <pt x="403" y="213" on="0"/>
        <pt x="337" y="77" on="0"/>
        <pt x="247" y="-29" on="0"/>
        <pt x="134" y="-95" on="0"/>
        <pt x="71" y="-95" on="1"/>
        <pt x="55" y="-95" on="0"/>
        <pt x="21" y="-86" on="0"/>
        <pt x="-7" y="-68" on="0"/>
        <pt x="-25" y="-41" on="0"/>
        <pt x="-25" y="-23" on="1"/>
        <pt x="-25" y="-3" on="0"/>
        <pt x="3" y="23" on="0"/>
        <pt x="26" y="23" on="1"/>
        <pt x="52" y="23" on="0"/>
        <pt x="81" y="3" on="0"/>
        <pt x="102" y="-20" on="0"/>
        <pt x="122" y="-40" on="0"/>
        <pt x="139" y="-40" on="1"/>
        <pt x="161" y="-40" on="0"/>
        <pt x="204" y="-17" on="0"/>
        <pt x="246" y="48" on="0"/>
        <pt x="289" y="163" on="0"/>
        <pt x="311" y="255" on="1"/>
        <pt x="402" y="631" on="1"/>
        <pt x="388" y="631" on="0"/>
        <pt x="355" y="638" on="0"/>
        <pt x="317" y="647" on="0"/>
        <pt x="275" y="654" on="0"/>
        <pt x="253" y="654" on="1"/>
        <pt x="230" y="654" on="0"/>
        <pt x="188" y="643" on="0"/>
        <pt x="155" y="621" on="0"/>
        <pt x="135" y="588" on="0"/>
        <pt x="135" y="565" on="1"/>
        <pt x="135" y="549" on="0"/>
        <pt x="154" y="534" on="0"/>
        <pt x="177" y="521" on="0"/>
        <pt x="196" y="504" on="0"/>
        <pt x="196" y="487" on="1"/>
        <pt x="196" y="464" on="0"/>
        <pt x="169" y="434" on="0"/>
        <pt x="140" y="434" on="1"/>
        <pt x="111" y="434" on="0"/>
        <pt x="68" y="483" on="0"/>
        <pt x="68" y="524" on="1"/>
        <pt x="68" y="558" on="0"/>
        <pt x="90" y="623" on="0"/>
        <pt x="138" y="673" on="0"/>
        <pt x="214" y="704" on="0"/>
        <pt x="269" y="704" on="1"/>
        <pt x="291" y="704" on="0"/>
        <pt x="324" y="698" on="0"/>
        <pt x="356" y="690" on="0"/>
        <pt x="390" y="684" on="0"/>
        <pt x="413" y="684" on="1"/>
        <pt x="436" y="684" on="0"/>
        <pt x="474" y="689" on="0"/>
        <pt x="497" y="690" on="1"/>
        <pt x="510" y="691" on="0"/>
        <pt x="515" y="674" on="0"/>
        <pt x="513" y="665" on="1"/>
        <pt x="439" y="361" on="1"/>
        <pt x="715" y="361" on="1"/>
        <pt x="741" y="471" on="0"/>
        <pt x="812" y="617" on="0"/>
        <pt x="896" y="704" on="0"/>
        <pt x="990" y="739" on="0"/>
        <pt x="1039" y="739" on="1"/>
        <pt x="1055" y="739" on="0"/>
        <pt x="1089" y="730" on="0"/>
        <pt x="1117" y="712" on="0"/>
        <pt x="1135" y="685" on="0"/>
      </contour>
    </TTGlyph>
    <TTGlyph name="H.swa2" xMin="-15" yMin="-95" xMax="1307" yMax="739">
      <contour>
        <pt x="1307" y="667" on="1"/>
        <pt x="1307" y="647" on="0"/>
        <pt x="1279" y="621" on="0"/>
        <pt x="1256" y="621" on="1"/>
        <pt x="1230" y="621" on="0"/>
        <pt x="1201" y="641" on="0"/>
        <pt x="1180" y="664" on="0"/>
        <pt x="1160" y="684" on="0"/>
        <pt x="1143" y="684" on="1"/>
        <pt x="1121" y="684" on="0"/>
        <pt x="1078" y="661" on="0"/>
        <pt x="1036" y="596" on="0"/>
        <pt x="993" y="481" on="0"/>
        <pt x="971" y="389" on="1"/>
        <pt x="904" y="107" on="1"/>
        <pt x="898" y="87" on="0"/>
        <pt x="898" y="73" on="1"/>
        <pt x="898" y="52" on="0"/>
        <pt x="934" y="29" on="0"/>
        <pt x="987" y="23" on="1"/>
        <pt x="992" y="22" on="0"/>
        <pt x="992" y="14" on="1"/>
        <pt x="992" y="7" on="0"/>
        <pt x="985" y="-6" on="0"/>
        <pt x="980" y="-6" on="1"/>
        <pt x="955" y="-6" on="0"/>
        <pt x="916" y="-4" on="0"/>
        <pt x="882" y="-2" on="0"/>
        <pt x="847" y="0" on="0"/>
        <pt x="827" y="0" on="1"/>
        <pt x="807" y="0" on="0"/>
        <pt x="777" y="-2" on="0"/>
        <pt x="747" y="-4" on="0"/>
        <pt x="714" y="-6" on="0"/>
        <pt x="692" y="-6" on="1"/>
        <pt x="686" y="-6" on="0"/>
        <pt x="686" y="4" on="1"/>
        <pt x="686" y="10" on="0"/>
        <pt x="693" y="22" on="0"/>
        <pt x="698" y="23" on="1"/>
        <pt x="731" y="27" on="0"/>
        <pt x="769" y="40" on="0"/>
        <pt x="789" y="60" on="0"/>
        <pt x="797" y="88" on="0"/>
        <pt x="802" y="107" on="1"/>
        <pt x="855" y="329" on="1"/>
        <pt x="587" y="329" on="1"/>
        <pt x="567" y="243" on="0"/>
        <pt x="501" y="90" on="0"/>
        <pt x="411" y="-27" on="0"/>
        <pt x="297" y="-95" on="0"/>
        <pt x="228" y="-95" on="1"/>
        <pt x="176" y="-95" on="0"/>
        <pt x="87" y="-65" on="0"/>
        <pt x="22" y="-9" on="0"/>
        <pt x="-15" y="70" on="0"/>
        <pt x="-15" y="118" on="1"/>
        <pt x="-15" y="154" on="0"/>
        <pt x="16" y="221" on="0"/>
        <pt x="67" y="274" on="0"/>
        <pt x="132" y="305" on="0"/>
        <pt x="165" y="305" on="1"/>
        <pt x="196" y="305" on="0"/>
        <pt x="250" y="284" on="0"/>
        <pt x="289" y="247" on="0"/>
        <pt x="312" y="197" on="0"/>
        <pt x="312" y="169" on="1"/>
        <pt x="312" y="150" on="0"/>
        <pt x="301" y="107" on="0"/>
        <pt x="278" y="70" on="0"/>
        <pt x="244" y="45" on="0"/>
        <pt x="220" y="45" on="1"/>
        <pt x="197" y="45" on="0"/>
        <pt x="173" y="77" on="0"/>
        <pt x="173" y="95" on="1"/>
        <pt x="173" y="116" on="0"/>
        <pt x="193" y="143" on="0"/>
        <pt x="218" y="166" on="0"/>
        <pt x="238" y="190" on="0"/>
        <pt x="238" y="207" on="1"/>
        <pt x="238" y="220" on="0"/>
        <pt x="226" y="244" on="0"/>
        <pt x="206" y="262" on="0"/>
        <pt x="180" y="273" on="0"/>
        <pt x="165" y="273" on="1"/>
        <pt x="144" y="273" on="0"/>
        <pt x="104" y="252" on="0"/>
        <pt x="73" y="213" on="0"/>
        <pt x="53" y="160" on="0"/>
        <pt x="53" y="127" on="1"/>
        <pt x="53" y="93" on="0"/>
        <pt x="82" y="35" on="0"/>
        <pt x="130" y="-8" on="0"/>
        <pt x="193" y="-32" on="0"/>
        <pt x="228" y="-32" on="1"/>
        <pt x="243" y="-32" on="0"/>
        <pt x="282" y="-27" on="0"/>
        <pt x="324" y="-9" on="0"/>
        <pt x="369" y="28" on="0"/>
        <pt x="412" y="92" on="0"/>
        <pt x="452" y="187" on="0"/>
        <pt x="468" y="255" on="1"/>
        <pt x="559" y="636" on="1"/>
        <pt x="530" y="641" on="0"/>
        <pt x="476" y="654" on="0"/>
        <pt x="444" y="654" on="1"/>
        <pt x="404" y="654" on="0"/>
        <pt x="319" y="636" on="0"/>
        <pt x="249" y="597" on="0"/>
        <pt x="204" y="535" on="0"/>
        <pt x="204" y="491" on="1"/>
        <pt x="204" y="461" on="0"/>
        <pt x="243" y="417" on="0"/>
        <pt x="275" y="417" on="1"/>
        <pt x="291" y="417" on="0"/>
        <pt x="306" y="436" on="0"/>
        <pt x="319" y="460" on="0"/>
        <pt x="336" y="479" on="0"/>
        <pt x="354" y="479" on="1"/>
        <pt x="376" y="479" on="0"/>
        <pt x="406" y="452" on="0"/>
        <pt x="406" y="423" on="1"/>
        <pt x="406" y="394" on="0"/>
        <pt x="357" y="351" on="0"/>
        <pt x="316" y="351" on="1"/>
        <pt x="285" y="351" on="0"/>
        <pt x="232" y="371" on="0"/>
        <pt x="194" y="407" on="0"/>
        <pt x="172" y="459" on="0"/>
        <pt x="172" y="491" on="1"/>
        <pt x="172" y="543" on="0"/>
        <pt x="221" y="622" on="0"/>
        <pt x="299" y="676" on="0"/>
        <pt x="396" y="704" on="0"/>
        <pt x="444" y="704" on="1"/>
        <pt x="470" y="704" on="0"/>
        <pt x="515" y="698" on="0"/>
        <pt x="557" y="690" on="0"/>
        <pt x="598" y="684" on="0"/>
        <pt x="621" y="684" on="1"/>
        <pt x="630" y="684" on="0"/>
        <pt x="645" y="685" on="0"/>
        <pt x="653" y="685" on="1"/>
        <pt x="661" y="686" on="0"/>
        <pt x="671" y="673" on="0"/>
        <pt x="669" y="665" on="1"/>
        <pt x="595" y="361" on="1"/>
        <pt x="862" y="361" on="1"/>
        <pt x="879" y="431" on="0"/>
        <pt x="945" y="567" on="0"/>
        <pt x="1035" y="673" on="0"/>
        <pt x="1148" y="739" on="0"/>
        <pt x="1211" y="739" on="1"/>
        <pt x="1227" y="739" on="0"/>
        <pt x="1261" y="730" on="0"/>
        <pt x="1289" y="712" on="0"/>
        <pt x="1307" y="685" on="0"/>
      </contour>
    </TTGlyph>
    <TTGlyph name="Hbar" xMin="-34" yMin="-6" xMax="872" yMax="690">
      <contour>
        <pt x="872" y="680" on="1"/>
        <pt x="872" y="674" on="0"/>
        <pt x="865" y="662" on="0"/>
        <pt x="860" y="662" on="1"/>
        <pt x="822" y="657" on="0"/>
        <pt x="780" y="644" on="0"/>
        <pt x="758" y="625" on="0"/>
        <pt x="748" y="596" on="0"/>
        <pt x="744" y="577" on="1"/>
        <pt x="735" y="540" on="1"/>
        <pt x="834" y="540" on="1"/>
        <pt x="847" y="540" on="0"/>
        <pt x="847" y="522" on="1"/>
        <pt x="847" y="504" on="0"/>
        <pt x="834" y="504" on="1"/>
        <pt x="726" y="504" on="1"/>
        <pt x="632" y="106" on="1"/>
        <pt x="630" y="96" on="0"/>
        <pt x="627" y="80" on="0"/>
        <pt x="627" y="72" on="1"/>
        <pt x="627" y="51" on="0"/>
        <pt x="663" y="28" on="0"/>
        <pt x="716" y="22" on="1"/>
        <pt x="721" y="20" on="0"/>
        <pt x="721" y="13" on="1"/>
        <pt x="721" y="6" on="0"/>
        <pt x="714" y="-6" on="0"/>
        <pt x="709" y="-6" on="1"/>
        <pt x="684" y="-6" on="0"/>
        <pt x="645" y="-4" on="0"/>
        <pt x="610" y="-2" on="0"/>
        <pt x="576" y="0" on="0"/>
        <pt x="556" y="0" on="1"/>
        <pt x="536" y="0" on="0"/>
        <pt x="506" y="-2" on="0"/>
        <pt x="476" y="-4" on="0"/>
        <pt x="442" y="-6" on="0"/>
        <pt x="420" y="-6" on="1"/>
        <pt x="418" y="-6" on="0"/>
        <pt x="415" y="-3" on="0"/>
        <pt x="415" y="3" on="1"/>
        <pt x="415" y="10" on="0"/>
        <pt x="422" y="21" on="0"/>
        <pt x="427" y="22" on="1"/>
        <pt x="460" y="26" on="0"/>
        <pt x="497" y="39" on="0"/>
        <pt x="518" y="59" on="0"/>
        <pt x="526" y="87" on="0"/>
        <pt x="531" y="106" on="1"/>
        <pt x="583" y="329" on="1"/>
        <pt x="248" y="329" on="1"/>
        <pt x="196" y="106" on="1"/>
        <pt x="190" y="86" on="0"/>
        <pt x="190" y="72" on="1"/>
        <pt x="190" y="61" on="0"/>
        <pt x="194" y="45" on="0"/>
        <pt x="210" y="33" on="0"/>
        <pt x="241" y="25" on="0"/>
        <pt x="267" y="22" on="1"/>
        <pt x="272" y="21" on="0"/>
        <pt x="272" y="13" on="1"/>
        <pt x="272" y="6" on="0"/>
        <pt x="265" y="-6" on="0"/>
        <pt x="260" y="-6" on="1"/>
        <pt x="235" y="-6" on="0"/>
        <pt x="200" y="-4" on="0"/>
        <pt x="170" y="-2" on="0"/>
        <pt x="139" y="0" on="0"/>
        <pt x="119" y="0" on="1"/>
        <pt x="80" y="0" on="0"/>
        <pt x="16" y="-6" on="0"/>
        <pt x="-29" y="-6" on="1"/>
        <pt x="-31" y="-6" on="0"/>
        <pt x="-34" y="-3" on="0"/>
        <pt x="-34" y="3" on="1"/>
        <pt x="-34" y="10" on="0"/>
        <pt x="-27" y="21" on="0"/>
        <pt x="-22" y="22" on="1"/>
        <pt x="15" y="26" on="0"/>
        <pt x="58" y="39" on="0"/>
        <pt x="80" y="59" on="0"/>
        <pt x="89" y="87" on="0"/>
        <pt x="94" y="106" on="1"/>
        <pt x="188" y="504" on="1"/>
        <pt x="88" y="504" on="1"/>
        <pt x="76" y="504" on="0"/>
        <pt x="76" y="522" on="1"/>
        <pt x="76" y="540" on="0"/>
        <pt x="88" y="540" on="1"/>
        <pt x="197" y="540" on="1"/>
        <pt x="206" y="577" on="1"/>
        <pt x="208" y="587" on="0"/>
        <pt x="211" y="603" on="0"/>
        <pt x="211" y="611" on="1"/>
        <pt x="211" y="632" on="0"/>
        <pt x="174" y="655" on="0"/>
        <pt x="122" y="662" on="1"/>
        <pt x="117" y="662" on="0"/>
        <pt x="117" y="670" on="1"/>
        <pt x="117" y="677" on="0"/>
        <pt x="124" y="690" on="0"/>
        <pt x="129" y="690" on="1"/>
        <pt x="154" y="690" on="0"/>
        <pt x="193" y="688" on="0"/>
        <pt x="228" y="686" on="0"/>
        <pt x="262" y="684" on="0"/>
        <pt x="282" y="684" on="1"/>
        <pt x="301" y="684" on="0"/>
        <pt x="332" y="686" on="0"/>
        <pt x="362" y="688" on="0"/>
        <pt x="395" y="690" on="0"/>
        <pt x="418" y="690" on="1"/>
        <pt x="423" y="690" on="0"/>
        <pt x="423" y="680" on="1"/>
        <pt x="423" y="674" on="0"/>
        <pt x="416" y="662" on="0"/>
        <pt x="411" y="662" on="1"/>
        <pt x="378" y="658" on="0"/>
        <pt x="341" y="645" on="0"/>
        <pt x="320" y="624" on="0"/>
        <pt x="311" y="596" on="0"/>
        <pt x="307" y="577" on="1"/>
        <pt x="298" y="539" on="1"/>
        <pt x="633" y="539" on="1"/>
        <pt x="642" y="577" on="1"/>
        <pt x="648" y="596" on="0"/>
        <pt x="648" y="611" on="1"/>
        <pt x="648" y="621" on="0"/>
        <pt x="644" y="638" on="0"/>
        <pt x="628" y="650" on="0"/>
        <pt x="597" y="659" on="0"/>
        <pt x="571" y="662" on="1"/>
        <pt x="566" y="662" on="0"/>
        <pt x="566" y="670" on="1"/>
        <pt x="566" y="677" on="0"/>
        <pt x="573" y="690" on="0"/>
        <pt x="578" y="690" on="1"/>
        <pt x="603" y="690" on="0"/>
        <pt x="638" y="688" on="0"/>
        <pt x="668" y="686" on="0"/>
        <pt x="699" y="684" on="0"/>
        <pt x="719" y="684" on="1"/>
        <pt x="758" y="684" on="0"/>
        <pt x="822" y="690" on="0"/>
        <pt x="866" y="690" on="1"/>
        <pt x="872" y="690" on="0"/>
      </contour>
      <contour>
        <pt x="591" y="361" on="1"/>
        <pt x="625" y="505" on="1"/>
        <pt x="290" y="505" on="1"/>
        <pt x="256" y="361" on="1"/>
      </contour>
    </TTGlyph>
    <TTGlyph name="Hbar.sc" xMin="1" yMin="-6" xMax="626" yMax="456">
      <component glyphName="hbar.sc" x="0" y="0" flags="0x204"/>
    </TTGlyph>
    <TTGlyph name="Hbar.swa" xMin="-25" yMin="-95" xMax="1135" yMax="739">
      <contour>
        <pt x="1135" y="667" on="1"/>
        <pt x="1135" y="647" on="0"/>
        <pt x="1107" y="621" on="0"/>
        <pt x="1084" y="621" on="1"/>
        <pt x="1058" y="621" on="0"/>
        <pt x="1029" y="641" on="0"/>
        <pt x="1008" y="664" on="0"/>
        <pt x="988" y="684" on="0"/>
        <pt x="971" y="684" on="1"/>
        <pt x="952" y="684" on="0"/>
        <pt x="923" y="676" on="0"/>
        <pt x="898" y="647" on="0"/>
        <pt x="875" y="590" on="0"/>
        <pt x="861" y="540" on="1"/>
        <pt x="960" y="540" on="1"/>
        <pt x="973" y="540" on="0"/>
        <pt x="973" y="522" on="1"/>
        <pt x="973" y="504" on="0"/>
        <pt x="960" y="504" on="1"/>
        <pt x="851" y="504" on="1"/>
        <pt x="845" y="479" on="0"/>
        <pt x="831" y="423" on="0"/>
        <pt x="823" y="389" on="1"/>
        <pt x="756" y="107" on="1"/>
        <pt x="754" y="97" on="0"/>
        <pt x="750" y="80" on="0"/>
        <pt x="750" y="73" on="1"/>
        <pt x="750" y="52" on="0"/>
        <pt x="786" y="29" on="0"/>
        <pt x="839" y="23" on="1"/>
        <pt x="844" y="22" on="0"/>
        <pt x="844" y="14" on="1"/>
        <pt x="844" y="7" on="0"/>
        <pt x="838" y="-6" on="0"/>
        <pt x="833" y="-6" on="1"/>
        <pt x="808" y="-6" on="0"/>
        <pt x="769" y="-4" on="0"/>
        <pt x="734" y="-2" on="0"/>
        <pt x="700" y="0" on="0"/>
        <pt x="680" y="0" on="1"/>
        <pt x="660" y="0" on="0"/>
        <pt x="629" y="-2" on="0"/>
        <pt x="599" y="-4" on="0"/>
        <pt x="566" y="-6" on="0"/>
        <pt x="544" y="-6" on="1"/>
        <pt x="539" y="-6" on="0"/>
        <pt x="539" y="4" on="1"/>
        <pt x="539" y="10" on="0"/>
        <pt x="545" y="22" on="0"/>
        <pt x="550" y="23" on="1"/>
        <pt x="583" y="27" on="0"/>
        <pt x="621" y="40" on="0"/>
        <pt x="641" y="60" on="0"/>
        <pt x="649" y="88" on="0"/>
        <pt x="654" y="107" on="1"/>
        <pt x="707" y="329" on="1"/>
        <pt x="432" y="329" on="1"/>
        <pt x="420" y="283" on="1"/>
        <pt x="403" y="213" on="0"/>
        <pt x="337" y="77" on="0"/>
        <pt x="247" y="-29" on="0"/>
        <pt x="134" y="-95" on="0"/>
        <pt x="71" y="-95" on="1"/>
        <pt x="55" y="-95" on="0"/>
        <pt x="21" y="-86" on="0"/>
        <pt x="-7" y="-68" on="0"/>
        <pt x="-25" y="-41" on="0"/>
        <pt x="-25" y="-23" on="1"/>
        <pt x="-25" y="-3" on="0"/>
        <pt x="3" y="23" on="0"/>
        <pt x="26" y="23" on="1"/>
        <pt x="52" y="23" on="0"/>
        <pt x="81" y="3" on="0"/>
        <pt x="102" y="-20" on="0"/>
        <pt x="122" y="-40" on="0"/>
        <pt x="139" y="-40" on="1"/>
        <pt x="161" y="-40" on="0"/>
        <pt x="204" y="-17" on="0"/>
        <pt x="246" y="48" on="0"/>
        <pt x="289" y="163" on="0"/>
        <pt x="311" y="255" on="1"/>
        <pt x="371" y="504" on="1"/>
        <pt x="272" y="504" on="1"/>
        <pt x="260" y="504" on="0"/>
        <pt x="260" y="522" on="1"/>
        <pt x="260" y="540" on="0"/>
        <pt x="272" y="540" on="1"/>
        <pt x="380" y="540" on="1"/>
        <pt x="402" y="631" on="1"/>
        <pt x="388" y="631" on="0"/>
        <pt x="355" y="638" on="0"/>
        <pt x="317" y="647" on="0"/>
        <pt x="275" y="654" on="0"/>
        <pt x="253" y="654" on="1"/>
        <pt x="230" y="654" on="0"/>
        <pt x="188" y="643" on="0"/>
        <pt x="155" y="621" on="0"/>
        <pt x="135" y="588" on="0"/>
        <pt x="135" y="565" on="1"/>
        <pt x="135" y="549" on="0"/>
        <pt x="154" y="534" on="0"/>
        <pt x="177" y="521" on="0"/>
        <pt x="196" y="504" on="0"/>
        <pt x="196" y="487" on="1"/>
        <pt x="196" y="464" on="0"/>
        <pt x="169" y="434" on="0"/>
        <pt x="140" y="434" on="1"/>
        <pt x="111" y="434" on="0"/>
        <pt x="68" y="483" on="0"/>
        <pt x="68" y="524" on="1"/>
        <pt x="68" y="558" on="0"/>
        <pt x="90" y="623" on="0"/>
        <pt x="138" y="673" on="0"/>
        <pt x="214" y="704" on="0"/>
        <pt x="269" y="704" on="1"/>
        <pt x="291" y="704" on="0"/>
        <pt x="324" y="698" on="0"/>
        <pt x="356" y="690" on="0"/>
        <pt x="390" y="684" on="0"/>
        <pt x="413" y="684" on="1"/>
        <pt x="436" y="684" on="0"/>
        <pt x="474" y="689" on="0"/>
        <pt x="497" y="690" on="1"/>
        <pt x="510" y="691" on="0"/>
        <pt x="515" y="674" on="0"/>
        <pt x="513" y="665" on="1"/>
        <pt x="482" y="539" on="1"/>
        <pt x="774" y="539" on="1"/>
        <pt x="800" y="596" on="0"/>
        <pt x="862" y="672" on="0"/>
        <pt x="929" y="719" on="0"/>
        <pt x="1002" y="739" on="0"/>
        <pt x="1039" y="739" on="1"/>
        <pt x="1055" y="739" on="0"/>
        <pt x="1089" y="730" on="0"/>
        <pt x="1117" y="712" on="0"/>
        <pt x="1135" y="685" on="0"/>
      </contour>
      <contour>
        <pt x="715" y="361" on="1"/>
        <pt x="725" y="403" on="0"/>
        <pt x="747" y="473" on="0"/>
        <pt x="759" y="505" on="1"/>
        <pt x="474" y="505" on="1"/>
        <pt x="439" y="361" on="1"/>
      </contour>
    </TTGlyph>
    <TTGlyph name="I" xMin="-4" yMin="-6" xMax="465" yMax="690">
      <contour>
        <pt x="465" y="680" on="1"/>
        <pt x="465" y="674" on="0"/>
        <pt x="458" y="662" on="0"/>
        <pt x="453" y="662" on="1"/>
        <pt x="416" y="657" on="0"/>
        <pt x="374" y="644" on="0"/>
        <pt x="352" y="625" on="0"/>
        <pt x="342" y="596" on="0"/>
        <pt x="338" y="577" on="1"/>
        <pt x="226" y="106" on="1"/>
        <pt x="224" y="96" on="0"/>
        <pt x="220" y="80" on="0"/>
        <pt x="220" y="72" on="1"/>
        <pt x="220" y="51" on="0"/>
        <pt x="256" y="28" on="0"/>
        <pt x="309" y="22" on="1"/>
        <pt x="314" y="21" on="0"/>
        <pt x="314" y="13" on="1"/>
        <pt x="314" y="6" on="0"/>
        <pt x="308" y="-6" on="0"/>
        <pt x="303" y="-6" on="1"/>
        <pt x="278" y="-6" on="0"/>
        <pt x="239" y="-4" on="0"/>
        <pt x="204" y="-2" on="0"/>
        <pt x="170" y="0" on="0"/>
        <pt x="150" y="0" on="1"/>
        <pt x="130" y="0" on="0"/>
        <pt x="95" y="-2" on="0"/>
        <pt x="61" y="-4" on="0"/>
        <pt x="24" y="-6" on="0"/>
        <pt x="2" y="-6" on="1"/>
        <pt x="0" y="-6" on="0"/>
        <pt x="-4" y="-3" on="0"/>
        <pt x="-4" y="3" on="1"/>
        <pt x="-4" y="10" on="0"/>
        <pt x="3" y="21" on="0"/>
        <pt x="8" y="22" on="1"/>
        <pt x="45" y="26" on="0"/>
        <pt x="88" y="39" on="0"/>
        <pt x="110" y="59" on="0"/>
        <pt x="119" y="87" on="0"/>
        <pt x="124" y="106" on="1"/>
        <pt x="236" y="577" on="1"/>
        <pt x="238" y="587" on="0"/>
        <pt x="241" y="603" on="0"/>
        <pt x="241" y="611" on="1"/>
        <pt x="241" y="632" on="0"/>
        <pt x="205" y="655" on="0"/>
        <pt x="152" y="662" on="1"/>
        <pt x="147" y="662" on="0"/>
        <pt x="147" y="670" on="1"/>
        <pt x="147" y="677" on="0"/>
        <pt x="154" y="690" on="0"/>
        <pt x="159" y="690" on="1"/>
        <pt x="184" y="690" on="0"/>
        <pt x="223" y="688" on="0"/>
        <pt x="258" y="686" on="0"/>
        <pt x="292" y="684" on="0"/>
        <pt x="312" y="684" on="1"/>
        <pt x="351" y="684" on="0"/>
        <pt x="415" y="690" on="0"/>
        <pt x="460" y="690" on="1"/>
        <pt x="465" y="690" on="0"/>
      </contour>
    </TTGlyph>
    <TTGlyph name="I.sc" xMin="11" yMin="-6" xMax="343" yMax="456">
      <component glyphName="i.sc" x="0" y="0" flags="0x204"/>
    </TTGlyph>
    <TTGlyph name="Iacute" xMin="-4" yMin="-6" xMax="507" yMax="924">
      <component glyphName="I" x="0" y="0" flags="0x204"/>
      <component glyphName="acute.cap" x="189" y="0" flags="0x4"/>
    </TTGlyph>
    <TTGlyph name="Iacute.sc" xMin="11" yMin="-6" xMax="420" yMax="692">
      <component glyphName="i.sc" x="0" y="0" flags="0x204"/>
      <component glyphName="acute" x="92" y="15" flags="0x4"/>
    </TTGlyph>
    <TTGlyph name="Ibreve" xMin="-4" yMin="-6" xMax="483" yMax="895">
      <component glyphName="I" x="0" y="0" flags="0x204"/>
      <component glyphName="breve.cap" x="39" y="0" flags="0x4"/>
    </TTGlyph>
    <TTGlyph name="Ibreve.sc" xMin="11" yMin="-6" xMax="407" yMax="681">
      <component glyphName="i.sc" x="0" y="0" flags="0x204"/>
      <component glyphName="breve" x="19" y="15" flags="0x4"/>
    </TTGlyph>
    <TTGlyph name="Icircumflex" xMin="-4" yMin="-6" xMax="491" yMax="929">
      <component glyphName="I" x="0" y="0" flags="0x204"/>
      <component glyphName="circumflex.cap" x="86" y="0" flags="0x4"/>
    </TTGlyph>
    <TTGlyph name="Icircumflex.sc" xMin="11" yMin="-6" xMax="366" yMax="698">
      <component glyphName="i.sc" x="0" y="0" flags="0x204"/>
      <component glyphName="circumflex" x="33" y="15" flags="0x4"/>
    </TTGlyph>
    <TTGlyph name="Idieresis" xMin="-4" yMin="-6" xMax="501" yMax="868">
      <component glyphName="I" x="0" y="0" flags="0x204"/>
      <component glyphName="dieresis.cap" x="71" y="0" flags="0x4"/>
    </TTGlyph>
    <TTGlyph name="Idieresis.sc" xMin="11" yMin="-6" xMax="400" yMax="645">
      <component glyphName="i.sc" x="0" y="0" flags="0x204"/>
      <component glyphName="dieresis" x="22" y="15" flags="0x4"/>
    </TTGlyph>
    <TTGlyph name="Idotaccent" xMin="-4" yMin="-6" xMax="465" yMax="868">
      <component glyphName="I" x="0" y="0" flags="0x204"/>
      <component glyphName="dotaccent.cap" x="60" y="0" flags="0x4"/>
    </TTGlyph>
    <TTGlyph name="Idotaccent.sc" xMin="11" yMin="-6" xMax="343" yMax="645">
      <component glyphName="i.sc" x="0" y="0" flags="0x204"/>
      <component glyphName="dotaccent" x="35" y="15" flags="0x4"/>
    </TTGlyph>
    <TTGlyph name="Igrave" xMin="-4" yMin="-6" xMax="465" yMax="924">
      <component glyphName="I" x="0" y="0" flags="0x204"/>
      <component glyphName="grave.cap" x="44" y="0" flags="0x4"/>
    </TTGlyph>
    <TTGlyph name="Igrave.sc" xMin="11" yMin="-6" xMax="343" yMax="687">
      <component glyphName="i.sc" x="0" y="0" flags="0x204"/>
      <component glyphName="grave" x="-41" y="15" flags="0x4"/>
    </TTGlyph>
    <TTGlyph name="Imacron" xMin="-4" yMin="-6" xMax="516" yMax="844">
      <component glyphName="I" x="0" y="0" flags="0x204"/>
      <component glyphName="macron.cap" x="64" y="0" flags="0x4"/>
    </TTGlyph>
    <TTGlyph name="Imacron.sc" xMin="11" yMin="-6" xMax="397" yMax="613">
      <component glyphName="i.sc" x="0" y="0" flags="0x204"/>
      <component glyphName="macron" x="34" y="15" flags="0x4"/>
    </TTGlyph>
    <TTGlyph name="Iogonek" xMin="-4" yMin="-225" xMax="465" yMax="690">
      <contour>
        <pt x="219" y="-179" on="1"/>
        <pt x="207" y="-199" on="0"/>
        <pt x="155" y="-225" on="0"/>
        <pt x="123" y="-225" on="1"/>
        <pt x="98" y="-225" on="0"/>
        <pt x="64" y="-210" on="0"/>
        <pt x="44" y="-186" on="0"/>
        <pt x="35" y="-158" on="0"/>
        <pt x="35" y="-144" on="1"/>
        <pt x="35" y="-106" on="0"/>
        <pt x="88" y="-36" on="0"/>
        <pt x="131" y="0" on="1"/>
        <pt x="99" y="-1" on="0"/>
        <pt x="41" y="-6" on="0"/>
        <pt x="2" y="-6" on="1"/>
        <pt x="0" y="-6" on="0"/>
        <pt x="-4" y="-3" on="0"/>
        <pt x="-4" y="3" on="1"/>
        <pt x="-4" y="10" on="0"/>
        <pt x="3" y="21" on="0"/>
        <pt x="8" y="22" on="1"/>
        <pt x="45" y="26" on="0"/>
        <pt x="88" y="39" on="0"/>
        <pt x="110" y="59" on="0"/>
        <pt x="119" y="87" on="0"/>
        <pt x="124" y="106" on="1"/>
        <pt x="236" y="577" on="1"/>
        <pt x="238" y="587" on="0"/>
        <pt x="241" y="603" on="0"/>
        <pt x="241" y="611" on="1"/>
        <pt x="241" y="632" on="0"/>
        <pt x="205" y="655" on="0"/>
        <pt x="152" y="662" on="1"/>
        <pt x="147" y="662" on="0"/>
        <pt x="147" y="670" on="1"/>
        <pt x="147" y="677" on="0"/>
        <pt x="154" y="690" on="0"/>
        <pt x="159" y="690" on="1"/>
        <pt x="184" y="690" on="0"/>
        <pt x="223" y="688" on="0"/>
        <pt x="258" y="686" on="0"/>
        <pt x="292" y="684" on="0"/>
        <pt x="312" y="684" on="1"/>
        <pt x="351" y="684" on="0"/>
        <pt x="415" y="690" on="0"/>
        <pt x="460" y="690" on="1"/>
        <pt x="465" y="690" on="0"/>
        <pt x="465" y="680" on="1"/>
        <pt x="465" y="674" on="0"/>
        <pt x="458" y="662" on="0"/>
        <pt x="453" y="662" on="1"/>
        <pt x="416" y="657" on="0"/>
        <pt x="374" y="644" on="0"/>
        <pt x="352" y="625" on="0"/>
        <pt x="342" y="596" on="0"/>
        <pt x="338" y="577" on="1"/>
        <pt x="226" y="106" on="1"/>
        <pt x="224" y="96" on="0"/>
        <pt x="220" y="80" on="0"/>
        <pt x="220" y="72" on="1"/>
        <pt x="220" y="51" on="0"/>
        <pt x="256" y="28" on="0"/>
        <pt x="309" y="22" on="1"/>
        <pt x="314" y="21" on="0"/>
        <pt x="314" y="13" on="1"/>
        <pt x="314" y="6" on="0"/>
        <pt x="308" y="-6" on="0"/>
        <pt x="303" y="-6" on="1"/>
        <pt x="262" y="-6" on="0"/>
        <pt x="205" y="-2" on="0"/>
        <pt x="176" y="0" on="1"/>
        <pt x="146" y="-29" on="0"/>
        <pt x="101" y="-89" on="0"/>
        <pt x="101" y="-122" on="1"/>
        <pt x="101" y="-148" on="0"/>
        <pt x="132" y="-174" on="0"/>
        <pt x="155" y="-174" on="1"/>
        <pt x="172" y="-174" on="0"/>
        <pt x="194" y="-163" on="0"/>
        <pt x="204" y="-155" on="1"/>
        <pt x="211" y="-150" on="0"/>
        <pt x="218" y="-163" on="1"/>
        <pt x="223" y="-171" on="0"/>
      </contour>
    </TTGlyph>
    <TTGlyph name="Iogonek.sc" xMin="8" yMin="-225" xMax="343" yMax="456">
      <component glyphName="iogonek.sc" x="0" y="0" flags="0x204"/>
    </TTGlyph>
    <TTGlyph name="J" xMin="-152" yMin="-274" xMax="508" yMax="705">
      <contour>
        <pt x="508" y="666" on="1"/>
        <pt x="508" y="644" on="0"/>
        <pt x="465" y="615" on="0"/>
        <pt x="434" y="607" on="1"/>
        <pt x="427" y="598" on="0"/>
        <pt x="410" y="553" on="0"/>
        <pt x="389" y="487" on="0"/>
        <pt x="367" y="406" on="0"/>
        <pt x="356" y="361" on="1"/>
        <pt x="447" y="361" on="1"/>
        <pt x="453" y="359" on="0"/>
        <pt x="453" y="351" on="1"/>
        <pt x="453" y="343" on="0"/>
        <pt x="445" y="329" on="0"/>
        <pt x="439" y="329" on="1"/>
        <pt x="347" y="329" on="1"/>
        <pt x="333" y="271" on="0"/>
        <pt x="305" y="154" on="0"/>
        <pt x="293" y="103" on="1"/>
        <pt x="276" y="33" on="0"/>
        <pt x="210" y="-102" on="0"/>
        <pt x="120" y="-209" on="0"/>
        <pt x="7" y="-274" on="0"/>
        <pt x="-56" y="-274" on="1"/>
        <pt x="-72" y="-274" on="0"/>
        <pt x="-106" y="-265" on="0"/>
        <pt x="-134" y="-247" on="0"/>
        <pt x="-152" y="-220" on="0"/>
        <pt x="-152" y="-202" on="1"/>
        <pt x="-152" y="-182" on="0"/>
        <pt x="-124" y="-156" on="0"/>
        <pt x="-101" y="-156" on="1"/>
        <pt x="-75" y="-156" on="0"/>
        <pt x="-46" y="-176" on="0"/>
        <pt x="-25" y="-199" on="0"/>
        <pt x="-5" y="-219" on="0"/>
        <pt x="12" y="-219" on="1"/>
        <pt x="34" y="-219" on="0"/>
        <pt x="77" y="-196" on="0"/>
        <pt x="119" y="-131" on="0"/>
        <pt x="162" y="-17" on="0"/>
        <pt x="184" y="75" on="1"/>
        <pt x="199" y="137" on="0"/>
        <pt x="236" y="266" on="0"/>
        <pt x="256" y="329" on="1"/>
        <pt x="161" y="329" on="1"/>
        <pt x="159" y="329" on="0"/>
        <pt x="155" y="333" on="0"/>
        <pt x="155" y="340" on="1"/>
        <pt x="155" y="347" on="0"/>
        <pt x="164" y="360" on="0"/>
        <pt x="169" y="361" on="1"/>
        <pt x="267" y="361" on="1"/>
        <pt x="292" y="436" on="0"/>
        <pt x="338" y="559" on="0"/>
        <pt x="358" y="595" on="1"/>
        <pt x="349" y="594" on="0"/>
        <pt x="332" y="594" on="0"/>
        <pt x="324" y="594" on="1"/>
        <pt x="301" y="594" on="0"/>
        <pt x="263" y="610" on="0"/>
        <pt x="229" y="628" on="0"/>
        <pt x="195" y="644" on="0"/>
        <pt x="176" y="644" on="1"/>
        <pt x="148" y="644" on="0"/>
        <pt x="122" y="618" on="0"/>
        <pt x="122" y="604" on="1"/>
        <pt x="122" y="592" on="0"/>
        <pt x="134" y="580" on="0"/>
        <pt x="148" y="568" on="0"/>
        <pt x="160" y="551" on="0"/>
        <pt x="160" y="536" on="1"/>
        <pt x="160" y="518" on="0"/>
        <pt x="132" y="496" on="0"/>
        <pt x="108" y="496" on="1"/>
        <pt x="88" y="496" on="0"/>
        <pt x="58" y="529" on="0"/>
        <pt x="58" y="549" on="1"/>
        <pt x="58" y="575" on="0"/>
        <pt x="88" y="631" on="0"/>
        <pt x="135" y="676" on="0"/>
        <pt x="194" y="705" on="0"/>
        <pt x="223" y="705" on="1"/>
        <pt x="254" y="705" on="0"/>
        <pt x="299" y="688" on="0"/>
        <pt x="335" y="664" on="0"/>
        <pt x="365" y="639" on="0"/>
        <pt x="381" y="631" on="1"/>
        <pt x="394" y="667" on="0"/>
        <pt x="444" y="705" on="0"/>
        <pt x="467" y="705" on="1"/>
        <pt x="486" y="705" on="0"/>
        <pt x="508" y="683" on="0"/>
      </contour>
    </TTGlyph>
    <TTGlyph name="J.sc" xMin="-41" yMin="-168" xMax="430" yMax="469">
      <component glyphName="j.sc" x="0" y="0" flags="0x204"/>
    </TTGlyph>
    <TTGlyph name="K" xMin="-34" yMin="-28" xMax="765" yMax="690">
      <contour>
        <pt x="765" y="680" on="1"/>
        <pt x="765" y="674" on="0"/>
        <pt x="760" y="662" on="0"/>
        <pt x="755" y="662" on="1"/>
        <pt x="728" y="659" on="0"/>
        <pt x="690" y="650" on="0"/>
        <pt x="659" y="636" on="0"/>
        <pt x="631" y="616" on="0"/>
        <pt x="615" y="602" on="1"/>
        <pt x="349" y="373" on="1"/>
        <pt x="536" y="86" on="1"/>
        <pt x="552" y="59" on="0"/>
        <pt x="620" y="15" on="0"/>
        <pt x="675" y="4" on="1"/>
        <pt x="682" y="2" on="0"/>
        <pt x="682" y="-6" on="1"/>
        <pt x="682" y="-28" on="0"/>
        <pt x="668" y="-24" on="1"/>
        <pt x="623" y="-16" on="0"/>
        <pt x="520" y="-6" on="0"/>
        <pt x="475" y="-6" on="1"/>
        <pt x="303" y="275" on="1"/>
        <pt x="284" y="304" on="0"/>
        <pt x="265" y="321" on="0"/>
        <pt x="247" y="321" on="1"/>
        <pt x="195" y="106" on="1"/>
        <pt x="193" y="96" on="0"/>
        <pt x="190" y="80" on="0"/>
        <pt x="190" y="72" on="1"/>
        <pt x="190" y="51" on="0"/>
        <pt x="226" y="28" on="0"/>
        <pt x="279" y="22" on="1"/>
        <pt x="284" y="20" on="0"/>
        <pt x="284" y="13" on="1"/>
        <pt x="284" y="6" on="0"/>
        <pt x="277" y="-6" on="0"/>
        <pt x="272" y="-6" on="1"/>
        <pt x="247" y="-6" on="0"/>
        <pt x="208" y="-4" on="0"/>
        <pt x="173" y="-2" on="0"/>
        <pt x="139" y="0" on="0"/>
        <pt x="119" y="0" on="1"/>
        <pt x="80" y="0" on="0"/>
        <pt x="16" y="-6" on="0"/>
        <pt x="-29" y="-6" on="1"/>
        <pt x="-31" y="-6" on="0"/>
        <pt x="-34" y="-3" on="0"/>
        <pt x="-34" y="3" on="1"/>
        <pt x="-34" y="10" on="0"/>
        <pt x="-27" y="21" on="0"/>
        <pt x="-22" y="22" on="1"/>
        <pt x="15" y="26" on="0"/>
        <pt x="57" y="39" on="0"/>
        <pt x="80" y="59" on="0"/>
        <pt x="89" y="87" on="0"/>
        <pt x="94" y="106" on="1"/>
        <pt x="206" y="577" on="1"/>
        <pt x="208" y="587" on="0"/>
        <pt x="211" y="603" on="0"/>
        <pt x="211" y="611" on="1"/>
        <pt x="211" y="632" on="0"/>
        <pt x="174" y="655" on="0"/>
        <pt x="122" y="662" on="1"/>
        <pt x="117" y="662" on="0"/>
        <pt x="117" y="670" on="1"/>
        <pt x="117" y="677" on="0"/>
        <pt x="124" y="690" on="0"/>
        <pt x="129" y="690" on="1"/>
        <pt x="154" y="690" on="0"/>
        <pt x="193" y="688" on="0"/>
        <pt x="227" y="686" on="0"/>
        <pt x="262" y="684" on="0"/>
        <pt x="282" y="684" on="1"/>
        <pt x="321" y="684" on="0"/>
        <pt x="385" y="690" on="0"/>
        <pt x="430" y="690" on="1"/>
        <pt x="435" y="690" on="0"/>
        <pt x="435" y="680" on="1"/>
        <pt x="435" y="674" on="0"/>
        <pt x="428" y="662" on="0"/>
        <pt x="423" y="662" on="1"/>
        <pt x="385" y="657" on="0"/>
        <pt x="343" y="644" on="0"/>
        <pt x="321" y="625" on="0"/>
        <pt x="311" y="596" on="0"/>
        <pt x="307" y="577" on="1"/>
        <pt x="257" y="367" on="1"/>
        <pt x="277" y="367" on="0"/>
        <pt x="302" y="376" on="0"/>
        <pt x="320" y="393" on="1"/>
        <pt x="548" y="593" on="1"/>
        <pt x="558" y="602" on="0"/>
        <pt x="572" y="621" on="0"/>
        <pt x="572" y="631" on="1"/>
        <pt x="572" y="645" on="0"/>
        <pt x="545" y="657" on="0"/>
        <pt x="510" y="662" on="1"/>
        <pt x="504" y="662" on="0"/>
        <pt x="504" y="670" on="1"/>
        <pt x="504" y="677" on="0"/>
        <pt x="510" y="690" on="0"/>
        <pt x="515" y="690" on="1"/>
        <pt x="533" y="690" on="0"/>
        <pt x="562" y="688" on="0"/>
        <pt x="591" y="686" on="0"/>
        <pt x="621" y="684" on="0"/>
        <pt x="641" y="684" on="1"/>
        <pt x="660" y="684" on="0"/>
        <pt x="691" y="686" on="0"/>
        <pt x="718" y="688" on="0"/>
        <pt x="745" y="690" on="0"/>
        <pt x="760" y="690" on="1"/>
        <pt x="765" y="690" on="0"/>
      </contour>
    </TTGlyph>
    <TTGlyph name="K.sc" xMin="1" yMin="-23" xMax="560" yMax="456">
      <component glyphName="k.sc" x="0" y="0" flags="0x204"/>
    </TTGlyph>
    <TTGlyph name="K.swa" xMin="55" yMin="-332" xMax="1355" yMax="741">
      <contour>
        <pt x="1355" y="-159" on="1"/>
        <pt x="1355" y="-195" on="0"/>
        <pt x="1326" y="-258" on="0"/>
        <pt x="1271" y="-305" on="0"/>
        <pt x="1191" y="-332" on="0"/>
        <pt x="1140" y="-332" on="1"/>
        <pt x="1050" y="-332" on="0"/>
        <pt x="879" y="-232" on="0"/>
        <pt x="723" y="-62" on="0"/>
        <pt x="584" y="161" on="0"/>
        <pt x="526" y="283" on="1"/>
        <pt x="514" y="307" on="0"/>
        <pt x="490" y="329" on="0"/>
        <pt x="470" y="329" on="1"/>
        <pt x="418" y="107" on="1"/>
        <pt x="412" y="87" on="0"/>
        <pt x="412" y="73" on="1"/>
        <pt x="412" y="62" on="0"/>
        <pt x="420" y="46" on="0"/>
        <pt x="440" y="34" on="0"/>
        <pt x="475" y="25" on="0"/>
        <pt x="501" y="22" on="1"/>
        <pt x="506" y="22" on="0"/>
        <pt x="506" y="14" on="1"/>
        <pt x="506" y="7" on="0"/>
        <pt x="499" y="-6" on="0"/>
        <pt x="494" y="-6" on="1"/>
        <pt x="469" y="-6" on="0"/>
        <pt x="430" y="-4" on="0"/>
        <pt x="396" y="-2" on="0"/>
        <pt x="361" y="0" on="0"/>
        <pt x="341" y="0" on="1"/>
        <pt x="302" y="0" on="0"/>
        <pt x="238" y="-6" on="0"/>
        <pt x="193" y="-6" on="1"/>
        <pt x="188" y="-6" on="0"/>
        <pt x="188" y="4" on="1"/>
        <pt x="188" y="10" on="0"/>
        <pt x="195" y="21" on="0"/>
        <pt x="200" y="22" on="1"/>
        <pt x="237" y="26" on="0"/>
        <pt x="280" y="39" on="0"/>
        <pt x="302" y="59" on="0"/>
        <pt x="311" y="87" on="0"/>
        <pt x="316" y="107" on="1"/>
        <pt x="441" y="638" on="1"/>
        <pt x="413" y="643" on="0"/>
        <pt x="359" y="655" on="0"/>
        <pt x="327" y="655" on="1"/>
        <pt x="287" y="655" on="0"/>
        <pt x="202" y="637" on="0"/>
        <pt x="132" y="597" on="0"/>
        <pt x="87" y="535" on="0"/>
        <pt x="87" y="491" on="1"/>
        <pt x="87" y="460" on="0"/>
        <pt x="126" y="417" on="0"/>
        <pt x="158" y="417" on="1"/>
        <pt x="173" y="417" on="0"/>
        <pt x="188" y="436" on="0"/>
        <pt x="201" y="459" on="0"/>
        <pt x="218" y="478" on="0"/>
        <pt x="236" y="478" on="1"/>
        <pt x="259" y="478" on="0"/>
        <pt x="289" y="451" on="0"/>
        <pt x="289" y="422" on="1"/>
        <pt x="289" y="393" on="0"/>
        <pt x="240" y="351" on="0"/>
        <pt x="198" y="351" on="1"/>
        <pt x="135" y="351" on="0"/>
        <pt x="55" y="426" on="0"/>
        <pt x="55" y="491" on="1"/>
        <pt x="55" y="542" on="0"/>
        <pt x="104" y="622" on="0"/>
        <pt x="182" y="677" on="0"/>
        <pt x="279" y="705" on="0"/>
        <pt x="327" y="705" on="1"/>
        <pt x="353" y="705" on="0"/>
        <pt x="397" y="699" on="0"/>
        <pt x="439" y="692" on="0"/>
        <pt x="481" y="686" on="0"/>
        <pt x="504" y="686" on="1"/>
        <pt x="512" y="686" on="0"/>
        <pt x="528" y="686" on="0"/>
        <pt x="535" y="687" on="1"/>
        <pt x="543" y="688" on="0"/>
        <pt x="553" y="675" on="0"/>
        <pt x="551" y="667" on="1"/>
        <pt x="478" y="361" on="1"/>
        <pt x="498" y="361" on="0"/>
        <pt x="526" y="372" on="0"/>
        <pt x="541" y="387" on="1"/>
        <pt x="632" y="480" on="0"/>
        <pt x="761" y="613" on="0"/>
        <pt x="867" y="700" on="0"/>
        <pt x="968" y="741" on="0"/>
        <pt x="1031" y="741" on="1"/>
        <pt x="1047" y="741" on="0"/>
        <pt x="1081" y="732" on="0"/>
        <pt x="1109" y="714" on="0"/>
        <pt x="1127" y="687" on="0"/>
        <pt x="1127" y="669" on="1"/>
        <pt x="1127" y="649" on="0"/>
        <pt x="1098" y="622" on="0"/>
        <pt x="1076" y="622" on="1"/>
        <pt x="1050" y="622" on="0"/>
        <pt x="1021" y="642" on="0"/>
        <pt x="1000" y="666" on="0"/>
        <pt x="980" y="686" on="0"/>
        <pt x="963" y="686" on="1"/>
        <pt x="934" y="686" on="0"/>
        <pt x="868" y="650" on="0"/>
        <pt x="779" y="575" on="0"/>
        <pt x="661" y="458" on="0"/>
        <pt x="580" y="377" on="1"/>
        <pt x="619" y="298" on="0"/>
        <pt x="710" y="137" on="0"/>
        <pt x="808" y="-14" on="0"/>
        <pt x="910" y="-146" on="0"/>
        <pt x="1009" y="-243" on="0"/>
        <pt x="1101" y="-300" on="0"/>
        <pt x="1140" y="-300" on="1"/>
        <pt x="1222" y="-300" on="0"/>
        <pt x="1300" y="-241" on="0"/>
        <pt x="1300" y="-193" on="1"/>
        <pt x="1300" y="-179" on="0"/>
        <pt x="1282" y="-165" on="0"/>
        <pt x="1259" y="-153" on="0"/>
        <pt x="1241" y="-135" on="0"/>
        <pt x="1241" y="-117" on="1"/>
        <pt x="1241" y="-94" on="0"/>
        <pt x="1270" y="-63" on="0"/>
        <pt x="1290" y="-63" on="1"/>
        <pt x="1322" y="-63" on="0"/>
        <pt x="1355" y="-117" on="0"/>
      </contour>
    </TTGlyph>
    <TTGlyph name="Kcommaaccent" xMin="-34" yMin="-283" xMax="765" yMax="690">
      <component glyphName="K" x="0" y="0" flags="0x204"/>
      <component glyphName="commaaccent" x="222" y="-4" flags="0x4"/>
    </TTGlyph>
    <TTGlyph name="Kcommaaccent.sc" xMin="1" yMin="-279" xMax="560" yMax="456">
      <component glyphName="k.sc" x="0" y="0" flags="0x204"/>
      <component glyphName="commaaccent" x="126" y="0" flags="0x4"/>
    </TTGlyph>
    <TTGlyph name="Kcommaaccent.swa" xMin="55" yMin="-332" xMax="1355" yMax="741">
      <component glyphName="K.swa" x="0" y="0" flags="0x204"/>
      <component glyphName="commaaccent" x="442" y="-4" flags="0x4"/>
    </TTGlyph>
    <TTGlyph name="L" xMin="-35" yMin="-6" xMax="595" yMax="690">
      <contour>
        <pt x="593" y="174" on="1"/>
        <pt x="585" y="156" on="0"/>
        <pt x="565" y="111" on="0"/>
        <pt x="546" y="63" on="0"/>
        <pt x="528" y="15" on="0"/>
        <pt x="521" y="-6" on="1"/>
        <pt x="498" y="-5" on="0"/>
        <pt x="426" y="-3" on="0"/>
        <pt x="348" y="-1" on="0"/>
        <pt x="274" y="0" on="0"/>
        <pt x="250" y="0" on="1"/>
        <pt x="226" y="0" on="0"/>
        <pt x="150" y="-1" on="0"/>
        <pt x="69" y="-3" on="0"/>
        <pt x="-6" y="-5" on="0"/>
        <pt x="-29" y="-6" on="1"/>
        <pt x="-31" y="-6" on="0"/>
        <pt x="-35" y="-3" on="0"/>
        <pt x="-35" y="3" on="1"/>
        <pt x="-35" y="10" on="0"/>
        <pt x="-28" y="21" on="0"/>
        <pt x="-23" y="22" on="1"/>
        <pt x="14" y="26" on="0"/>
        <pt x="57" y="39" on="0"/>
        <pt x="79" y="59" on="0"/>
        <pt x="88" y="87" on="0"/>
        <pt x="93" y="106" on="1"/>
        <pt x="205" y="577" on="1"/>
        <pt x="207" y="587" on="0"/>
        <pt x="210" y="603" on="0"/>
        <pt x="210" y="611" on="1"/>
        <pt x="210" y="632" on="0"/>
        <pt x="174" y="655" on="0"/>
        <pt x="121" y="662" on="1"/>
        <pt x="116" y="662" on="0"/>
        <pt x="116" y="670" on="1"/>
        <pt x="116" y="677" on="0"/>
        <pt x="123" y="690" on="0"/>
        <pt x="128" y="690" on="1"/>
        <pt x="153" y="690" on="0"/>
        <pt x="192" y="688" on="0"/>
        <pt x="227" y="686" on="0"/>
        <pt x="261" y="684" on="0"/>
        <pt x="281" y="684" on="1"/>
        <pt x="320" y="684" on="0"/>
        <pt x="384" y="690" on="0"/>
        <pt x="429" y="690" on="1"/>
        <pt x="434" y="690" on="0"/>
        <pt x="434" y="680" on="1"/>
        <pt x="434" y="674" on="0"/>
        <pt x="427" y="662" on="0"/>
        <pt x="422" y="662" on="1"/>
        <pt x="385" y="657" on="0"/>
        <pt x="343" y="644" on="0"/>
        <pt x="321" y="625" on="0"/>
        <pt x="311" y="596" on="0"/>
        <pt x="307" y="577" on="1"/>
        <pt x="195" y="106" on="1"/>
        <pt x="193" y="96" on="0"/>
        <pt x="189" y="80" on="0"/>
        <pt x="189" y="72" on="1"/>
        <pt x="189" y="49" on="0"/>
        <pt x="216" y="32" on="0"/>
        <pt x="236" y="32" on="1"/>
        <pt x="357" y="32" on="1"/>
        <pt x="391" y="32" on="0"/>
        <pt x="453" y="55" on="0"/>
        <pt x="505" y="96" on="0"/>
        <pt x="549" y="151" on="0"/>
        <pt x="566" y="183" on="1"/>
        <pt x="568" y="189" on="0"/>
        <pt x="578" y="189" on="1"/>
        <pt x="588" y="189" on="0"/>
        <pt x="595" y="179" on="0"/>
      </contour>
    </TTGlyph>
    <TTGlyph name="L.sc" xMin="1" yMin="-6" xMax="443" yMax="456">
      <component glyphName="l.sc" x="0" y="0" flags="0x204"/>
    </TTGlyph>
    <TTGlyph name="L.sc_swa" xMin="-20" yMin="-54" xMax="437" yMax="473">
      <component glyphName="l.sc_swa" x="0" y="0" flags="0x204"/>
    </TTGlyph>
    <TTGlyph name="L.swa" xMin="-32" yMin="-228" xMax="735" yMax="705">
      <contour>
        <pt x="735" y="-118" on="1"/>
        <pt x="735" y="-139" on="0"/>
        <pt x="714" y="-179" on="0"/>
        <pt x="678" y="-209" on="0"/>
        <pt x="628" y="-228" on="0"/>
        <pt x="599" y="-228" on="1"/>
        <pt x="540" y="-228" on="0"/>
        <pt x="445" y="-184" on="0"/>
        <pt x="364" y="-117" on="0"/>
        <pt x="295" y="-40" on="0"/>
        <pt x="234" y="27" on="0"/>
        <pt x="175" y="71" on="0"/>
        <pt x="145" y="71" on="1"/>
        <pt x="122" y="36" on="0"/>
        <pt x="52" y="-15" on="0"/>
        <pt x="15" y="-15" on="1"/>
        <pt x="-7" y="-15" on="0"/>
        <pt x="-32" y="3" on="0"/>
        <pt x="-32" y="20" on="1"/>
        <pt x="-32" y="44" on="0"/>
        <pt x="-2" y="77" on="0"/>
        <pt x="45" y="99" on="0"/>
        <pt x="101" y="111" on="0"/>
        <pt x="128" y="114" on="1"/>
        <pt x="148" y="154" on="0"/>
        <pt x="176" y="272" on="0"/>
        <pt x="206" y="403" on="0"/>
        <pt x="245" y="534" on="0"/>
        <pt x="307" y="639" on="0"/>
        <pt x="397" y="705" on="0"/>
        <pt x="463" y="705" on="1"/>
        <pt x="489" y="705" on="0"/>
        <pt x="541" y="689" on="0"/>
        <pt x="582" y="662" on="0"/>
        <pt x="608" y="627" on="0"/>
        <pt x="608" y="608" on="1"/>
        <pt x="608" y="582" on="0"/>
        <pt x="584" y="552" on="0"/>
        <pt x="558" y="552" on="1"/>
        <pt x="540" y="552" on="0"/>
        <pt x="522" y="570" on="0"/>
        <pt x="515" y="597" on="0"/>
        <pt x="511" y="628" on="0"/>
        <pt x="502" y="655" on="0"/>
        <pt x="483" y="673" on="0"/>
        <pt x="463" y="673" on="1"/>
        <pt x="417" y="673" on="0"/>
        <pt x="367" y="621" on="0"/>
        <pt x="339" y="534" on="0"/>
        <pt x="319" y="420" on="0"/>
        <pt x="289" y="297" on="0"/>
        <pt x="235" y="173" on="0"/>
        <pt x="186" y="119" on="1"/>
        <pt x="200" y="119" on="1"/>
        <pt x="239" y="119" on="0"/>
        <pt x="314" y="72" on="0"/>
        <pt x="386" y="3" on="0"/>
        <pt x="454" y="-79" on="0"/>
        <pt x="516" y="-148" on="0"/>
        <pt x="573" y="-195" on="0"/>
        <pt x="599" y="-195" on="1"/>
        <pt x="628" y="-195" on="0"/>
        <pt x="652" y="-174" on="0"/>
        <pt x="652" y="-160" on="1"/>
        <pt x="652" y="-150" on="0"/>
        <pt x="648" y="-137" on="0"/>
        <pt x="642" y="-127" on="0"/>
        <pt x="638" y="-115" on="0"/>
        <pt x="638" y="-105" on="1"/>
        <pt x="638" y="-85" on="0"/>
        <pt x="663" y="-62" on="0"/>
        <pt x="683" y="-62" on="1"/>
        <pt x="712" y="-62" on="0"/>
        <pt x="735" y="-93" on="0"/>
      </contour>
    </TTGlyph>
    <TTGlyph name="Lacute" xMin="-35" yMin="-6" xMax="595" yMax="924">
      <component glyphName="L" x="0" y="0" flags="0x204"/>
      <component glyphName="acute.cap" x="158" y="0" flags="0x4"/>
    </TTGlyph>
    <TTGlyph name="Lacute.sc" xMin="1" yMin="-6" xMax="443" yMax="677">
      <component glyphName="l.sc" x="0" y="0" flags="0x204"/>
      <component glyphName="acute" x="72" y="0" flags="0x4"/>
    </TTGlyph>
    <TTGlyph name="Lacute.sc_swa" xMin="-20" yMin="-54" xMax="502" yMax="697">
      <component glyphName="l.sc_swa" x="0" y="0" flags="0x204"/>
      <component glyphName="acute" x="174" y="20" flags="0x4"/>
    </TTGlyph>
    <TTGlyph name="Lacute.swa" xMin="-32" yMin="-228" xMax="735" yMax="939">
      <component glyphName="L.swa" x="0" y="0" flags="0x204"/>
      <component glyphName="acute.cap" x="357" y="15" flags="0x4"/>
    </TTGlyph>
    <TTGlyph name="Lcaron" xMin="-35" yMin="-6" xMax="595" yMax="691">
      <component glyphName="L" x="0" y="0" flags="0x204"/>
      <component glyphName="caron.alt" x="235" y="-53" flags="0x4"/>
    </TTGlyph>
    <TTGlyph name="Lcaron.sc" xMin="1" yMin="-6" xMax="447" yMax="457">
      <component glyphName="l.sc" x="0" y="0" flags="0x204"/>
      <component glyphName="caron.alt" x="130" y="-287" flags="0x4"/>
    </TTGlyph>
    <TTGlyph name="Lcommaaccent" xMin="-35" yMin="-288" xMax="595" yMax="690">
      <component glyphName="L" x="0" y="0" flags="0x204"/>
      <component glyphName="commaaccent" x="129" y="-9" flags="0x4"/>
    </TTGlyph>
    <TTGlyph name="Lcommaaccent.sc" xMin="1" yMin="-283" xMax="443" yMax="456">
      <component glyphName="l.sc" x="0" y="0" flags="0x204"/>
      <component glyphName="commaaccent" x="64" y="-4" flags="0x4"/>
    </TTGlyph>
    <TTGlyph name="Lcommaaccent.sc_swa" xMin="-20" yMin="-279" xMax="437" yMax="473">
      <component glyphName="l.sc_swa" x="0" y="0" flags="0x204"/>
      <component glyphName="commaaccent" x="29" y="0" flags="0x4"/>
    </TTGlyph>
    <TTGlyph name="Lcommaaccent.swa" xMin="-32" yMin="-259" xMax="735" yMax="705">
      <component glyphName="L.swa" x="0" y="0" flags="0x204"/>
      <component glyphName="commaaccent" x="35" y="20" flags="0x4"/>
    </TTGlyph>
    <TTGlyph name="Ldot" xMin="-35" yMin="-6" xMax="595" yMax="690">
      <component glyphName="L" x="0" y="0" flags="0x204"/>
      <component glyphName="periodcentered" x="366" y="34" flags="0x4"/>
    </TTGlyph>
    <TTGlyph name="Ldot.sc" xMin="1" yMin="-6" xMax="455" yMax="456">
      <component glyphName="ldot.sc" x="0" y="0" flags="0x204"/>
    </TTGlyph>
    <TTGlyph name="Ldot.sc_swa" xMin="-20" yMin="-54" xMax="459" yMax="473">
      <component glyphName="ldot.sc_swa" x="0" y="0" flags="0x204"/>
    </TTGlyph>
    <TTGlyph name="Ldot.swa" xMin="-32" yMin="-228" xMax="735" yMax="705">
      <component glyphName="L.swa" x="0" y="0" flags="0x204"/>
      <component glyphName="periodcentered" x="391" y="-31" flags="0x4"/>
    </TTGlyph>
</ttFont>
